<svg id="Layer_1" data-name="Layer 1" xmlns="http://www.w3.org/2000/svg" viewBox="0 0 920 920"><defs><style>.cls-1{fill:#e6e6e6;}.cls-2{fill:#335eea;}.cls-3{fill:#ffb7b7;}.cls-4{fill:#fb970b;}.cls-5{isolation:isolate;opacity:0.2;}.cls-6{fill:#6c8aec;}.cls-7{fill:#cbcbcb;}.cls-8{fill:#fbaa37;}.cls-9{fill:#fcc372;}.cls-10{fill:#241f20;}.cls-11{fill:#9e616a;}.cls-12{fill:#acabb0;}.cls-13{fill:#1746e0;}.cls-14{fill:#a0616a;}.cls-15{fill:#636267;}</style></defs><path id="efdf5e1f-6b90-40c1-9274-afa2b16f39be-394" class="cls-1" d="M532.79,777.09S518,740.74,562.32,713.48Z"/><path id="af7fe47f-56e6-4bb6-aa0f-d6efaf86a160-395" class="cls-1" d="M514.63,776.43s-4.5-25.91-39.37-25.68Z"/><path id="a08d42bc-6ae2-46d7-9736-aba59e52cc48-396" class="cls-1" d="M847.69,777.09s-19.51-48,39-84Z"/><path id="bafd7749-4c33-42a1-9524-e744b9f16454-397" class="cls-1" d="M823.7,776.22s-6-34.23-52-33.93"/><path d="M632.83,232.71a962.82,962.82,0,0,0-143.3,2.2c-23,2.08-46.29,4.32-68.83,9.33-18.15,4-39.22,10.85-50.54,26.73a25.84,25.84,0,0,0-4,22.6c2.7,9.05,9.41,16.59,16.56,22.49,16.44,13.59,36.85,21.49,55.07,32.29,33.28,19.71,63.74,46.27,83.29,80,8.6,14.85,16.78,34.59,7.2,50.95-9.38,16-30.33,21.56-47.41,24.16-21.42,3.26-43.47,2.38-65,.55a675.55,675.55,0,0,1-70.23-10.29C300.16,485,255.1,473.89,209,468.84a395.58,395.58,0,0,0-69.67-2c-21,1.41-42.16,4.73-61.87,12.3-15.2,5.83-31.39,14.65-39.6,29.37C29.94,522.68,33,539,41.64,552.12,52,567.87,68.17,578.66,85,586.54c19.13,9,39.59,14.8,60.08,19.75,10.39,2.51,20.84,4.78,31.29,7,2.18.47,3.11-2.88.92-3.35-21.07-4.55-42.2-9.12-62.75-15.71-19-6.1-38.47-13.91-54-26.72-12.59-10.36-24.57-25.49-23.83-42.7s15.3-29.46,29.57-36.91c17.82-9.32,38.08-13.85,57.92-16.23a352.31,352.31,0,0,1,68.42-.93c46,3.5,91,14,136.08,23.12,43.81,8.88,89,17.1,133.9,14.83,17.8-.91,36.87-3.46,52.58-12.44,7.2-4.11,13.68-9.91,17.34-17.46a39.13,39.13,0,0,0,3-23c-2.55-17.1-12.71-33-22.84-46.58a224.65,224.65,0,0,0-38.38-39.75,302.19,302.19,0,0,0-50.77-33.08c-9.54-5-19.21-9.85-28.31-15.67-8.71-5.58-17.31-12.29-22.63-21.34-4.61-7.83-5.45-16.77-.66-24.71S385.06,261.08,393.3,257c19.85-9.87,42.94-12.51,64.66-15.22a956.46,956.46,0,0,1,140.63-7q17.13.41,34.24,1.42c2.23.13,2.22-3.34,0-3.47Z"/><circle class="cls-2" cx="208.82" cy="613.92" r="12.23"/><polygon class="cls-3" points="751.66 755.16 740.34 759.37 718.72 717.7 735.44 711.49 751.66 755.16"/><path d="M758.63,765.07l-36.51,13.56-.17-.46a15.16,15.16,0,0,1,8.93-19.49h0l22.3-8.29Z"/><polygon class="cls-3" points="640.23 766.92 628.15 766.92 622.4 720.33 640.23 720.33 640.23 766.92"/><path d="M642.32,778.63h-39v-.49A15.16,15.16,0,0,1,618.53,763h23.79Z"/><path class="cls-4" d="M695.53,443.78l-3.94-7.88-33.5,16.75,1,6.9-6.41,8.37s-10.84,5.91-8.87,25.62l2,18.72,2.47,24.14L631,596l-8.87,78.83-6.41,63.55,31-1.48,28.57-103.46,50.25,111.34,34.49-8.87L712.78,625.57l-5.92-46.31s3.94-24.63-14.78-41.38l3-8.87V518.08L704.89,466Z"/><rect class="cls-5" x="646.25" y="594.45" width="79.85" height="1.16" transform="translate(-72.78 1093.91) rotate(-74.25)"/><rect x="646.27" y="536.4" width="48.28" height="4.93"/><ellipse cx="646.27" cy="539.36" rx="1.97" ry="4.93"/><circle class="cls-3" cx="668.04" cy="407.99" r="26.26"/><circle cx="708.23" cy="375.38" r="23.23"/><path d="M737.71,372.9a23.23,23.23,0,1,1-44.54,13.25,23.54,23.54,0,0,1-.78-3.73,23.23,23.23,0,0,0,45.32-9.52Z"/><path d="M645.92,400.7a27.48,27.48,0,1,0,16.4-22.11c-4.59-3.7-10.28-2.56-14.91,1.35-5.23,4.41-6.78,7.45-10.83,14.71C640.56,395.21,641.94,400.14,645.92,400.7Z"/><path class="cls-3" d="M685,593.5a9.25,9.25,0,0,0-1.63-13,9.39,9.39,0,0,0-1.37-.88l1.9-21-12.5-4.27-2.27,29.73A9.29,9.29,0,0,0,685,593.5Z"/><path class="cls-6" d="M686.63,573.15l-22.14-.8.94-106.79a14.42,14.42,0,0,1,9.76-13.72,13.12,13.12,0,0,1,8.24,0,14.43,14.43,0,0,1,9.75,14.76Z"/><path class="cls-7" d="M880.89,779H439.72a1.16,1.16,0,0,1,0-2.32H880.89a1.16,1.16,0,0,1,0,2.32Z"/><path class="cls-1" d="M355.52,393.91v73.6a3.54,3.54,0,0,0,3.54,3.54H468.13a3.55,3.55,0,0,0,3.54-3.54v-73.6a3.54,3.54,0,0,0-3.54-3.53H359.06A3.54,3.54,0,0,0,355.52,393.91Z"/><path class="cls-2" d="M426.61,451.64h0a33.6,33.6,0,0,0-9.18,0h0a1.76,1.76,0,0,1-1.7-2.37,3.83,3.83,0,0,0,0-2.65A1.83,1.83,0,0,1,416,445a1.72,1.72,0,0,1,1.33-.79h.13a26.7,26.7,0,0,0,9.18,0h0a1.89,1.89,0,0,1,1.53.78,1.73,1.73,0,0,1,.25,1.48,6.27,6.27,0,0,0,0,3,1.69,1.69,0,0,1-.13,1.15A1.88,1.88,0,0,1,426.61,451.64Z"/><path class="cls-6" d="M378.3,421.65h0a32.75,32.75,0,0,0-9.17,0h0a1.89,1.89,0,0,1-.87-.21,1.78,1.78,0,0,1-.82-2.17,3.83,3.83,0,0,0,0-2.65,1.85,1.85,0,0,1,.2-1.63,1.7,1.7,0,0,1,1.33-.79h.13a26.21,26.21,0,0,0,9.18,0h0a1.91,1.91,0,0,1,1.54.78,1.77,1.77,0,0,1,.25,1.48,6.27,6.27,0,0,0,0,3,1.78,1.78,0,0,1-.13,1.16A1.91,1.91,0,0,1,378.3,421.65Z"/><path class="cls-2" d="M378.3,431.7h0a32.75,32.75,0,0,0-9.17,0h0a1.89,1.89,0,0,1-.87-.21,1.78,1.78,0,0,1-.82-2.17,3.83,3.83,0,0,0,0-2.65,1.87,1.87,0,0,1,.2-1.64,1.71,1.71,0,0,1,1.33-.78h.13a26.21,26.21,0,0,0,9.18,0h0a1.91,1.91,0,0,1,1.54.78,1.76,1.76,0,0,1,.25,1.48,6.27,6.27,0,0,0,0,3,1.78,1.78,0,0,1-.13,1.16A1.91,1.91,0,0,1,378.3,431.7Z"/><path class="cls-8" d="M378.3,441.75h0a32.75,32.75,0,0,0-9.17,0h0a1.89,1.89,0,0,1-.87-.21,1.78,1.78,0,0,1-.82-2.17,3.83,3.83,0,0,0,0-2.65,1.87,1.87,0,0,1,.2-1.64,1.71,1.71,0,0,1,1.33-.78h.13a26.21,26.21,0,0,0,9.18,0h0a1.91,1.91,0,0,1,1.54.78,1.76,1.76,0,0,1,.25,1.48,6.27,6.27,0,0,0,0,3,1.78,1.78,0,0,1-.13,1.16A1.91,1.91,0,0,1,378.3,441.75Z"/><path class="cls-9" d="M394.42,421.65h0a32.75,32.75,0,0,0-9.17,0h0a1.9,1.9,0,0,1-.88-.21,1.78,1.78,0,0,1-.82-2.17,3.83,3.83,0,0,0,0-2.65,1.81,1.81,0,0,1,.19-1.63,1.7,1.7,0,0,1,1.33-.79h.13a26.21,26.21,0,0,0,9.18,0h0a1.9,1.9,0,0,1,1.53.78,1.73,1.73,0,0,1,.25,1.48,6.27,6.27,0,0,0,0,3,1.72,1.72,0,0,1-.13,1.16A1.89,1.89,0,0,1,394.42,421.65Z"/><path class="cls-6" d="M410.53,421.65h0a32.82,32.82,0,0,0-9.18,0h0a1.9,1.9,0,0,1-.88-.21,1.78,1.78,0,0,1-.82-2.17,3.83,3.83,0,0,0,0-2.65,1.81,1.81,0,0,1,.19-1.63,1.7,1.7,0,0,1,1.33-.79h.13a26.21,26.21,0,0,0,9.18,0h0a1.89,1.89,0,0,1,1.53.78,1.77,1.77,0,0,1,.26,1.48,6.14,6.14,0,0,0,0,3,1.72,1.72,0,0,1-.13,1.16A1.89,1.89,0,0,1,410.53,421.65Z"/><path class="cls-8" d="M410.53,431.7h0a32.82,32.82,0,0,0-9.18,0h0a1.9,1.9,0,0,1-.88-.21,1.78,1.78,0,0,1-.82-2.17,3.83,3.83,0,0,0,0-2.65,1.84,1.84,0,0,1,.19-1.64,1.71,1.71,0,0,1,1.33-.78h.13a26.21,26.21,0,0,0,9.18,0h0a1.89,1.89,0,0,1,1.53.78,1.77,1.77,0,0,1,.26,1.48,6.14,6.14,0,0,0,0,3,1.72,1.72,0,0,1-.13,1.16A1.89,1.89,0,0,1,410.53,431.7Z"/><path class="cls-6" d="M426.64,421.65h0a32.82,32.82,0,0,0-9.18,0h0a1.9,1.9,0,0,1-.88-.21,1.78,1.78,0,0,1-.82-2.17,3.83,3.83,0,0,0,0-2.65A1.84,1.84,0,0,1,416,415a1.71,1.71,0,0,1,1.33-.79h.13a26.27,26.27,0,0,0,9.19,0h0a1.91,1.91,0,0,1,1.54.78,1.77,1.77,0,0,1,.25,1.48,6.14,6.14,0,0,0,0,3,1.72,1.72,0,0,1-.13,1.16A1.89,1.89,0,0,1,426.64,421.65Z"/><path class="cls-6" d="M426.88,431.94h0a33.53,33.53,0,0,0-9.17,0h0a1.89,1.89,0,0,1-.87-.21,1.77,1.77,0,0,1-.83-2.17,3.78,3.78,0,0,0,0-2.65,1.88,1.88,0,0,1,.19-1.63,1.74,1.74,0,0,1,1.34-.79h.13a26.7,26.7,0,0,0,9.18,0h0a1.87,1.87,0,0,1,1.54.77,1.78,1.78,0,0,1,.25,1.48,6.39,6.39,0,0,0,0,3,1.67,1.67,0,0,1-.13,1.16A1.89,1.89,0,0,1,426.88,431.94Z"/><path class="cls-9" d="M426.64,441.75h0a32.82,32.82,0,0,0-9.18,0h0a1.9,1.9,0,0,1-.88-.21,1.78,1.78,0,0,1-.82-2.17,3.83,3.83,0,0,0,0-2.65,1.87,1.87,0,0,1,.19-1.64,1.73,1.73,0,0,1,1.33-.78h.13a26.27,26.27,0,0,0,9.19,0h0a1.91,1.91,0,0,1,1.54.78,1.76,1.76,0,0,1,.25,1.48,6.14,6.14,0,0,0,0,3,1.72,1.72,0,0,1-.13,1.16A1.89,1.89,0,0,1,426.64,441.75Z"/><path class="cls-2" d="M442.75,421.65h0a32.75,32.75,0,0,0-9.17,0h0a1.93,1.93,0,0,1-.88-.21,1.78,1.78,0,0,1-.82-2.17,3.83,3.83,0,0,0,0-2.65,1.88,1.88,0,0,1,.19-1.63,1.71,1.71,0,0,1,1.33-.79h.13a26.27,26.27,0,0,0,9.19,0h0a1.91,1.91,0,0,1,1.54.78,1.77,1.77,0,0,1,.25,1.48,6.27,6.27,0,0,0,0,3,1.67,1.67,0,0,1-.13,1.16A1.89,1.89,0,0,1,442.75,421.65Z"/><path class="cls-6" d="M443,431.94h0a33.53,33.53,0,0,0-9.17,0h0a1.89,1.89,0,0,1-.87-.21,1.78,1.78,0,0,1-.82-2.17,3.83,3.83,0,0,0,0-2.65,1.85,1.85,0,0,1,.2-1.63,1.71,1.71,0,0,1,1.33-.79h.13a26.7,26.7,0,0,0,9.18,0h0a1.87,1.87,0,0,1,1.54.77,1.78,1.78,0,0,1,.25,1.48,6.27,6.27,0,0,0,0,3,1.73,1.73,0,0,1-.14,1.16A1.89,1.89,0,0,1,443,431.94Z"/><path class="cls-9" d="M458.86,421.65h0a32.75,32.75,0,0,0-9.17,0h0a1.89,1.89,0,0,1-.87-.21,1.77,1.77,0,0,1-.83-2.17,3.78,3.78,0,0,0,0-2.65,1.88,1.88,0,0,1,.19-1.63,1.71,1.71,0,0,1,1.34-.79h.13a26.21,26.21,0,0,0,9.18,0h0a1.91,1.91,0,0,1,1.54.78,1.77,1.77,0,0,1,.25,1.48,6.39,6.39,0,0,0,0,3,1.67,1.67,0,0,1-.13,1.16A1.89,1.89,0,0,1,458.86,421.65Z"/><rect class="cls-10" x="355.2" y="402.13" width="116.45" height="7.46"/><path d="M535.92,148.09a6.39,6.39,0,0,1,3.79-4.24c1.85-.64,4.57.33,6,1.72,2.55,2.54,3.18,11.27,1.42,14-.35,0-1.55,0-1.9,0l-.5-1.67v1.65c-2.75-.08-5.62,0-8.49,0C536,157.61,535.33,150,535.92,148.09Z"/><circle class="cls-11" cx="542.32" cy="150.25" r="4.06"/><polygon class="cls-11" points="528.12 209.64 530.24 210.43 534.29 202.62 531.16 201.45 528.12 209.64"/><path d="M526.81,211.5l6.85,2.54,0-.09A2.84,2.84,0,0,0,532,210.3h0l-4.18-1.56Z"/><polygon class="cls-11" points="549.01 211.84 551.27 211.84 552.35 203.11 549.01 203.11 549.01 211.84"/><path d="M548.61,214h7.31V214a2.86,2.86,0,0,0-2.85-2.85h-4.46Z"/><path class="cls-4" d="M547.51,168.63l3.23,11.17,1.66,14.78,1.2,11.91-5.82-.27-5.35-19.4L533,207.69,526.54,206l8.87-20.69,1.11-8.68a9.17,9.17,0,0,1,2.77-7.75Z"/><path d="M537.47,147.54l4-3.32h0a5.89,5.89,0,0,1,4.45,4l.42,1.34-2,0-.61-1.7,0,1.68-.93,0-.61-2.71-.26,2.91h-3.32Z"/><circle class="cls-11" cx="555.15" cy="180.1" r="1.53"/><polygon class="cls-11" points="554.39 180.1 551.33 174.75 553.31 174.38 555.92 179.34 554.39 180.1"/><circle class="cls-11" cx="532.4" cy="180.92" r="1.53"/><polygon class="cls-11" points="533.15 180.78 535.13 174.95 533.12 174.95 531.5 180.32 533.15 180.78"/><path class="cls-6" d="M555.15,177.05s-5.36-15-6.64-17-2.49-2.18-2.49-2.18h0l-1.65-2.1-5.25-.07-1.64,2.15a4.07,4.07,0,0,0-2.82,3.31c-.78,2.4-3.18,17.44-3.18,17.44l3.19.67,2.37-6.93h11.61l0-1,4,6.42Z"/><path class="cls-12" d="M541.81,125.74l.39,12.53c0,1.8,1.83,3.2,4,3.14l4.05-.13.13,4,6.51-4.21,13.59-.42c2.14-.07,3.83-1.58,3.77-3.38l-.38-12.52c-.06-1.8-1.84-3.21-4-3.14l-24.28.75C543.44,122.44,541.75,124,541.81,125.74Z"/><path class="cls-1" d="M589.34,122.26v12.53c0,1.8-1.74,3.26-3.88,3.26h-4.05v4l-6.65-4H561.17c-2.14,0-3.88-1.46-3.88-3.26V122.26c0-1.8,1.74-3.26,3.88-3.26h24.29C587.6,119,589.34,120.46,589.34,122.26Z"/><circle class="cls-12" cx="583.43" cy="128.06" r="3.24"/><circle class="cls-12" cx="573.31" cy="128.22" r="3.24"/><circle class="cls-12" cx="563.2" cy="128.22" r="3.24"/><circle class="cls-3" cx="591.69" cy="144.84" r="4.61"/><circle class="cls-3" cx="577.3" cy="177.05" r="1.53"/><polygon class="cls-3" points="578.07 177.05 581.12 171.7 579.14 171.32 576.54 176.28 578.07 177.05"/><circle class="cls-3" cx="603.11" cy="179.41" r="1.53"/><polygon class="cls-3" points="602.36 179.27 600.38 173.44 602.39 173.44 604 178.81 602.36 179.27"/><polygon class="cls-3" points="607.75 211.12 605.4 212 600.91 203.34 604.38 202.05 607.75 211.12"/><path d="M609.2,213.18,601.62,216l0-.1a3.14,3.14,0,0,1,1.86-4.05h0l4.63-1.72Z"/><polygon class="cls-3" points="584.6 213.57 582.09 213.57 580.89 203.88 584.6 203.88 584.6 213.57"/><path d="M585,216h-8.09v-.1a3.15,3.15,0,0,1,3.15-3.15H585Z"/><path class="cls-2" d="M586.26,165.66l-3.58,12.39-1.84,16.38-1.33,13.21,6.45-.31,5.93-21.5L602.34,209l7.16-1.84-9.83-22.94-1.22-9.62a10.2,10.2,0,0,0-3.08-8.6Z"/><path class="cls-8" d="M576.54,174.75s6.67-16.46,8.12-18.83,2.83-2.47,2.83-2.47h0l1.87-2.38,6-.08,1.86,2.43a4.59,4.59,0,0,1,3.19,3.76c.89,2.73,3.65,19.09,3.65,19.09l-3.65,1.48-2.69-7.88H584.51l0-1.17L580,176Z"/><path d="M597.31,141.9a2.44,2.44,0,0,0-2.34-1.13,3.21,3.21,0,0,0-5.35-1.85,1,1,0,0,0-1-.09,2.08,2.08,0,0,0-.79.62,4.52,4.52,0,0,0-.64,4.63c-.11-.4.29-.77.7-.86s.84,0,1.25-.06,1-.38,1.54-.45a3.53,3.53,0,0,1,1.33.17,3.75,3.75,0,0,0,1.33.18c.45-.06,1,1.62,1,2.8,0,.22,0,.51.27.56s.43-.32.69-.42a.49.49,0,0,1,.59.31.78.78,0,0,1-.15.69,2.13,2.13,0,0,1-.56.48l.11.09a.64.64,0,0,0,.8.1,1.7,1.7,0,0,0,.57-.65,7.58,7.58,0,0,0,1.06-2.5A3.59,3.59,0,0,0,597.31,141.9Z"/><rect class="cls-6" x="164.03" y="410.18" width="13.51" height="0.49"/><polygon class="cls-13" points="163.99 414.6 164.81 414.6 165.22 394.46 164.4 394.46 163.99 414.6"/><polygon class="cls-13" points="177.67 414.6 176.85 414.6 176.44 394.46 177.26 394.46 177.67 414.6"/><path class="cls-6" d="M166.66,390H175a2.26,2.26,0,0,1,2.26,2.26v2.16a0,0,0,0,1,0,0H164.41a0,0,0,0,1,0,0v-2.16A2.26,2.26,0,0,1,166.66,390Z"/><path class="cls-6" d="M164.29,400.84h13.08a0,0,0,0,1,0,0v0a1.47,1.47,0,0,1-1.47,1.47H165.76a1.47,1.47,0,0,1-1.47-1.47v0a0,0,0,0,1,0,0Z"/><rect class="cls-6" x="88.08" y="410.79" width="13.51" height="0.49"/><polygon class="cls-13" points="88.04 415.22 88.86 415.22 89.26 395.07 88.44 395.07 88.04 415.22"/><polygon class="cls-13" points="101.72 415.22 100.9 415.22 100.49 395.07 101.31 395.07 101.72 415.22"/><path class="cls-6" d="M90.71,390.65h8.36a2.26,2.26,0,0,1,2.26,2.26v2.16a0,0,0,0,1,0,0H88.45a0,0,0,0,1,0,0v-2.16A2.26,2.26,0,0,1,90.71,390.65Z"/><path class="cls-6" d="M88.34,401.46h13.08a0,0,0,0,1,0,0v0a1.47,1.47,0,0,1-1.47,1.47H89.81a1.47,1.47,0,0,1-1.47-1.47v0a0,0,0,0,1,0,0Z"/><rect class="cls-6" x="171.36" y="426.42" width="13.51" height="0.49"/><polygon class="cls-13" points="171.32 430.85 172.14 430.85 172.54 410.7 171.73 410.7 171.32 430.85"/><polygon class="cls-13" points="185 430.85 184.18 430.85 183.77 410.7 184.59 410.7 185 430.85"/><path class="cls-6" d="M174,406.28h8.36a2.26,2.26,0,0,1,2.26,2.26v2.16a0,0,0,0,1,0,0H171.73a0,0,0,0,1,0,0v-2.16A2.26,2.26,0,0,1,174,406.28Z"/><path class="cls-6" d="M171.62,417.09H184.7a0,0,0,0,1,0,0v0a1.47,1.47,0,0,1-1.47,1.47H173.09a1.47,1.47,0,0,1-1.47-1.47v0A0,0,0,0,1,171.62,417.09Z"/><rect class="cls-6" x="126.59" y="397.11" width="13.51" height="0.49"/><polygon class="cls-13" points="126.55 401.53 127.37 401.53 127.78 381.39 126.96 381.39 126.55 401.53"/><polygon class="cls-13" points="140.23 401.53 139.41 401.53 139 381.39 139.82 381.39 140.23 401.53"/><path class="cls-6" d="M129.23,377h8.36a2.26,2.26,0,0,1,2.26,2.26v2.16a0,0,0,0,1,0,0H127a0,0,0,0,1,0,0v-2.16A2.26,2.26,0,0,1,129.23,377Z"/><path class="cls-6" d="M126.85,387.78h13.08a0,0,0,0,1,0,0v0a1.47,1.47,0,0,1-1.47,1.47H128.33a1.47,1.47,0,0,1-1.47-1.47v0A0,0,0,0,1,126.85,387.78Z"/><polygon class="cls-14" points="132.75 430.26 134.43 430.26 135.23 423.78 132.75 423.78 132.75 430.26"/><path d="M132.32,429.71h3.31a2.1,2.1,0,0,1,2.11,2.11v.07h-5.42Z"/><polygon class="cls-14" points="119.67 429.53 121.33 429.78 123.09 423.49 120.91 423.12 119.67 429.53"/><path d="M119.33,428.93l3.27.49h0a2.11,2.11,0,0,1,1.77,2.4v.07l-5.36-.81Z"/><path class="cls-13" d="M136.18,391.37h0a1,1,0,0,1-.72,1.26,1,1,0,0,1-.9-.18.77.77,0,0,1-.18-.18,1,1,0,0,1,.19-1.44A1,1,0,0,1,136,391a1.11,1.11,0,0,1,.18.34Z"/><path class="cls-1" d="M136.18,391.37a15.82,15.82,0,0,1-1.62,1.09.77.77,0,0,1-.18-.18,10.74,10.74,0,0,0,1.7-1.14A1.6,1.6,0,0,1,136.18,391.37Z"/><path d="M138,395.05l-1.83-3-1,.65,2.15,2.8a.23.23,0,0,0,.33.05l0,0,.07.12a.13.13,0,0,0,.16,0h0a.12.12,0,0,0,0-.17l-.08-.12h0A.25.25,0,0,0,138,395.05Z"/><path class="cls-1" d="M136.42,393.67a.07.07,0,0,1-.08,0l-.13-.21a.08.08,0,0,1,0-.1l.11-.09a.08.08,0,0,1,.1,0h0l.15.21a.08.08,0,0,1,0,.1h0l-.12.09Zm0-.39h0l-.11.09a0,0,0,0,0,0,0l.13.22h0l.12-.09s0,0,0,0l-.15-.21a0,0,0,0,0,0,0Z"/><rect class="cls-15" x="122.71" y="407.46" width="9.53" height="6.19" rx="0.96"/><rect class="cls-12" x="122.09" y="409.32" width="0.62" height="2.48"/><path class="cls-14" d="M124.85,398.13l1.87.49-.13,3v5.51a1.1,1.1,0,1,1-1.54.28.86.86,0,0,1,.07-.1l-.57-5.53Z"/><path class="cls-8" d="M124.52,394.67a1.54,1.54,0,0,1,1-1.36,1.43,1.43,0,0,1,1.54.25,1.36,1.36,0,0,1,.45,1.05,32.88,32.88,0,0,1-.4,4.38v0l-2.72.92Z"/><path d="M129.4,399.7l4.17-1.08,1.93,6.49.07,24.2-3.19,0-1.33-19.58-8.5,18.09-3.43-.41,7.47-19.4s-.41-3.42.89-5.14l-.27-1.78Z"/><path class="cls-8" d="M126.59,401.31a.63.63,0,0,1-.14-.51l-1.9-5.71a1.44,1.44,0,0,1,.4-1.53l.83-.75.56-2.24,3.21.79-.26,1.06,1.45-.27,3.07,6.83-6.41,2.56h-.32A.63.63,0,0,1,126.59,401.31Z"/><polygon class="cls-14" points="134.39 398.51 132.76 399.76 131.06 396.5 132.89 395.91 134.39 398.51"/><path class="cls-14" d="M136.3,392.81a1.1,1.1,0,1,1,.76,2.07l-.11,0-2.72,4.85h0l-1.79-1,0,0,3.18-4.49A1.11,1.11,0,0,1,136.3,392.81Z"/><ellipse class="cls-14" cx="133.53" cy="399.42" rx="0.87" ry="0.94"/><path class="cls-8" d="M128.93,393.74a1.52,1.52,0,0,1,.07-1.65,1.42,1.42,0,0,1,1.43-.61,1.36,1.36,0,0,1,.95.64,35.76,35.76,0,0,1,2,3.92l0,0-1.81,2.23Z"/><circle cx="124.2" cy="384.05" r="2.46"/><path d="M122.07,386.09a2.48,2.48,0,0,0,3.81-1.29,2.46,2.46,0,1,1-4.89-.61,2.57,2.57,0,0,1,.08-.4A2.46,2.46,0,0,0,122.07,386.09Z"/><path d="M131.79,386.1a4.47,4.47,0,0,0-1.15-1.56,1.19,1.19,0,0,0-1.58-.15,2.91,2.91,0,1,0,1.52,3.83,2.86,2.86,0,0,0,.24-1.15c0-.11,0-.22,0-.33C131.22,386.68,131.37,386.16,131.79,386.1Z"/><circle class="cls-14" cx="128.72" cy="387.6" r="2.56"/><polygon points="125.8 387.07 126.66 385.37 129.06 384.39 131.79 386.1 127.34 388.85 126.16 388.24 125.8 387.07"/><rect class="cls-6" x="126.59" y="451.26" width="13.51" height="0.49"/><polygon class="cls-13" points="126.55 455.68 127.37 455.68 127.78 435.54 126.96 435.54 126.55 455.68"/><polygon class="cls-13" points="140.23 455.68 139.41 455.68 139 435.54 139.82 435.54 140.23 455.68"/><path class="cls-6" d="M129.23,431.12h8.36a2.26,2.26,0,0,1,2.26,2.26v2.16a0,0,0,0,1,0,0H127a0,0,0,0,1,0,0v-2.16A2.26,2.26,0,0,1,129.23,431.12Z"/><path class="cls-6" d="M126.85,441.92h13.08a0,0,0,0,1,0,0v0a1.47,1.47,0,0,1-1.47,1.47H128.33a1.47,1.47,0,0,1-1.47-1.47v0A0,0,0,0,1,126.85,441.92Z"/><rect class="cls-6" x="81.42" y="426.42" width="13.51" height="0.49"/><polygon class="cls-13" points="81.37 430.85 82.19 430.85 82.6 410.7 81.78 410.7 81.37 430.85"/><polygon class="cls-13" points="95.06 430.85 94.24 430.85 93.83 410.7 94.65 410.7 95.06 430.85"/><path class="cls-6" d="M84,406.28h8.36a2.26,2.26,0,0,1,2.26,2.26v2.16a0,0,0,0,1,0,0H81.79a0,0,0,0,1,0,0v-2.16A2.26,2.26,0,0,1,84,406.28Z"/><path class="cls-6" d="M81.67,417.09H94.75a0,0,0,0,1,0,0v0a1.47,1.47,0,0,1-1.47,1.47H83.15a1.47,1.47,0,0,1-1.47-1.47v0a0,0,0,0,1,0,0Z"/><rect class="cls-6" x="105.76" y="400.03" width="13.51" height="0.49"/><polygon class="cls-13" points="105.72 404.45 106.54 404.45 106.95 384.31 106.13 384.31 105.72 404.45"/><polygon class="cls-13" points="119.4 404.45 118.58 404.45 118.17 384.31 118.99 384.31 119.4 404.45"/><path class="cls-6" d="M108.39,379.89h8.36a2.26,2.26,0,0,1,2.26,2.26v2.16a0,0,0,0,1,0,0H106.14a0,0,0,0,1,0,0v-2.16A2.26,2.26,0,0,1,108.39,379.89Z"/><path class="cls-6" d="M106,390.7H119.1a0,0,0,0,1,0,0v0a1.47,1.47,0,0,1-1.47,1.47H107.49A1.47,1.47,0,0,1,106,390.7v0A0,0,0,0,1,106,390.7Z"/><rect class="cls-6" x="147.43" y="400.03" width="13.51" height="0.49"/><polygon class="cls-13" points="147.38 404.45 148.2 404.45 148.61 384.31 147.79 384.31 147.38 404.45"/><polygon class="cls-13" points="161.07 404.45 160.25 404.45 159.84 384.31 160.66 384.31 161.07 404.45"/><path class="cls-6" d="M150.06,379.89h8.36a2.26,2.26,0,0,1,2.26,2.26v2.16a0,0,0,0,1,0,0H147.8a0,0,0,0,1,0,0v-2.16A2.26,2.26,0,0,1,150.06,379.89Z"/><path class="cls-6" d="M147.69,390.7h13.08a0,0,0,0,1,0,0v0a1.47,1.47,0,0,1-1.47,1.47H149.16a1.47,1.47,0,0,1-1.47-1.47v0A0,0,0,0,1,147.69,390.7Z"/><rect class="cls-6" x="147.43" y="446.43" width="13.51" height="0.49"/><polygon class="cls-13" points="147.38 450.85 148.2 450.85 148.61 430.71 147.79 430.71 147.38 450.85"/><polygon class="cls-13" points="161.07 450.85 160.25 450.85 159.84 430.71 160.66 430.71 161.07 450.85"/><path class="cls-6" d="M150.06,426.29h8.36a2.26,2.26,0,0,1,2.26,2.26v2.16a0,0,0,0,1,0,0H147.8a0,0,0,0,1,0,0v-2.16A2.26,2.26,0,0,1,150.06,426.29Z"/><path class="cls-6" d="M147.69,437.1h13.08a0,0,0,0,1,0,0v0a1.47,1.47,0,0,1-1.47,1.47H149.16a1.47,1.47,0,0,1-1.47-1.47v0A0,0,0,0,1,147.69,437.1Z"/><rect class="cls-6" x="164.03" y="438.93" width="13.51" height="0.49"/><polygon class="cls-13" points="163.99 443.35 164.81 443.35 165.22 423.21 164.4 423.21 163.99 443.35"/><polygon class="cls-13" points="177.67 443.35 176.85 443.35 176.44 423.21 177.26 423.21 177.67 443.35"/><path class="cls-6" d="M166.66,418.79H175a2.26,2.26,0,0,1,2.26,2.26v2.16a0,0,0,0,1,0,0H164.41a0,0,0,0,1,0,0V421A2.26,2.26,0,0,1,166.66,418.79Z"/><path class="cls-6" d="M164.29,429.6h13.08a0,0,0,0,1,0,0v0a1.47,1.47,0,0,1-1.47,1.47H165.76a1.47,1.47,0,0,1-1.47-1.47v0A0,0,0,0,1,164.29,429.6Z"/><rect class="cls-6" x="88.08" y="438.93" width="13.51" height="0.49"/><polygon class="cls-13" points="88.04 443.35 88.86 443.35 89.26 423.21 88.44 423.21 88.04 443.35"/><polygon class="cls-13" points="101.72 443.35 100.9 443.35 100.49 423.21 101.31 423.21 101.72 443.35"/><path class="cls-6" d="M90.71,418.79h8.36a2.26,2.26,0,0,1,2.26,2.26v2.16a0,0,0,0,1,0,0H88.45a0,0,0,0,1,0,0V421A2.26,2.26,0,0,1,90.71,418.79Z"/><path class="cls-6" d="M88.34,429.6h13.08a0,0,0,0,1,0,0v0a1.47,1.47,0,0,1-1.47,1.47H89.81a1.47,1.47,0,0,1-1.47-1.47v0a0,0,0,0,1,0,0Z"/><rect class="cls-6" x="105.76" y="446.46" width="13.51" height="0.49"/><polygon class="cls-13" points="105.72 450.88 106.54 450.88 106.95 430.74 106.13 430.74 105.72 450.88"/><polygon class="cls-13" points="119.4 450.88 118.58 450.88 118.17 430.74 118.99 430.74 119.4 450.88"/><path class="cls-6" d="M108.39,426.32h8.36a2.26,2.26,0,0,1,2.26,2.26v2.16a0,0,0,0,1,0,0H106.14a0,0,0,0,1,0,0v-2.16A2.26,2.26,0,0,1,108.39,426.32Z"/><path class="cls-6" d="M106,437.13H119.1a0,0,0,0,1,0,0v0a1.47,1.47,0,0,1-1.47,1.47H107.49a1.47,1.47,0,0,1-1.47-1.47v0A0,0,0,0,1,106,437.13Z"/></svg>