<?xml version="1.0" encoding="UTF-8"?><svg id="Layer_1" xmlns="http://www.w3.org/2000/svg" viewBox="0 0 920 920"><path d="M765.58,822.35c-4.46-9.95-4.19-21.38,.73-31.11,3.27-6.31,8.45-11.66,13.45-16.84,1.46-1.51,2.96-3.06,4.39-4.61,3.16-3.5,8.13-4.72,12.55-3.08,4.38,1.52,7.4,5.54,7.62,10.17l.03,.49-14.33,9.48c2.55-.21,8.29-.75,13.75-1.73l.46-.08-.04,.46c-.4,4.85-1.42,9.64-3.01,14.24-5.9,16.56-18.78,29.68-35.23,35.88l-.49,.18,.12-13.46Z" style="fill:#f2f2f2;"/><path d="M765.82,835.81l-.63-.23c-21.27-8.02-37.93-24.99-45.56-46.4-2.07-5.95-3.38-12.14-3.9-18.42l-.05-.6,.59,.11c7.06,1.27,14.48,1.97,17.78,2.24l-18.53-12.26,.03-.64c.29-5.99,4.19-11.2,9.86-13.16,5.72-2.11,12.15-.53,16.24,3.99,1.84,2,3.79,4.01,5.67,5.96,6.47,6.69,13.17,13.61,17.4,21.77,6.37,12.58,6.71,27.37,.94,40.23l.16,17.4Z" style="fill:#f2f2f2;"/><path d="M202.67,838.16l-.74-.27c-25.03-9.44-44.64-29.42-53.63-54.62-2.43-7-3.98-14.29-4.59-21.68l-.06-.71,.7,.12c8.31,1.49,17.04,2.32,20.93,2.64l-21.81-14.43,.04-.75c.34-7.05,4.93-13.18,11.6-15.49,6.73-2.49,14.3-.63,19.11,4.7,2.17,2.35,4.46,4.72,6.68,7.02,7.62,7.87,15.5,16.02,20.48,25.63,7.49,14.81,7.9,32.21,1.11,47.36l.19,20.48Z" style="fill:#f2f2f2;"/><path d="M602.11,834.3h-.08c-21.25-2.81-42.78-2.66-63.99,.45h-.03c-2.13,.02-4.22-.47-6.12-1.43-5.41-2.89-7.89-9.29-5.84-15.07,2.25-5.94,2.3-12.5,.13-18.47-1.38-3.8-.91-8.02,1.27-11.42,2.03-3.21,5.46-5.27,9.25-5.56,.3-.02,.6-.03,.9-.04,21.21,3.58,42.89,3.43,64.05-.44h.03c4.23-.05,8.23,1.94,10.75,5.35,2.12,2.99,2.79,6.77,1.83,10.3-1.59,6.37-1.46,13.24,.39,20.99,.67,2.71,.37,5.57-.86,8.08-2.2,4.43-6.72,7.24-11.67,7.27Z" style="fill:#fcc372;"/><path d="M438.16,834.47h-.08c-21.23-2.96-42.76-2.96-63.99,0h-.03c-2.13,0-4.22-.5-6.11-1.47-5.39-2.93-7.82-9.35-5.73-15.11,2.29-5.93,2.39-12.48,.26-18.47-1.36-3.81-.86-8.03,1.35-11.41,2.05-3.2,5.5-5.24,9.29-5.5,.3-.02,.6-.03,.9-.03,21.19,3.73,42.86,3.73,64.05,0h.03c4.24-.01,8.22,2,10.72,5.42,2.1,3,2.74,6.79,1.76,10.32-1.63,6.36-1.56,13.23,.24,20.99,.65,2.72,.33,5.58-.92,8.08-2.24,4.42-6.77,7.2-11.72,7.19Z" style="fill:#fbaa37;"/><path d="M456.25,786.99h-.08c-21.23-2.96-42.76-2.96-63.99,0h-.03c-2.13,0-4.22-.5-6.11-1.47-5.39-2.93-7.82-9.35-5.73-15.11,2.29-5.93,2.39-12.48,.26-18.47-1.36-3.81-.86-8.03,1.35-11.41,2.05-3.2,5.5-5.24,9.29-5.5,.3-.02,.6-.03,.9-.03,21.19,3.73,42.86,3.73,64.05,0h.03c4.24-.01,8.22,2,10.72,5.42,2.1,3,2.74,6.79,1.76,10.32-1.63,6.36-1.56,13.23,.24,20.99,.65,2.72,.33,5.58-.92,8.08-2.24,4.42-6.77,7.2-11.72,7.19Z" style="fill:#335eea;"/><path d="M297.96,799.93l.05-.06c14.34-15.92,26.41-33.76,35.85-53l.02-.03c1.18-1.76,2.78-3.22,4.64-4.23,5.44-2.82,12.13-1.24,15.73,3.72,3.62,5.22,9,8.97,15.15,10.57,3.91,1.01,7.13,3.79,8.7,7.51,1.5,3.49,1.26,7.49-.65,10.77-.15,.26-.31,.51-.48,.76-14.96,15.46-27.11,33.41-35.89,53.04v.02c-2.38,3.52-6.28,5.69-10.51,5.84-3.66,.05-7.16-1.53-9.53-4.33-4.35-4.92-10.08-8.7-17.52-11.56-2.62-.98-4.8-2.85-6.17-5.29-2.41-4.33-2.17-9.64,.62-13.73Z" style="fill:#6c8aec;"/><path d="M883.22,836.19l-846.45,.35c-.74,0-1.34-.61-1.34-1.35,0-.74,.6-1.34,1.34-1.34l846.45-.35c.74,0,1.34,.61,1.34,1.35,0,.74-.6,1.34-1.34,1.34Z" style="fill:#cacaca;"/><g><path d="M54.97,106.48V619.82c.01,13.62,11.05,24.66,24.67,24.67H840.36c13.62-.01,24.66-11.05,24.67-24.67V106.48c-.03-13.61-11.06-24.63-24.67-24.64H79.64c-13.61,.02-24.64,11.04-24.67,24.64Z" style="fill:#e6e6e6;"/><path d="M834.01,99.65H85.99c-7.29,.02-13.19,5.93-13.19,13.21v500.62c.01,7.28,5.91,13.17,13.19,13.19H834.01c7.28-.01,13.17-5.91,13.19-13.19V112.87c0-7.29-5.9-13.2-13.19-13.21Z" style="fill:#fff;"/><path d="M550.77,509.09h-.08c-21.23-2.96-42.76-2.96-63.99,0h-.03c-2.13,0-4.22-.5-6.11-1.47-5.39-2.93-7.82-9.35-5.73-15.11,2.29-5.93,2.39-12.48,.26-18.47-1.36-3.81-.86-8.03,1.35-11.41,2.05-3.2,5.5-5.24,9.29-5.5,.3-.02,.6-.03,.9-.03,21.19,3.73,42.86,3.73,64.05,0h.03c4.24-.01,8.22,2,10.72,5.42,2.1,3,2.74,6.79,1.76,10.32-1.63,6.36-1.56,13.23,.24,20.99,.65,2.72,.33,5.58-.92,8.08-2.24,4.42-6.77,7.2-11.72,7.19Z" style="fill:#335eea;"/><path d="M213.89,299.95h-.08c-21.23-2.96-42.76-2.96-63.99,0h-.03c-2.13,0-4.22-.5-6.11-1.47-5.39-2.93-7.82-9.35-5.73-15.11,2.29-5.93,2.39-12.48,.26-18.47-1.36-3.81-.86-8.03,1.35-11.41,2.05-3.2,5.5-5.24,9.29-5.5,.3-.02,.6-.03,.9-.03,21.19,3.73,42.86,3.73,64.05,0h.03c4.24-.01,8.22,2,10.72,5.42,2.1,3,2.74,6.79,1.76,10.32-1.63,6.36-1.56,13.23,.24,20.99,.65,2.72,.33,5.58-.92,8.08-2.24,4.42-6.77,7.2-11.72,7.19Z" style="fill:#6c8aec;"/><path d="M213.89,370.04h-.08c-21.23-2.96-42.76-2.96-63.99,0h-.03c-2.13,0-4.22-.5-6.11-1.47-5.39-2.93-7.82-9.35-5.73-15.11,2.29-5.93,2.39-12.48,.26-18.47-1.36-3.81-.86-8.03,1.35-11.41,2.05-3.2,5.5-5.24,9.29-5.5,.3-.02,.6-.03,.9-.03,21.19,3.73,42.86,3.73,64.05,0h.03c4.24-.01,8.22,2,10.72,5.42,2.1,3,2.74,6.79,1.76,10.32-1.63,6.36-1.56,13.23,.24,20.99,.65,2.72,.33,5.58-.92,8.08-2.24,4.42-6.77,7.2-11.72,7.19Z" style="fill:#335eea;"/><path d="M213.89,440.13h-.08c-21.23-2.96-42.76-2.96-63.99,0h-.03c-2.13,0-4.22-.5-6.11-1.47-5.39-2.93-7.82-9.35-5.73-15.11,2.29-5.93,2.39-12.48,.26-18.47-1.36-3.81-.86-8.03,1.35-11.41,2.05-3.2,5.5-5.24,9.29-5.5,.3-.02,.6-.03,.9-.03,21.19,3.73,42.86,3.73,64.05,0h.03c4.24-.01,8.22,2,10.72,5.42,2.1,3,2.74,6.79,1.76,10.32-1.63,6.36-1.56,13.23,.24,20.99,.65,2.72,.33,5.58-.92,8.08-2.24,4.42-6.77,7.2-11.72,7.19Z" style="fill:#fbaa37;"/><path d="M326.26,299.95h-.08c-21.23-2.96-42.76-2.96-63.99,0h-.03c-2.13,0-4.22-.5-6.11-1.47-5.39-2.93-7.82-9.35-5.73-15.11,2.29-5.93,2.39-12.48,.26-18.47-1.36-3.81-.86-8.03,1.35-11.41,2.05-3.2,5.5-5.24,9.29-5.5,.3-.02,.6-.03,.9-.03,21.19,3.73,42.86,3.73,64.05,0h.03c4.24-.01,8.22,2,10.72,5.42,2.1,3,2.74,6.79,1.76,10.32-1.63,6.36-1.56,13.23,.24,20.99,.65,2.72,.33,5.58-.92,8.08-2.24,4.42-6.77,7.2-11.72,7.19Z" style="fill:#fcc372;"/><path d="M438.63,299.95h-.08c-21.23-2.96-42.76-2.96-63.99,0h-.03c-2.13,0-4.22-.5-6.11-1.47-5.39-2.93-7.82-9.35-5.73-15.11,2.29-5.93,2.39-12.48,.26-18.47-1.36-3.81-.86-8.03,1.35-11.41,2.05-3.2,5.5-5.24,9.29-5.5,.3-.02,.6-.03,.9-.03,21.19,3.73,42.86,3.73,64.05,0h.03c4.24-.01,8.22,2,10.72,5.42,2.1,3,2.74,6.79,1.76,10.32-1.63,6.36-1.56,13.23,.24,20.99,.65,2.72,.33,5.58-.92,8.08-2.24,4.42-6.77,7.2-11.72,7.19Z" style="fill:#335eea;"/><path d="M438.63,370.04h-.08c-21.23-2.96-42.76-2.96-63.99,0h-.03c-2.13,0-4.22-.5-6.11-1.47-5.39-2.93-7.82-9.35-5.73-15.11,2.29-5.93,2.39-12.48,.26-18.47-1.36-3.81-.86-8.03,1.35-11.41,2.05-3.2,5.5-5.24,9.29-5.5,.3-.02,.6-.03,.9-.03,21.19,3.73,42.86,3.73,64.05,0h.03c4.24-.01,8.22,2,10.72,5.42,2.1,3,2.74,6.79,1.76,10.32-1.63,6.36-1.56,13.23,.24,20.99,.65,2.72,.33,5.58-.92,8.08-2.24,4.42-6.77,7.2-11.72,7.19Z" style="fill:#fbaa37;"/><path d="M551,299.95h-.08c-21.23-2.96-42.76-2.96-63.99,0h-.03c-2.13,0-4.22-.5-6.11-1.47-5.39-2.93-7.82-9.35-5.73-15.11,2.29-5.93,2.39-12.48,.26-18.47-1.36-3.81-.86-8.03,1.35-11.41,2.05-3.2,5.5-5.24,9.29-5.5,.3-.02,.6-.03,.9-.03,21.19,3.73,42.86,3.73,64.05,0h.03c4.24-.01,8.22,2,10.72,5.42,2.1,3,2.74,6.79,1.76,10.32-1.63,6.36-1.56,13.23,.24,20.99,.65,2.72,.33,5.58-.92,8.08-2.24,4.42-6.77,7.2-11.72,7.19Z" style="fill:#6c8aec;"/><path d="M552.69,371.74h-.08c-21.23-2.96-42.76-2.96-63.99,0h-.03c-2.13,0-4.22-.5-6.11-1.47-5.39-2.93-7.82-9.35-5.73-15.11,2.29-5.93,2.39-12.48,.26-18.47-1.36-3.81-.86-8.03,1.35-11.41,2.05-3.2,5.5-5.24,9.29-5.5,.3-.02,.6-.03,.9-.03,21.19,3.73,42.86,3.73,64.05,0h.03c4.24-.01,8.22,2,10.72,5.42,2.1,3,2.74,6.79,1.76,10.32-1.63,6.36-1.56,13.23,.24,20.99,.65,2.72,.33,5.58-.92,8.08-2.24,4.42-6.77,7.2-11.72,7.19Z" style="fill:#6c8aec;"/><path d="M551,440.13h-.08c-21.23-2.96-42.76-2.96-63.99,0h-.03c-2.13,0-4.22-.5-6.11-1.47-5.39-2.93-7.82-9.35-5.73-15.11,2.29-5.93,2.39-12.48,.26-18.47-1.36-3.81-.86-8.03,1.35-11.41,2.05-3.2,5.5-5.24,9.29-5.5,.3-.02,.6-.03,.9-.03,21.19,3.73,42.86,3.73,64.05,0h.03c4.24-.01,8.22,2,10.72,5.42,2.1,3,2.74,6.79,1.76,10.32-1.63,6.36-1.56,13.23,.24,20.99,.65,2.72,.33,5.58-.92,8.08-2.24,4.42-6.77,7.2-11.72,7.19Z" style="fill:#fcc372;"/><path d="M663.37,299.95h-.08c-21.23-2.96-42.76-2.96-63.99,0h-.03c-2.13,0-4.22-.5-6.11-1.47-5.39-2.93-7.82-9.35-5.73-15.11,2.29-5.93,2.39-12.48,.26-18.47-1.36-3.81-.86-8.03,1.35-11.41,2.05-3.2,5.5-5.24,9.29-5.5,.3-.02,.6-.03,.9-.03,21.19,3.73,42.86,3.73,64.05,0h.03c4.24-.01,8.22,2,10.72,5.42,2.1,3,2.74,6.79,1.76,10.32-1.63,6.36-1.56,13.23,.24,20.99,.65,2.72,.33,5.58-.92,8.08-2.24,4.42-6.77,7.2-11.72,7.19Z" style="fill:#335eea;"/><path d="M665.06,371.74h-.08c-21.23-2.96-42.76-2.96-63.99,0h-.03c-2.13,0-4.22-.5-6.11-1.47-5.39-2.93-7.82-9.35-5.73-15.11,2.29-5.93,2.39-12.48,.26-18.47-1.36-3.81-.86-8.03,1.35-11.41,2.05-3.2,5.5-5.24,9.29-5.5,.3-.02,.6-.03,.9-.03,21.19,3.73,42.86,3.73,64.05,0h.03c4.24-.01,8.22,2,10.72,5.42,2.1,3,2.74,6.79,1.76,10.32-1.63,6.36-1.56,13.23,.24,20.99,.65,2.72,.33,5.58-.92,8.08-2.24,4.42-6.77,7.2-11.72,7.19Z" style="fill:#6c8aec;"/><path d="M775.74,299.95h-.08c-21.23-2.96-42.76-2.96-63.99,0h-.03c-2.13,0-4.22-.5-6.11-1.47-5.39-2.93-7.82-9.35-5.73-15.11,2.29-5.93,2.39-12.48,.26-18.47-1.36-3.81-.86-8.03,1.35-11.41,2.05-3.2,5.5-5.24,9.29-5.5,.3-.02,.6-.03,.9-.03,21.19,3.73,42.86,3.73,64.05,0h.03c4.24-.01,8.22,2,10.72,5.42,2.1,3,2.74,6.79,1.76,10.32-1.63,6.36-1.56,13.23,.24,20.99,.65,2.72,.33,5.58-.92,8.08-2.24,4.42-6.77,7.2-11.72,7.19Z" style="fill:#fbaa37;"/><g><rect x="52.77" y="163.79" width="812.17" height="52.01" style="fill:#241f20;"/><g><path d="M170.67,148.27c-.48,.44-.96,.89-1.44,1.33-.19,.14-.39,.26-.55,.42-1.27,1.25-2.54,2.51-3.8,3.76-2.53,.52-5.06,1.03-7.58,1.56-.36,.07-.71,.18-1.07,.27-1.19-3.94-2.37-7.89-3.59-11.95,.27,.04,.45,.05,.62,.1,5.73,1.47,11.45,2.94,17.18,4.41,.08,.02,.16,.07,.24,.1Z" style="fill:#979797;"/><path d="M164.88,153.79c1.27-1.25,2.53-2.51,3.8-3.76,.16-.16,.37-.28,.55-.42-.28,1.24-.55,2.48-.86,3.72-.25,1.02-.54,2.03-.85,3.17l-2.65-2.71Z" style="fill:#262121;"/><path d="M178.83,159.04h-.24l.02-.17,.22,.17Z" style="fill:#4d3e30;"/><g><path d="M90.27,220.23c-3.3-.86-6.23-2.39-8.58-4.89-1.52-1.62-2.34-3.62-2.69-5.79-.15-.96-.14-1.95-.22-3.13l2.45,1.65c-2.26-6.36-.17-11.87,2.95-17.23,.06,.52,.16,1.03,.18,1.55,.31,5.78,1.88,11.18,5.04,16.05,1.75,2.69,4.43,4.15,7.37,5.2,2.43,.87,4.94,1.36,7.5,1.56,1.76,.13,3.53,.16,5.29,.22,.3,.01,.6-.05,.88-.08,.11-1.16,.24-2.27,.32-3.39,.2-3,.65-5.96,1.2-8.91,1.12-5.97,2.92-11.7,5.59-17.17,3.21-6.58,7.79-12.05,13.4-16.71,7.44-6.18,15.77-10.68,25.04-13.46,.08-.02,.16-.07,.24-.11,.36-.09,.71-.19,1.07-.27,2.53-.52,5.06-1.04,7.58-1.56l2.65,2.71c.31-1.14,.6-2.15,.85-3.17,.3-1.24,.57-2.48,.86-3.72l1.44-1.33c1.39-1.04,2.82-1.99,4.55-2.35,2.34-.48,4.59-.08,6.55,1.25,1.63,1.1,3.11,2.45,4.62,3.72,.72,.6,1.35,1.3,2.03,1.95,.16,.18,.3,.37,.47,.54,2.06,2.06,4.13,4.12,6.19,6.19,.18,.18,.32,.4,.48,.6-.75,.81-1.5,1.62-2.25,2.43-.2,.12-.43,.2-.59,.35-1,.98-1.98,1.98-2.97,2.96-.67,.66-1.35,1.29-2.03,1.94-.28-.27-.57-.53-.85-.81-2.68-2.66-5.36-5.33-8.04-8l-.22-.17-.02,.18c0,2.75,0,5.51,0,8.26l.07,.19,.08,.2c-.06,.24-.17,.48-.17,.72-.01,2.34-.04,4.68,.01,7.02,.01,.7-.21,.82-.85,.82-4.79-.03-9.58-.01-14.37-.01-.94,0-.96,.01-.95,.96,.04,4.15,.1,8.3,.12,12.45,.02,5.25,0,10.5,0,15.74,0,1.47,0,2.94,0,4.41v7.83h9.24v3.9l-.02,.14c0,1.4,0,2.81,0,4.21h-16.7s-.09,0-.13,0c-.03-.19-.05-.39-.09-.58-1.05-4.05-2.12-8.09-3.17-12.14-2.03-7.86-4.05-15.73-6.08-23.59-.22-.85-.47-1.69-.67-2.39-2.65,2.65-5.29,5.29-7.92,7.92-.05-.03,0,.02,.07,.03,2.07,.38,3.96,1.19,5.68,2.4,3.62,2.55,4.68,7.2,2.84,11.04-1.36,2.84-3.64,4.83-6.26,6.44-1.53,.94-3.15,1.74-4.7,2.59h.6c4.84,0,9.68,0,14.52-.01,.57,0,.75,.13,.74,.72-.03,2.52,0,5.03,0,7.55l-.02,.02c-12.05,0-24.11,0-36.16,0-.21,0-.41,.08-.62,.13h-2.89c-.14-.04-.28-.12-.42-.13-1.83,0-3.65,0-5.48,0-.14,0-.27,.08-.41,.13h-1.31c-.97-.13-1.95-.26-2.92-.39-4.86-.62-9.48-1.94-13.63-4.63-.18-.12-.36-.25-.53-.38-.03-.02-.03-.07-.08-.18,1.44,0,2.85,0,4.25,0,.18,.02,.36,.03,.54,.05l.02-.14-.53-.11Z" style="fill:#f1aa01;"/><path d="M208.82,221.94l-.05,3.93h-37.01c0-1.41,0-2.81,0-4.21l.24-.02c.13,0,.26,.02,.39,.02,11.97,0,23.95,0,35.92,0,.15,0,.3-.02,.46-.03l.13-.09,1.19-1.17c3.9-3.89,7.81-7.78,11.71-11.68,3.85-3.85,7.7-7.71,11.55-11.56,.51-.54,1.02-1.08,1.7-1.78,.7,.77,1.34,1.47,1.98,2.17v.13c-.16,.14-.33,.28-.48,.43-8.39,8.38-16.77,16.76-25.15,25.14-.18,.18-.32,.42-.47,.63l-2-1.91-.1-.08v.1Z" style="fill:#020202;"/><path d="M171.75,225.87h37.01l.02-.02h.03l-.04,.16h-37.05l-.03-.13h.05Z" style="fill:#020202;"/><path d="M113.66,226c.21-.04,.41-.13,.62-.13,12.05,0,24.11,0,36.16,0,0,.04,0,.08,0,.13h-36.79Z" style="fill:#f3bd5c;"/><path d="M171.7,225.87l.03,.13h-16.68s0-.09,0-.13h16.65Z" style="fill:#f3bd5c;"/><path d="M104.47,226c.14-.04,.27-.13,.41-.13,1.83,0,3.65,0,5.48,0,.14,0,.28,.08,.42,.13h-6.31Z" style="fill:#f4be5d;"/><path d="M155.05,225.87s0,.09,0,.13h-4.6s0-.09,0-.13l.02-.02c1.48,0,2.97,0,4.45,.01,.04,0,.09,0,.13,0Z" style="fill:#d69e38;"/><path d="M208.78,226l.04-.14,.09,.14h-.13Z" style="fill:#bfc0c0;"/><path d="M233.35,197.12c-3.85,3.85-7.69,7.71-11.55,11.56-3.9,3.9-7.81,7.79-11.71,11.68-.16-.09-.31-.22-.48-.26-1.91-.43-3.83-.85-5.75-1.27-3.79-.83-7.59-1.65-11.38-2.47,.55-.43,1.12-.84,1.63-1.31,.16-.15,.3-.5,.23-.68-1.29-3.66-2.62-7.31-3.95-10.95-.07-.18-.24-.38-.41-.45-1.52-.66-3.05-1.29-4.58-1.93l7.33-7.21c1.23,1.32,2.49,2.66,3.8,4.05,.13-.28,.22-.45,.3-.62,1.96-4.41,3.92-8.82,5.9-13.22,.17-.39,.43-.76,.73-1.06,2.31-2.33,4.64-4.65,6.96-6.97,.17-.17,.32-.34,.51-.54-.14-.16-.24-.3-.36-.42-4.84-4.84-9.69-9.69-14.54-14.52-.14-.13-.31-.23-.47-.34-.16-.2-.3-.42-.48-.6-2.06-2.07-4.13-4.13-6.19-6.19-.17-.17-.31-.36-.47-.54,.67,.15,1.35,.29,2.1,.46v-14.75c9.25,9.94,18.37,19.73,27.59,29.64,1.59-10.99,3.17-21.83,4.74-32.68h.11c.31,1.87,.62,3.73,.93,5.6,.64,3.83,1.27,7.66,1.91,11.48,.73,4.37,1.45,8.74,2.17,13.1,.67,4.02,1.34,8.05,2.01,12.07,.73,4.37,1.46,8.73,2.18,13.1,.32,1.94,.63,3.87,.95,5.81,.03,.16,.15,.29,.23,.44Z" style="fill:#979797;"/><path d="M195.56,160.17c.16,.11,.33,.21,.47,.34,4.85,4.84,9.69,9.68,14.54,14.52,.12,.12,.22,.26,.36,.42-.18,.19-.34,.37-.51,.54-2.32,2.32-4.65,4.64-6.96,6.97-.3,.3-.56,.68-.73,1.06-1.98,4.4-3.94,8.81-5.9,13.22-.08,.18-.17,.35-.3,.62-1.3-1.39-2.56-2.73-3.8-4.05-2.57,2.53-4.95,4.87-7.33,7.21-1.16,1.23-2.32,2.46-3.5,3.7-2.41-2.38-4.43-4.78-6.12-7.44-.15-.24-.34-.44-.52-.67-.31-.64-.62-1.29-.93-1.93-1.29-2.79-2.19-5.65-1.69-8.78,.38-2.36,1.43-4.38,3.16-6.05,.18,.16,.36,.32,.53,.49,1.87,1.84,3.71,3.71,5.61,5.52,1.5,1.43,3.29,2.44,5.36,2.68,2.96,.35,5.34-.91,7.32-3.03,1.76-1.81,3.51-3.63,5.18-5.35-1.82-1.87-3.71-3.81-5.59-5.75-.39-.41-.79-.81-1.17-1.24-2.38-2.65-2.89-5.24-1.11-8.44,.41-.74,.91-1.43,1.37-2.15l2.25-2.43Z" style="fill:#fff;"/><path d="M175.27,196.63c.17,.22,.37,.43,.52,.66,1.69,2.67,3.71,5.06,6.12,7.44,1.18-1.24,2.34-2.47,3.5-3.7,1.53,.64,3.06,1.27,4.58,1.93,.17,.07,.34,.27,.41,.45,1.33,3.64,2.65,7.29,3.95,10.95,.06,.18-.07,.54-.23,.68-.51,.47-1.08,.88-1.63,1.31-1.99,1.54-3.99,3.08-6.05,4.67-.36-.98-.7-1.9-1.05-2.81-.48-1.26-.96-2.51-1.44-3.77-.46-1.27-.91-2.55-1.4-3.8-.07-.19-.36-.35-.58-.41-2.32-.6-4.65-1.18-6.98-1.76-4.15-1.03-8.3-2.06-12.45-3.08,0-5.25,.01-10.5,0-15.74-.02-4.15-.08-8.3-.12-12.45,0-.95,.01-.96,.95-.96,4.79,0,9.58-.01,14.37,.01,.64,0,.87-.12,.85-.82-.05-2.34-.02-4.68-.01-7.02,0-.24,.11-.48,.17-.72,1.39,1.36,2.77,2.73,4.16,4.09,.18,.17,.42,.27,.63,.4-.19,.13-.41,.23-.58,.4-2.4,2.39-4.78,4.78-7.17,7.18l-2.17-2.03c-2.16,2.06-4.26,4.07-6.38,6.06-.43,.4-.4,.71-.14,1.18,1.92,3.46,3.82,6.93,5.73,10.39,.1,.18,.26,.37,.44,.45,.66,.3,1.33,.55,2,.81Z" style="fill:#c18a1e;"/><path d="M175.79,179.76c2.39-2.39,4.78-4.79,7.17-7.18,.16-.16,.38-.26,.58-.4,1.26-1.26,2.53-2.51,3.79-3.78,.16-.16,.26-.37,.39-.56,.68-.65,1.36-1.28,2.03-1.94,1-.98,1.97-1.98,2.97-2.96,.16-.16,.39-.24,.59-.35-.46,.71-.96,1.41-1.37,2.15-1.78,3.2-1.27,5.79,1.11,8.44,.38,.42,.78,.82,1.17,1.24,.08,2.49,.16,4.98,.25,7.47,.04,1.21,.11,2.42,.16,3.63-1.98,2.13-4.36,3.38-7.32,3.03-2.07-.24-3.86-1.26-5.36-2.68-1.9-1.81-3.74-3.68-5.61-5.52-.17-.17-.35-.33-.53-.49,0-.03-.01-.07-.02-.1Z" style="fill:#f3b449;"/><path d="M154.92,225.87c-1.48,0-2.97,0-4.45-.01,0-2.52-.03-5.03,0-7.55,0-.59-.17-.73-.74-.72-4.84,.02-9.68,.01-14.52,.01h-.6c1.55-.85,3.17-1.65,4.7-2.59,2.62-1.61,4.9-3.6,6.26-6.44,1.84-3.84,.78-8.49-2.84-11.04-1.72-1.21-3.61-2.03-5.68-2.4-.06-.01-.11-.06-.07-.03,2.63-2.63,5.27-5.27,7.92-7.92,.2,.7,.45,1.54,.67,2.39,2.03,7.86,4.05,15.73,6.08,23.59,1.05,4.05,2.11,8.09,3.17,12.14,.05,.19,.06,.38,.09,.58Z" style="fill:#c28a1e;"/><path d="M183.94,214.44c-3.9-.85-7.79-1.7-11.69-2.55-3.24-.7-6.48-1.4-9.72-2.1,0-1.47,0-2.94,0-4.41,4.15,1.03,8.3,2.05,12.45,3.08,2.33,.58,4.66,1.16,6.98,1.76,.22,.06,.51,.22,.58,.41,.49,1.26,.94,2.53,1.4,3.8Z" style="fill:#979695;"/><path d="M187.72,167.85c-.13,.19-.23,.4-.39,.56-1.26,1.26-2.53,2.52-3.79,3.78-.21-.13-.46-.23-.63-.4-1.4-1.36-2.78-2.72-4.16-4.09l-.08-.2-.07-.19c0-2.75,0-5.51,0-8.26h.24c2.68,2.66,5.36,5.33,8.04,7.99,.28,.28,.57,.54,.85,.81Z" style="fill:#262020;"/><path d="M171.77,221.52l.22,.11-.24,.02,.02-.14Z" style="fill:#bebfbf;"/><path d="M178.59,167.31l.07,.19-.07-.19Z" style="fill:#4d3e30;"/><path d="M208.82,221.94v-.1l.11,.08-.05,.03h-.06Z" style="fill:#bfc0c0;"/><path d="M208.77,221.62l.13-.09-.13,.09Z" style="fill:#bebfbf;"/><path d="M175.79,179.76s.02,.07,.02,.1c-1.73,1.66-2.78,3.68-3.16,6.05-.51,3.13,.39,6,1.69,8.78,.3,.65,.62,1.29,.93,1.93-.67-.27-1.34-.52-2-.81-.18-.08-.34-.27-.44-.45-1.91-3.46-3.81-6.93-5.73-10.39-.26-.47-.29-.78,.14-1.18,2.13-1.99,4.22-4,6.38-6.06l2.17,2.03Z" style="fill:#979796;"/><path d="M194.62,185.52c-.05-1.21-.12-2.42-.16-3.63-.09-2.49-.17-4.98-.25-7.47,1.88,1.94,3.77,3.87,5.59,5.75-1.67,1.72-3.42,3.54-5.18,5.35Z" style="fill:#282222;"/></g></g><g><path d="M744.59,148.27c.48,.44,.96,.89,1.44,1.33,.19,.14,.39,.26,.55,.42,1.27,1.25,2.54,2.51,3.8,3.76,2.53,.52,5.06,1.03,7.58,1.56,.36,.07,.71,.18,1.07,.27,1.19-3.94,2.37-7.89,3.59-11.95-.27,.04-.45,.05-.62,.1-5.73,1.47-11.45,2.94-17.18,4.41-.08,.02-.16,.07-.24,.1Z" style="fill:#979797;"/><path d="M750.38,153.79c-1.27-1.25-2.53-2.51-3.8-3.76-.16-.16-.37-.28-.55-.42,.28,1.24,.55,2.48,.86,3.72,.25,1.02,.54,2.03,.85,3.17l2.65-2.71Z" style="fill:#262121;"/><path d="M736.43,159.04h.24l-.02-.17-.22,.17Z" style="fill:#4d3e30;"/><g><path d="M824.99,220.23c3.3-.86,6.23-2.39,8.58-4.89,1.52-1.62,2.34-3.62,2.69-5.79,.15-.96,.14-1.95,.22-3.13l-2.45,1.65c2.26-6.36,.17-11.87-2.95-17.23-.06,.52-.16,1.03-.18,1.55-.31,5.78-1.88,11.18-5.04,16.05-1.75,2.69-4.43,4.15-7.37,5.2-2.43,.87-4.94,1.36-7.5,1.56-1.76,.13-3.53,.16-5.29,.22-.3,.01-.6-.05-.88-.08-.11-1.16-.24-2.27-.32-3.39-.2-3-.65-5.96-1.2-8.91-1.12-5.97-2.92-11.7-5.59-17.17-3.21-6.58-7.79-12.05-13.4-16.71-7.44-6.18-15.77-10.68-25.04-13.46-.08-.02-.16-.07-.24-.11-.36-.09-.71-.19-1.07-.27-2.53-.52-5.06-1.04-7.58-1.56l-2.65,2.71c-.31-1.14-.6-2.15-.85-3.17-.3-1.24-.57-2.48-.86-3.72l-1.44-1.33c-1.39-1.04-2.82-1.99-4.55-2.35-2.34-.48-4.59-.08-6.55,1.25-1.63,1.1-3.11,2.45-4.62,3.72-.72,.6-1.35,1.3-2.03,1.95-.16,.18-.3,.37-.47,.54-2.06,2.06-4.13,4.12-6.19,6.19-.18,.18-.32,.4-.48,.6,.75,.81,1.5,1.62,2.25,2.43,.2,.12,.43,.2,.59,.35,1,.98,1.98,1.98,2.97,2.96,.67,.66,1.35,1.29,2.03,1.94,.28-.27,.57-.53,.85-.81,2.68-2.66,5.36-5.33,8.04-8l.22-.17,.02,.18c0,2.75,0,5.51,0,8.26l-.07,.19-.08,.2c.06,.24,.17,.48,.17,.72,.01,2.34,.04,4.68-.01,7.02-.01,.7,.21,.82,.85,.82,4.79-.03,9.58-.01,14.37-.01,.94,0,.96,.01,.95,.96-.04,4.15-.1,8.3-.12,12.45-.02,5.25,0,10.5,0,15.74,0,1.47,0,2.94,0,4.41v7.83h-9.24v3.9l.02,.14c0,1.4,0,2.81,0,4.21h16.7s.09,0,.13,0c.03-.19,.05-.39,.09-.58,1.05-4.05,2.12-8.09,3.17-12.14,2.03-7.86,4.05-15.73,6.08-23.59,.22-.85,.47-1.69,.67-2.39,2.65,2.65,5.29,5.29,7.92,7.92,.05-.03,0,.02-.07,.03-2.07,.38-3.96,1.19-5.68,2.4-3.62,2.55-4.68,7.2-2.84,11.04,1.36,2.84,3.64,4.83,6.26,6.44,1.53,.94,3.15,1.74,4.7,2.59h-.6c-4.84,0-9.68,0-14.52-.01-.57,0-.75,.13-.74,.72,.03,2.52,0,5.03,0,7.55l.02,.02c12.05,0,24.11,0,36.16,0,.21,0,.41,.08,.62,.13h2.89c.14-.04,.28-.12,.42-.13,1.83,0,3.65,0,5.48,0,.14,0,.27,.08,.41,.13h1.31c.97-.13,1.95-.26,2.92-.39,4.86-.62,9.48-1.94,13.63-4.63,.18-.12,.36-.25,.53-.38,.03-.02,.03-.07,.08-.18-1.44,0-2.85,0-4.25,0-.18,.02-.36,.03-.54,.05l-.02-.14,.53-.11Z" style="fill:#f1aa01;"/><path d="M706.44,221.94l.05,3.93h37.01c0-1.41,0-2.81,0-4.21l-.24-.02c-.13,0-.26,.02-.39,.02-11.97,0-23.95,0-35.92,0-.15,0-.3-.02-.46-.03l-.13-.09-1.19-1.17c-3.9-3.89-7.81-7.78-11.71-11.68-3.85-3.85-7.7-7.71-11.55-11.56-.51-.54-1.02-1.08-1.7-1.78-.7,.77-1.34,1.47-1.98,2.17v.13c.16,.14,.33,.28,.48,.43,8.39,8.38,16.77,16.76,25.15,25.14,.18,.18,.32,.42,.47,.63l2-1.91,.1-.08v.1Z"/><path d="M743.51,225.87h-37.01l-.02-.02h-.03l.04,.16h37.05l.03-.13h-.05Z"/><path d="M801.6,226c-.21-.04-.41-.13-.62-.13-12.05,0-24.11,0-36.16,0,0,.04,0,.08,0,.13h36.79Z" style="fill:#f3bd5c;"/><path d="M743.56,225.87l-.03,.13h16.68s0-.09,0-.13h-16.65Z" style="fill:#f3bd5c;"/><path d="M810.79,226c-.14-.04-.27-.13-.41-.13-1.83,0-3.65,0-5.48,0-.14,0-.28,.08-.42,.13h6.31Z" style="fill:#f4be5d;"/><path d="M760.21,225.87s0,.09,0,.13h4.6s0-.09,0-.13l-.02-.02c-1.48,0-2.97,0-4.45,.01-.04,0-.09,0-.13,0Z" style="fill:#d69e38;"/><path d="M706.48,226l-.04-.14-.09,.14h.13Z" style="fill:#bfc0c0;"/><path d="M681.91,197.12c3.85,3.85,7.69,7.71,11.55,11.56,3.9,3.9,7.81,7.79,11.71,11.68,.16-.09,.31-.22,.48-.26,1.91-.43,3.83-.85,5.75-1.27,3.79-.83,7.59-1.65,11.38-2.47-.55-.43-1.12-.84-1.63-1.31-.16-.15-.3-.5-.23-.68,1.29-3.66,2.62-7.31,3.95-10.95,.07-.18,.24-.38,.41-.45,1.52-.66,3.05-1.29,4.58-1.93l-7.33-7.21c-1.23,1.32-2.49,2.66-3.8,4.05-.13-.28-.22-.45-.3-.62-1.96-4.41-3.92-8.82-5.9-13.22-.17-.39-.43-.76-.73-1.06-2.31-2.33-4.64-4.65-6.96-6.97-.17-.17-.32-.34-.51-.54,.14-.16,.24-.3,.36-.42,4.84-4.84,9.69-9.69,14.54-14.52,.14-.13,.31-.23,.47-.34,.16-.2,.3-.42,.48-.6,2.06-2.07,4.13-4.13,6.19-6.19,.17-.17,.31-.36,.47-.54-.67,.15-1.35,.29-2.1,.46v-14.75c-9.25,9.94-18.37,19.73-27.59,29.64-1.59-10.99-3.17-21.83-4.74-32.68h-.11c-.31,1.87-.62,3.73-.93,5.6-.64,3.83-1.27,7.66-1.91,11.48-.73,4.37-1.45,8.74-2.17,13.1-.67,4.02-1.34,8.05-2.01,12.07-.73,4.37-1.46,8.73-2.18,13.1-.32,1.94-.63,3.87-.95,5.81-.03,.16-.15,.29-.23,.44Z" style="fill:#979797;"/><path d="M719.7,160.17c-.16,.11-.33,.21-.47,.34-4.85,4.84-9.69,9.68-14.54,14.52-.12,.12-.22,.26-.36,.42,.18,.19,.34,.37,.51,.54,2.32,2.32,4.65,4.64,6.96,6.97,.3,.3,.56,.68,.73,1.06,1.98,4.4,3.94,8.81,5.9,13.22,.08,.18,.17,.35,.3,.62,1.3-1.39,2.56-2.73,3.8-4.05,2.57,2.53,4.95,4.87,7.33,7.21,1.16,1.23,2.32,2.46,3.5,3.7,2.41-2.38,4.43-4.78,6.12-7.44,.15-.24,.34-.44,.52-.67,.31-.64,.62-1.29,.93-1.93,1.29-2.79,2.19-5.65,1.69-8.78-.38-2.36-1.43-4.38-3.16-6.05-.18,.16-.36,.32-.53,.49-1.87,1.84-3.71,3.71-5.61,5.52-1.5,1.43-3.29,2.44-5.36,2.68-2.96,.35-5.34-.91-7.32-3.03-1.76-1.81-3.51-3.63-5.18-5.35,1.82-1.87,3.71-3.81,5.59-5.75,.39-.41,.79-.81,1.17-1.24,2.38-2.65,2.89-5.24,1.11-8.44-.41-.74-.91-1.43-1.37-2.15l-2.25-2.43Z" style="fill:#fff;"/><path d="M739.99,196.63c-.17,.22-.37,.43-.52,.66-1.69,2.67-3.71,5.06-6.12,7.44-1.18-1.24-2.34-2.47-3.5-3.7-1.53,.64-3.06,1.27-4.58,1.93-.17,.07-.34,.27-.41,.45-1.33,3.64-2.65,7.29-3.95,10.95-.06,.18,.07,.54,.23,.68,.51,.47,1.08,.88,1.63,1.31,1.99,1.54,3.99,3.08,6.05,4.67,.36-.98,.7-1.9,1.05-2.81,.48-1.26,.96-2.51,1.44-3.77,.46-1.27,.91-2.55,1.4-3.8,.07-.19,.36-.35,.58-.41,2.32-.6,4.65-1.18,6.98-1.76,4.15-1.03,8.3-2.06,12.45-3.08,0-5.25-.01-10.5,0-15.74,.02-4.15,.08-8.3,.12-12.45,0-.95-.01-.96-.95-.96-4.79,0-9.58-.01-14.37,.01-.64,0-.87-.12-.85-.82,.05-2.34,.02-4.68,.01-7.02,0-.24-.11-.48-.17-.72-1.39,1.36-2.77,2.73-4.16,4.09-.18,.17-.42,.27-.63,.4,.19,.13,.41,.23,.58,.4,2.4,2.39,4.78,4.78,7.17,7.18l2.17-2.03c2.16,2.06,4.26,4.07,6.38,6.06,.43,.4,.4,.71,.14,1.18-1.92,3.46-3.82,6.93-5.73,10.39-.1,.18-.26,.37-.44,.45-.66,.3-1.33,.55-2,.81Z" style="fill:#c18a1e;"/><path d="M739.47,179.76c-2.39-2.39-4.78-4.79-7.17-7.18-.16-.16-.38-.26-.58-.4-1.26-1.26-2.53-2.51-3.79-3.78-.16-.16-.26-.37-.39-.56-.68-.65-1.36-1.28-2.03-1.94-1-.98-1.97-1.98-2.97-2.96-.16-.16-.39-.24-.59-.35,.46,.71,.96,1.41,1.37,2.15,1.78,3.2,1.27,5.79-1.11,8.44-.38,.42-.78,.82-1.17,1.24-.08,2.49-.16,4.98-.25,7.47-.04,1.21-.11,2.42-.16,3.63,1.98,2.13,4.36,3.38,7.32,3.03,2.07-.24,3.86-1.26,5.36-2.68,1.9-1.81,3.74-3.68,5.61-5.52,.17-.17,.35-.33,.53-.49,0-.03,.01-.07,.02-.1Z" style="fill:#f3b449;"/><path d="M760.34,225.87c1.48,0,2.97,0,4.45-.01,0-2.52,.03-5.03,0-7.55,0-.59,.17-.73,.74-.72,4.84,.02,9.68,.01,14.52,.01h.6c-1.55-.85-3.17-1.65-4.7-2.59-2.62-1.61-4.9-3.6-6.26-6.44-1.84-3.84-.78-8.49,2.84-11.04,1.72-1.21,3.61-2.03,5.68-2.4,.06-.01,.11-.06,.07-.03-2.63-2.63-5.27-5.27-7.92-7.92-.2,.7-.45,1.54-.67,2.39-2.03,7.86-4.05,15.73-6.08,23.59-1.05,4.05-2.11,8.09-3.17,12.14-.05,.19-.06,.38-.09,.58Z" style="fill:#c28a1e;"/><path d="M731.32,214.44c3.9-.85,7.79-1.7,11.69-2.55,3.24-.7,6.48-1.4,9.72-2.1,0-1.47,0-2.94,0-4.41-4.15,1.03-8.3,2.05-12.45,3.08-2.33,.58-4.66,1.16-6.98,1.76-.22,.06-.51,.22-.58,.41-.49,1.26-.94,2.53-1.4,3.8Z" style="fill:#979695;"/><path d="M727.54,167.85c.13,.19,.23,.4,.39,.56,1.26,1.26,2.53,2.52,3.79,3.78,.21-.13,.46-.23,.63-.4,1.4-1.36,2.78-2.72,4.16-4.09l.08-.2,.07-.19c0-2.75,0-5.51,0-8.26h-.24c-2.68,2.66-5.36,5.33-8.04,7.99-.28,.28-.57,.54-.85,.81Z" style="fill:#262020;"/><path d="M743.49,221.52l-.22,.11,.24,.02-.02-.14Z" style="fill:#bebfbf;"/><path d="M736.67,167.31l-.07,.19,.07-.19Z" style="fill:#4d3e30;"/><path d="M706.44,221.94v-.1l-.11,.08,.05,.03h.06Z" style="fill:#bfc0c0;"/><path d="M706.49,221.62l-.13-.09,.13,.09Z" style="fill:#bebfbf;"/><path d="M739.47,179.76s-.02,.07-.02,.1c1.73,1.66,2.78,3.68,3.16,6.05,.51,3.13-.39,6-1.69,8.78-.3,.65-.62,1.29-.93,1.93,.67-.27,1.34-.52,2-.81,.18-.08,.34-.27,.44-.45,1.91-3.46,3.81-6.93,5.73-10.39,.26-.47,.29-.78-.14-1.18-2.13-1.99-4.22-4-6.38-6.06l-2.17,2.03Z" style="fill:#979796;"/><path d="M720.63,185.52c.05-1.21,.12-2.42,.16-3.63,.09-2.49,.17-4.98,.25-7.47-1.88,1.94-3.77,3.87-5.59,5.75,1.67,1.72,3.42,3.54,5.18,5.35Z" style="fill:#282222;"/></g></g><g><path d="M436.65,123.76v29.65h-3.83v-29.65h3.83Z" style="fill:#1746e0; stroke:#1746e0; stroke-miterlimit:10;"/><path d="M447.16,123.76v29.65h-3.83v-29.65h3.83Z" style="fill:#1746e0; stroke:#1746e0; stroke-miterlimit:10;"/><path d="M458.69,153.41l-7.52-29.65h4.05l3.52,15c.88,3.7,1.67,7.39,2.2,10.25h.09c.48-2.95,1.41-6.47,2.42-10.29l3.96-14.96h4l3.61,15.05c.84,3.52,1.63,7.04,2.07,10.16h.09c.62-3.26,1.45-6.55,2.38-10.25l3.92-14.96h3.92l-8.4,29.65h-4l-3.74-15.44c-.92-3.78-1.54-6.69-1.94-9.68h-.09c-.53,2.95-1.19,5.85-2.29,9.68l-4.22,15.44h-4Z" style="fill:#1746e0; stroke:#1746e0; stroke-miterlimit:10;"/></g><g><path d="M279.07,179.8v18.67h-2.41v-18.67h2.41Z" style="fill:#fff;"/><path d="M283.28,198.47v-18.67h2.63l5.98,9.44c1.38,2.19,2.46,4.15,3.35,6.06l.06-.03c-.22-2.49-.28-4.76-.28-7.67v-7.81h2.27v18.67h-2.44l-5.93-9.47c-1.3-2.08-2.55-4.21-3.49-6.23l-.08,.03c.14,2.35,.19,4.6,.19,7.7v7.98h-2.27Z" style="fill:#fff;"/><path d="M305.04,181.85h-5.68v-2.05h13.82v2.05h-5.71v16.62h-2.44v-16.62Z" style="fill:#fff;"/><path d="M324.92,189.72h-7.26v6.73h8.09v2.02h-10.5v-18.67h10.08v2.02h-7.67v5.9h7.26v1.99Z" style="fill:#fff;"/><path d="M328.88,180.05c1.22-.25,2.96-.39,4.62-.39,2.58,0,4.24,.47,5.4,1.52,.94,.83,1.47,2.1,1.47,3.54,0,2.46-1.55,4.1-3.52,4.76v.08c1.44,.5,2.3,1.83,2.74,3.77,.61,2.6,1.05,4.4,1.44,5.12h-2.49c-.3-.53-.72-2.13-1.25-4.46-.55-2.58-1.55-3.54-3.74-3.63h-2.27v8.09h-2.41v-18.42Zm2.41,8.5h2.46c2.58,0,4.21-1.41,4.21-3.54,0-2.41-1.74-3.46-4.29-3.49-1.16,0-1.99,.11-2.38,.22v6.81Z" style="fill:#fff;"/><path d="M343.78,198.47v-18.67h2.63l5.98,9.44c1.38,2.19,2.46,4.15,3.35,6.06l.06-.03c-.22-2.49-.28-4.76-.28-7.67v-7.81h2.27v18.67h-2.44l-5.93-9.47c-1.3-2.08-2.55-4.21-3.49-6.23l-.08,.03c.14,2.35,.19,4.6,.19,7.7v7.98h-2.27Z" style="fill:#fff;"/><path d="M371.66,189.72h-7.26v6.73h8.09v2.02h-10.5v-18.67h10.08v2.02h-7.67v5.9h7.26v1.99Z" style="fill:#fff;"/><path d="M379.6,181.85h-5.68v-2.05h13.82v2.05h-5.71v16.62h-2.44v-16.62Z" style="fill:#fff;"/><path d="M398.1,179.8v18.67h-2.41v-18.67h2.41Z" style="fill:#fff;"/><path d="M402.31,180.05c1.47-.22,3.21-.39,5.12-.39,3.46,0,5.93,.8,7.56,2.33,1.66,1.52,2.63,3.68,2.63,6.7s-.94,5.54-2.69,7.26c-1.74,1.74-4.62,2.69-8.25,2.69-1.72,0-3.16-.08-4.38-.22v-18.36Zm2.41,16.51c.61,.11,1.5,.14,2.44,.14,5.15,0,7.95-2.88,7.95-7.92,.03-4.4-2.46-7.2-7.56-7.2-1.25,0-2.19,.11-2.82,.25v14.73Z" style="fill:#fff;"/><path d="M430.41,189.72h-7.26v6.73h8.09v2.02h-10.5v-18.67h10.08v2.02h-7.67v5.9h7.26v1.99Z" style="fill:#fff;"/><path d="M434.37,198.47v-18.67h2.63l5.98,9.44c1.38,2.19,2.46,4.15,3.35,6.06l.06-.03c-.22-2.49-.28-4.76-.28-7.67v-7.81h2.27v18.67h-2.44l-5.93-9.47c-1.3-2.08-2.55-4.21-3.49-6.23l-.08,.03c.14,2.35,.19,4.6,.19,7.7v7.98h-2.27Z" style="fill:#fff;"/><path d="M456.13,181.85h-5.68v-2.05h13.82v2.05h-5.71v16.62h-2.44v-16.62Z" style="fill:#fff;"/><path d="M468.76,179.8v18.67h-2.41v-18.67h2.41Z" style="fill:#fff;"/><path d="M476.51,181.85h-5.68v-2.05h13.82v2.05h-5.71v16.62h-2.44v-16.62Z" style="fill:#fff;"/><path d="M491.65,198.47v-7.92l-5.9-10.75h2.74l2.63,5.15c.72,1.41,1.27,2.55,1.86,3.85h.06c.53-1.22,1.16-2.44,1.88-3.85l2.69-5.15h2.74l-6.26,10.72v7.95h-2.44Z" style="fill:#fff;"/><path d="M510.4,198.47l-4.74-18.67h2.55l2.22,9.44c.55,2.33,1.05,4.65,1.38,6.45h.06c.3-1.86,.89-4.07,1.52-6.48l2.49-9.42h2.52l2.27,9.47c.53,2.22,1.02,4.43,1.3,6.4h.06c.39-2.05,.91-4.13,1.5-6.45l2.46-9.42h2.46l-5.29,18.67h-2.52l-2.35-9.72c-.58-2.38-.97-4.21-1.22-6.09h-.06c-.33,1.86-.75,3.68-1.44,6.09l-2.66,9.72h-2.52Z" style="fill:#fff;"/><path d="M546.73,188.94c0,6.42-3.91,9.83-8.67,9.83s-8.39-3.82-8.39-9.47c0-5.93,3.68-9.8,8.67-9.8s8.39,3.9,8.39,9.44Zm-14.48,.3c0,3.99,2.16,7.56,5.95,7.56s5.98-3.52,5.98-7.75c0-3.71-1.94-7.59-5.95-7.59s-5.98,3.68-5.98,7.78Z" style="fill:#fff;"/><path d="M549.85,180.05c1.22-.25,2.96-.39,4.62-.39,2.58,0,4.24,.47,5.4,1.52,.94,.83,1.47,2.1,1.47,3.54,0,2.46-1.55,4.1-3.52,4.76v.08c1.44,.5,2.3,1.83,2.74,3.77,.61,2.6,1.05,4.4,1.44,5.12h-2.49c-.3-.53-.72-2.13-1.25-4.46-.55-2.58-1.55-3.54-3.74-3.63h-2.27v8.09h-2.41v-18.42Zm2.41,8.5h2.46c2.58,0,4.21-1.41,4.21-3.54,0-2.41-1.74-3.46-4.29-3.49-1.16,0-1.99,.11-2.38,.22v6.81Z" style="fill:#fff;"/><path d="M564.75,179.8h2.41v9h.08c.5-.72,1-1.38,1.47-1.99l5.71-7.01h2.99l-6.76,7.92,7.28,10.75h-2.85l-6.15-9.17-1.77,2.05v7.12h-2.41v-18.67Z" style="fill:#fff;"/><path d="M579.42,195.54c1.08,.66,2.66,1.22,4.32,1.22,2.46,0,3.9-1.3,3.9-3.18,0-1.75-1-2.74-3.52-3.71-3.05-1.08-4.93-2.66-4.93-5.29,0-2.91,2.41-5.07,6.04-5.07,1.91,0,3.3,.44,4.13,.91l-.66,1.97c-.61-.33-1.86-.89-3.54-.89-2.55,0-3.52,1.52-3.52,2.8,0,1.74,1.14,2.6,3.71,3.6,3.16,1.22,4.76,2.74,4.76,5.48,0,2.88-2.13,5.37-6.54,5.37-1.8,0-3.77-.53-4.76-1.19l.61-2.02Z" style="fill:#fff;"/><path d="M595.81,179.8v7.81h9.03v-7.81h2.44v18.67h-2.44v-8.75h-9.03v8.75h-2.41v-18.67h2.41Z" style="fill:#fff;"/><path d="M627.41,188.94c0,6.42-3.91,9.83-8.67,9.83s-8.39-3.82-8.39-9.47c0-5.93,3.68-9.8,8.67-9.8s8.39,3.9,8.39,9.44Zm-14.48,.3c0,3.99,2.16,7.56,5.95,7.56s5.98-3.52,5.98-7.75c0-3.71-1.94-7.59-5.95-7.59s-5.98,3.68-5.98,7.78Z" style="fill:#fff;"/><path d="M630.53,180.03c1.16-.19,2.69-.36,4.62-.36,2.38,0,4.13,.55,5.23,1.55,1.02,.89,1.63,2.24,1.63,3.91s-.5,3.02-1.44,3.99c-1.27,1.36-3.35,2.05-5.71,2.05-.72,0-1.38-.03-1.94-.17v7.48h-2.41v-18.44Zm2.41,9c.53,.14,1.19,.19,1.99,.19,2.91,0,4.68-1.41,4.68-3.99s-1.74-3.66-4.4-3.66c-1.05,0-1.86,.08-2.27,.19v7.26Z" style="fill:#fff;"/></g></g></g><g><path d="M301.6,418.52l-3.5-20.29,53.22-24.03,11.49-20.35c-1.11-5.35,2.32-10.59,7.67-11.7,5.35-1.11,10.59,2.32,11.7,7.67,.87,4.19-1.05,8.46-4.76,10.59l-18.91,29.23-56.92,28.87Z" style="fill:#a0616a;"/><polygon points="285.42 401.93 309.39 389.69 315.73 413.52 299.09 425.86 285.42 401.93" style="fill:#1746e0; stroke:#1746e0; stroke-miterlimit:10;"/><polygon points="231.64 806.87 246.13 806.87 253.02 750.98 231.64 750.98 231.64 806.87" style="fill:#a0616a;"/><path d="M250.95,808.18v-9.82l-3.81,.23-15.51,.92-3.59,.22-2.74,32.9-.15,1.76h10.29l.33-1.75,1.49-7.96,3.86,7.96,.85,1.75h27.28c3.38-.02,6.11-2.76,6.12-6.14,1.15-5.38-21.54-17-24.43-20.08Z"/><polygon points="59.97 754.7 71.81 763.04 109.64 721.32 92.15 709 59.97 754.7" style="fill:#a0616a;"/><path d="M75.43,765.82l5.66-8.03-3.25-2-13.21-8.18-3.06-1.89-21.19,25.32-1.14,1.36,8.41,5.93,1.28-1.24,5.81-5.65-1.43,8.73-.32,1.92,22.3,15.71c2.77,1.93,6.58,1.26,8.54-1.49,4.04-3.73-7.81-26.3-8.41-30.48Z"/><path d="M254.05,445.11l-18.65-8.72-37.2,45.02-22.66,5.73c-4.87-2.48-10.83-.55-13.31,4.32-2.48,4.87-.55,10.83,4.32,13.31,3.81,1.94,8.44,1.22,11.47-1.8l33.18-10.54,42.84-47.31Z" style="fill:#a0616a;"/><path d="M235.24,517.62s-30.61,19.93-22.51,33.17c.28,.46-65.19,91.35-65.19,91.35l-73.41,79.15,25.24,22.94s69.74-72.63,81.44-84.89c11.7-12.26,62.8-73.59,62.8-73.59l1.88,75.8-19.56,105.03,29.21-1.85,28.43-105.37,10.49-119.36-58.82-22.38Z" style="fill:#636267;"/><path d="M254.86,399.67l-6.03,4.57c-3.06,2.32-5.51,5.35-7.14,8.83l-12.19,26.01,14.11,19.16s11.87,20.56-7.13,40.48c-18.99,19.91-33.58,41.18-18.37,40.43,15.2-.76,76.77,30.56,77.17,4.9,.41-25.66,1.22-45.32,1.22-45.32l16.14-40.94s9.62-24.42,2.86-31.73c-6.75-7.31-15.79-16.65-15.79-16.65l-9.5-9.5c-4.44-4.44-10.47-6.94-16.75-6.94h0c-3.32,0-6.6,.7-9.63,2.05l-4.3,1.91c-1.66,.74-3.23,1.66-4.67,2.76Z" style="fill:#1746e0; stroke:#1746e0; stroke-miterlimit:10;"/><path d="M281.07,337.86c28.87,16.43,5.17,59.78-24.24,44.34-28.87-16.43-5.17-59.78,24.24-44.34Z" style="fill:#a0616a;"/><path d="M296.5,346.97c-2.02,2.63-6.25,1.4-14.53,3.28,.02-2.81-.31-5.6-.97-8.33-.62,3.38-1.97,6.58-3.95,9.37-7.19,.8,1.62,22.63-2.06,38.69-4.74-33.87-14.71-24.99-9.68-18.28,3.23,4.3,1.08,17.2-8.6,10.75-15.97,7.59-38.7-30.1-13.5-47.78-.45-9.55,10.18-11.06,16.73-8.13,15.89-11.84,34.04,3.33,36.55,20.43Z"/><path d="M238.94,320.84c-7.15-3.44-15.55,.32-18.04,7.85-9.14,27.57-40.37-11.28-55.56,25.18-4.44,12.27,1.63,21.5,6.92,31.41,2.46,4.6,1.97,10.25-1.29,14.32-2.02,2.52-4.49,4.88-6.35,7.47-2.84,3.95-3.28,9.28-.88,13.51,6.9,12.14,31.91,9.64,39.72-1.29,9.4-13.39-1.82-31.36,3.82-45.73,6.34-15.93,28.18-19.24,38.17-31.73,4.82-6.03,3.28-14.92-3.2-19.13-1.07-.69-2.18-1.32-3.31-1.87Z"/></g><g><polygon points="696.2 816.68 682.43 819.81 662.66 763.67 682.98 759.04 696.2 816.68" style="fill:#ffb6b6;"/><path d="M698.71,834.08l-46.29,.75v-.59c-.17-9.95,7.77-18.15,17.72-18.31h0l8.35-6.55,15.88,6.16,4.04-.07,.3,18.6Z"/><polygon points="874.63 785.02 862.73 792.63 827.7 750.38 845.26 739.15 874.63 785.02" style="fill:#ffb6b6;"/><path d="M882.99,794.89l-38.99,24.96-.32-.49c-5.37-8.38-2.92-19.53,5.46-24.89h0l3.66-9.96,16.75-3.1,3.4-2.18,10.03,15.67Z"/><polygon points="685.9 555.01 675.54 582.02 626.95 677.88 669.65 789.4 691.69 783.58 673.52 677.88 725.63 614.56 755.89 679.62 842.81 775.46 862.87 762.09 798.24 662.91 755.2 537.13 685.9 555.01" style="fill:#636267;"/><path d="M717.98,410.9l12.72,8.64c-6.19-6.65-14.5-10.97-23.5-12.2h0c-9.85-1.36-19.85,1.06-28,6.76l-6.07,4.25c-10.69,7.49-16.99,19.78-16.82,32.83l.03,1.92c.04,3.31,.5,6.6,1.37,9.8l14.47,53.45c1.2,4.43,1.64,9.03,1.26,13.61-1.07,12.85-1.69,40.49,12.79,40.13,18.85-.47,29.13-9.87,36.8-7.96,7.68,1.91,40.32,10.06,42.38,1.53,2.07-8.53,13.06-2.42,12.58-10.49-.35-5.9-16.08-38.54-24.53-55.69-3.41-6.92-4.72-14.69-3.76-22.34l3.65-29.13c1.13-9.01-26.35-33.98-35.36-35.11h0c-.3-.04-23.59,1.42,0,0h0Z" style="fill:#1746e0; stroke:#1746e0; stroke-miterlimit:10;"/><path d="M855.86,543.01c-5.64,1.2-11.19-2.41-12.39-8.05-.13-.6-.2-1.21-.22-1.83l-78.41-30.87,14.92-12.22,74.33,32.19c5.8,.2,10.34,5.05,10.14,10.85-.16,4.85-3.63,8.96-8.38,9.93Z" style="fill:#ffb6b6;"/><path d="M744.8,430.97s-13.36-.1-15,15.1,26.36,53.76,30.69,60.11c1.36,1.99,7.18,4.25,14.54,6.42,3.3,.97,6.92,1.93,10.58,2.83,2.12,.52,10.48,2.44,12.44,2.87,9.31,2.02,16.67,3.37,16.67,3.37l17.41-11.86c-8.78-12.97-25.58-18.27-44.61-21.44l-42.71-57.4Z" style="fill:#1746e0; stroke:#1746e0; stroke-miterlimit:10;"/><path d="M548.27,360.36c.88,5.7,6.21,9.61,11.91,8.73,.61-.09,1.21-.24,1.79-.44l56.63,62.39,6.15-18.28-56.42-58.12c-2.24-5.35-8.39-7.88-13.74-5.64-4.48,1.87-7.09,6.57-6.32,11.36h0Z" style="fill:#ffb6b6;"/><path d="M692.37,424.55s4.83,12.46-8.81,19.37c-13.64,6.92-59.62-5.62-67.09-7.42-2.34-.56-6.52-5.21-11.15-11.32-2.08-2.75-4.25-5.79-6.39-8.89-1.24-1.79-6-8.93-7.09-10.62-5.19-7.99-9.05-14.4-9.05-14.4l4.93-20.48c15.24,3.62,26.14,17.45,35.85,34.13l68.81,19.62Z" style="fill:#1746e0; stroke:#1746e0; stroke-miterlimit:10;"/><circle cx="707.08" cy="372.73" r="27.83" style="fill:#ffb6b6;"/><path d="M738.85,356.8c-2.91-4.69-8.26-7.3-13.75-6.7-1.5-10.26-11.03-17.36-21.29-15.87-3.81,.56-7.37,2.27-10.17,4.92-1.67-1.18-3.84-1.39-5.71-.57-1.83,.83-3.43,2.11-4.64,3.72-6.23,7.77-7.68,18.33-3.78,27.48-.65-2.37,1.72-4.59,4.12-5.12,2.4-.53,4.91-.03,7.34-.37,3.11-.44,5.91-2.25,9.03-2.66,2.65-.17,5.3,.17,7.81,1,2.52,.84,5.16,1.19,7.81,1.05,2.63-.31,6.01,9.64,5.96,16.64,0,1.33,.26,3.03,1.56,3.31,1.6,.35,2.52-1.86,4.05-2.46,1.46-.42,2.98,.39,3.45,1.84,.39,1.43,.06,2.96-.88,4.11-.94,1.12-2.05,2.08-3.29,2.85l.63,.52c1.23,1.3,3.2,1.54,4.71,.58,1.44-.97,2.6-2.3,3.38-3.85,2.94-4.54,5.03-9.57,6.2-14.85,1.15-5.33,.24-10.9-2.55-15.59Z"/></g></svg>