<svg id="Layer_1" data-name="Layer 1" xmlns="http://www.w3.org/2000/svg" viewBox="0 0 1100.7 1060.94"><defs><style>.cls-1{fill:#98a4d4;}.cls-2{fill:#fcecc5;}.cls-3{fill:#3d4ca0;}.cls-4{fill:#7b87c7;}.cls-5{fill:#7d8ac8;}.cls-6{fill:#110b31;}.cls-7{fill:#919dd1;}.cls-8{fill:#4d5fba;}.cls-9{fill:#dfe1ee;}.cls-10{fill:#9faad7;}.cls-11{fill:#feecc4;}.cls-12{fill:#feecc2;}.cls-13{fill:#a1add8;}.cls-14{fill:#4450b5;}.cls-15{fill:#4754ba;}.cls-16{fill:#99a5d5;}.cls-17{fill:#e2bc5d;}.cls-18{fill:#feecc3;}.cls-19{fill:#e9cb6d;}.cls-20{fill:#d29e29;}.cls-21{fill:#4a5bb5;}.cls-22{fill:#02010c;}.cls-23{fill:#7b4d48;}.cls-24{fill:#4c59bf;}.cls-25{fill:#b5897e;}.cls-26{fill:#150e2a;}.cls-27{fill:#cf9828;}.cls-28{fill:#714640;}.cls-29{fill:#1d26a4;}.cls-30{fill:#dfbbbe;}.cls-31{fill:#171e8e;}.cls-32{fill:#e3bf62;}.cls-33{fill:#6b3d36;}.cls-34{fill:#7d89c8;}.cls-35{fill:#4f61bd;}.cls-36{fill:#8390cb;}.cls-37{fill:#c93017;}.cls-38{fill:#5362c8;}.cls-39{fill:#100a2d;}.cls-40{fill:#cf381b;}.cls-41{fill:#1d27b1;}.cls-42{fill:#4a5bb6;}.cls-43{fill:#dfb838;}.cls-44{fill:#010018;}.cls-45{fill:#d8dbea;}.cls-46{fill:#fefefe;}.cls-47{fill:#83524c;}.cls-48{fill:#331411;}.cls-49{fill:#bdbdd6;}.cls-50{fill:#d2d6e9;}.cls-51{fill:#81514a;}.cls-52{fill:#130c35;}.cls-53{fill:#bebed6;}.cls-54{fill:#d1d5e8;}.cls-55{fill:#c2c2d6;}.cls-56{fill:#130c36;}.cls-57{fill:#4d5fb9;}.cls-58{fill:#ddb9bc;}.cls-59{fill:#df7552;}.cls-60{fill:#e8cc70;}.cls-61{fill:#5260c8;}.cls-62{fill:#de7250;}.cls-63{fill:#b1847b;}.cls-64{fill:#b3877d;}.cls-65{fill:#18209a;}.cls-66{fill:#85534d;}.cls-67{fill:#471c1a;}.cls-68{fill:#4d242a;}.cls-69{fill:#955549;}.cls-70{fill:#9d5b52;}.cls-71{fill:#7c88c7;}.cls-72{fill:#808dc9;}.cls-73{fill:#8491cb;}.cls-74{fill:#ca9022;}.cls-75{fill:#141c8b;}.cls-76{fill:#171f90;}.cls-77{fill:#100b2d;}.cls-78{fill:#b72915;}.cls-79{fill:#dab4b7;}.cls-80{fill:#02010b;}.cls-81{fill:#9ea9d6;}.cls-82{fill:#4d201c;}.cls-83{fill:#50211d;}.cls-84{fill:#bdc1da;}.cls-85{fill:#161f99;}.cls-86{fill:#dfbcbd;}.cls-87{fill:#110d34;}.cls-88{fill:#212dba;}.cls-89{fill:#4857c6;}.cls-90{fill:#a87065;}.cls-91{fill:#d4d7e8;}.cls-92{fill:#d9b1b4;}.cls-93{fill:#fcfbfc;}.cls-94{fill:#161e8f;}.cls-95{fill:#192195;}.cls-96{fill:#e1bcbd;}.cls-97{fill:#404fa4;}.cls-98{fill:#d55f43;}.cls-99{fill:#d66245;}.cls-100{fill:#ba2915;}.cls-101{fill:#97554a;}.cls-102{fill:#df7452;}.cls-103{fill:#81514b;}.cls-104{fill:#dcdfec;}.cls-105{fill:#2e130f;}.cls-106{fill:#754943;}.cls-107{fill:#491c18;}.cls-108{fill:#da6d4c;}.cls-109{fill:#6e443d;}.cls-110{fill:#212dbb;}.cls-111{fill:#96a4d7;}.cls-112{fill:#dc6d4c;}.cls-113{fill:#9691be;}.cls-114{fill:#e5c972;}.cls-115{fill:#f4e6c2;}.cls-116{fill:#e2bd5e;}.cls-117{fill:#4551b6;}.cls-118{fill:#a7accb;}.cls-119{fill:#c0c0d7;}.cls-120{fill:#acafcc;}.cls-121{fill:#bfc0d7;}.cls-122{fill:#c2c2d7;}.cls-123{fill:#d3d7ea;}.cls-124{fill:#bfbfd7;}.cls-125{fill:#cfd3e7;}</style></defs><path class="cls-1" d="M606.39,415.38q15.68,9,31.35,18c8.16,4.72,16.27,9.51,24.41,14.26,2.48,5.29,7.53,7.58,12.07,10.54,3.82,2.49,7.39,5.54,12.33,2.71,10,5.28,19.65,11.12,29.37,16.86,4.27,2.51,8.68,4.75,12.9,7.35,1.06.65,2.36,1,2.9,2.32-.31,7.52-2.25,14.73-4.69,21.74-1.78,5.07-2.37,9.5,1.92,13.52a4,4,0,0,1,1,2c.19,8.45.87,16.86-.85,25.32-1.06,5.15-.79,10.57-1,15.86-.28,6.47-1.3,12.83-1.8,19.26a8.83,8.83,0,0,1-3.8,6.33,43.63,43.63,0,0,0-6.66,6.72c-1.24,1.42-2.88,2.5-3.76,4.25-1.16,2.34-.49,3.67,2.05,4a9.18,9.18,0,0,0,4.87-.59c4.4-2,8.75-4,12.52-7.12a13.37,13.37,0,0,0,4.9-7.86c4.85-3.24,8.26-8,12.62-11.79,1.29-1.12,2.76-3.15,4.49-.36.78,4.78.27,9.58.35,14.37a32.92,32.92,0,0,1-2,8.42,18.12,18.12,0,0,0-1.08,8.18c.29,3.95,2.67,5.24,6.25,3.42a28.73,28.73,0,0,1,2.94-1.7,9.64,9.64,0,0,0,4.94-2.66c11.89-12.13,25.45-22.46,37.51-34.42a7.55,7.55,0,0,1,2.12-1.6c1.91-.89,3-.48,2.62,1.84a25.75,25.75,0,0,1-1.92,6.16c-2,4.43-1.26,8.26,2.18,11.81a108.68,108.68,0,0,0,11.89,10.62,12.66,12.66,0,0,1,5.39,11.06c-.13,7.86-.87,15.67-1.21,23.51-.16,3.88.35,5.11,4.07,6.65,2.75,1.13,2.75,1.13,2.33,3.29-1.54.5-2.71,1.25-2.81,3.12-.49,8.65-3.7,16.8-4.66,25.39a129.93,129.93,0,0,0,.38,31.47A183.53,183.53,0,0,1,824.36,733c-1.49,2.46-2.5.6-3.31-.52s-.61-2.67-.7-4.06.72-3.19-1-3.67-2,1.58-2.91,2.54c-3.37,3.52-5.45,7.92-8.07,12-3.69,5.69-8.35,10.52-13,15.36-8.66,9.08-17.53,18-27,26.25a127.37,127.37,0,0,1-16.32,11.79c-8.58,5.38-17.06,11-26.13,15.52-2.42,1.21-4.92,2.21-7.53.38-3.47-7-4.39-14.68-6.4-22.08-3.64-13.39-.29-26.1,2.78-38.84,2.2-9.16,2.35-17.73-3.71-25.55a42.88,42.88,0,0,0-.31-11.2c-.24-1.37-.31-2.76.84-3.85a8.34,8.34,0,0,1,2.48-.83c3.21-1.07,4.31-3.14,3.42-6.43-.75-2.83-2.65-5.13-3.64-7.86a2.81,2.81,0,0,1,.46-2.23c1.67-1.18,3.44-.18,5.16-.21,3.72-.08,5-1.58,3.63-4.92-2.27-5.51-.66-10.47,1.83-15.28a33.26,33.26,0,0,0,3.84-11.07c.76-6.26-.07-12.42-4.79-17.24a11.3,11.3,0,0,0-14.21-1.8c-1.41.81-3,1.59-4.2.37-3.11-3.11-7.18-3.41-11.07-4.32a9.32,9.32,0,0,0-11.18,4.22,27.09,27.09,0,0,0-1.77,4.11,22,22,0,0,1-1.71,2.93c-6,9.82-.3,21.49,11.15,22.71a35,35,0,0,0,6.71,1.51c3.57-.06,5.1-2.81,6.9-5.21,1.07-1.43,1.62-4.26,3.68-3.59,1.85.61,1.12,3.33,1.16,5.16.05,3.05-.18,6.06-2.36,8.5-1.41.81-2.72.21-4-.4-2.91-1.42-5.5-1-8.2.79-2.39,1.63-5.06,3-8.18,2.4-3-1.13-5.71-.15-8.24,1.5A38.92,38.92,0,0,0,665.76,694c-1,1.79-.8,3.66-.79,5.55-2.35,5-5.05,6.75-10.28,6.45a34.47,34.47,0,0,1-6.7-1.11c-1.46-.38-2.89-1-2.88-3,6.36-5.18,11.95-11.3,15.33-18.64,4.48-9.72,6.76-19.79-.69-29.75-9.91-13.26-22.4-22.47-38.32-27.18-6.43-1.9-12.81-4-19.22-6.08A166.41,166.41,0,0,0,583.32,616a199.13,199.13,0,0,0-46.16-3.5c-9.1.37-18.29.23-27.31,1.69-14.14,2.28-28.15,5.25-41.61,10.32a3.82,3.82,0,0,1-.75.14,2.91,2.91,0,0,1-2.3-.66,7,7,0,0,1-1.69-2.4c-.23-.29-.6-.61-.6-.94.1-6.45-4.72-7.21-9.4-8.14-5.14-.4-10.15,0-14.81,2.45s-7.59,6.36-7.89,11.72c-.25,4.66-.49,9.37.36,14,1,5.38-.13,9.95-4.52,13.63a29.16,29.16,0,0,0-10.95,21.73,19.62,19.62,0,0,0,.3,4.9c.57,2.75,1.94,4.18,5,4,2.09-.13,4.38-.36,6,1.61,1,2,.78,4.19.66,6.28-.21,3.57.69,6.38,4.1,8.11a6.18,6.18,0,0,1,2.93,2.83,10.52,10.52,0,0,1-1.27,6.25c-2.62,5.73-2.88,11.78-2.73,17.88.34,13.79,1.46,27.56,1.57,41.36,0,3.83,2.94,5.37,4.64,7.9.54,2.68-.1,5.32-.34,8-1,4.17-.3,8.4-.44,12.6a16.7,16.7,0,0,1-.29,4c-.86,2.77-.45,5.6-.45,8.41,0,2.14.23,4.31-.52,6.39-1.77,2.24-3.91,1.29-5.87.49A216.46,216.46,0,0,1,399,802c-14.78-8.89-29.36-18.16-42.83-29C351,768.8,346,764.23,341,759.8c-2.77-2.42-5.44-4.92-8.38-7.15-4.89-3.72-8-9.09-12.14-13.57-7.33-8-14.6-16.22-20.37-25.53-7.49-12.06-15.09-24-20.81-37.13a48.84,48.84,0,0,1-3.93-20.2c0-10.76-.86-21.52-.75-32.3a36.6,36.6,0,0,0-1.27-8.63,27.93,27.93,0,0,1-.27-5.85c-.89-12.62-.7-25.29-1.87-37.89.06-.5.11-1.17.51-1.38,5.29-2.75,4.58-7.57,4.27-12.25a21,21,0,0,1-.51-5.12c.15-1.79.74-3.13,2.84-3.1,3.19.8,6.11,2.34,9.18,3.45,6,2.17,12.1,2.36,18.31,2.24,2.42,0,4.22-.74,4.64-3.41a4.41,4.41,0,0,1,.71-2.2c2.06-1.12,3.88.37,5.81.62a30,30,0,0,0,6.05.44c1.22-.1,2-.59,1.43-1.94-1-2.18.24-3.3,1.94-4.26a21.12,21.12,0,0,0,3.7-2.65c.83-.74,2-1.51,1.49-2.81s-2.05-1.34-3.3-1.18a35.2,35.2,0,0,0-7.39,1.65c-3.19,1.13-6.25,3-9.85,2.74-.68-2.41-2.39-3.34-4.76-3.6-4.69-.52-9.38-.16-14.07-.29a11.84,11.84,0,0,1-11.2-9.41c3-.11,4.94-2.39,7.34-3.67,7.53-4,14.69-8.69,22.39-12.41,3.6.53,6.62,2.53,9.66,4.23,10.62,6,21.78,10.82,32.61,16.36,10.49,5.36,20.91,10.86,31.42,16.18,8,4.06,16,8.25,23.95,12.42,3.44,1.8,5.91,4.12,6.69,8.16a11.2,11.2,0,0,0,5,7.39,15.32,15.32,0,0,1,3.53,3.43c2.66,3.62,6.47,3.58,10.29,3,3.3-.5,4.2-2.23,3.47-5.57s-1.17-6.7-1.79-10c-.21-3.55-.33-7.06,2.06-10.11a6.69,6.69,0,0,0,.88-3.25c.65-4.41,1.52-4.74,5.16-2,2.61,2,5.1,4.12,7.75,6,4.05,3.78,9.45,3.91,14.39,5.21,2.78.74,5.75.73,8.58,1.42a4.3,4.3,0,0,0,5-1.74c1.34-2-.09-3.62-1.34-5A13.94,13.94,0,0,0,470.5,555a16.29,16.29,0,0,1-6.6-2.72c-1.37-1.1-2.84-2.45-.77-4.3,2.55-1.19,2.58-3.47,2.61-5.81.31-25.94,1.13-51.87.76-77.81a29.83,29.83,0,0,1,.29-6.05c1.6-4.15,3.14-8.31,2.91-12.88-.08-1.53-.07-3.07-1.36-4.19a6.43,6.43,0,0,1-1.72-3.08c.28-1.32.66-2.75,2.42-1.75,2.76,1.57,2.69-.58,2.86-2.12.33-2.89.08-5.82.4-8.73.39-3.61,1.24-6.71,5.29-7.74L491.37,410c3.11.67,3.32,3.55,4.07,5.77,1.49,4.4,2.1,9.05,3,13.61a8.43,8.43,0,0,0,1.28,3.88c6.77,6.16,14.82,9.62,23.68,11.5a122.77,122.77,0,0,0,36.7,1.89c7.33-.65,14.66-1.18,21.93-2.33,4.15-.66,7.81-2.23,10.49-5.62a4.09,4.09,0,0,1,4-1.74,2.5,2.5,0,0,0,2.9-1.26,56.58,56.58,0,0,0,3.69-13.82C603.48,419.43,604,416.92,606.39,415.38Z"/><path class="cls-2" d="M606.39,415.38c-3.41,6.51-2.58,14.26-6,20.75-.54.7-1.16,1.88-1.91,1.68-5.3-1.45-9,2.78-13.69,3.75A171.85,171.85,0,0,1,566.35,444a5.77,5.77,0,0,1-4-.77,1.63,1.63,0,0,1-.38-1.41C564.48,430,565.07,418,566.17,406c.7-7.56,1.29-15.15,1.72-22.74a12.14,12.14,0,0,1,4.47-9.17c6.8-5.88,12.81-12.61,19.6-18.56-6.07,2-11.1,5.74-16.28,9.21-1.46,1-3,2.82-4.68,2-1.88-.93-.86-3.25-.66-4.89,2.3-18.88,3.7-37.85,5.86-56.74.28-2.46-.1-5,.6-7.39A385,385,0,0,0,564,361.38c-.31,2.77-.66,5.54-.85,8.33a10.79,10.79,0,0,1-3.08,7.18c-2.66,2.63-3.42,2.7-5.88-.19a5.57,5.57,0,0,0-5.12-1.86,16.18,16.18,0,0,0-6,2.14c-2,1-11.8-2.24-12.7-4.29a22.31,22.31,0,0,1-1.11-5.2c-2.18-12.88-4.2-25.78-6.69-38.62a202,202,0,0,0,0,23.73c.64,8.59.81,17.21,1.76,25.78.29,2.66-1.16,4.87-2.45,7.08a32.75,32.75,0,0,0-4,10.23c2.15-.1,2.45-1.54,3.19-2.48,1.05-1.34,1.64-3.85,3.55-3.39s1.6,3,1.89,4.64q1.74,9.94,3.57,19.86c1.65,8.86,3.13,17.75,5.53,26.45a3.5,3.5,0,0,1,.08,2.24,3.59,3.59,0,0,1-3.19.74c-8.59-1.18-17.22-2.23-25.24-5.83-2.82-1.27-5.53-2.77-8.34-4.05-2.75-3.34-1.7-7.65-2.86-11.42-1.32-4.26-1.72-8.8-4.68-12.42-.47-4.69-3.2-8.3-6.14-11.59-6.23-6.94-12-14.22-17.54-21.73-1.85-2.5-4.16-4.67-6.26-7-4.38-3.93-6.77-9.36-10.47-13.82-2.38-3.38-4.83-6.71-7.08-10.19-.64-1-1.82-1.83-1.34-3.31-3.81-7.4-8.16-14.57-11.26-22.26a152.51,152.51,0,0,1-7.1-23.35c-2.45-10.76-2.41-21.6-2.13-32.46.22-8.55,3-16.68,4.72-25a127.82,127.82,0,0,1,6.63-21.11c5.33-13.48,11.05-26.84,22.1-36.92,12.08-11,25.37-20.31,40.71-26.17a150.22,150.22,0,0,1,28.51-8.07c9.92-1.69,19.77-2,29.7-2,8,0,15.52,2.58,23.05,4.88,7.11,2.18,14.15,4.53,21.21,6.85a75.44,75.44,0,0,1,27.2,15.86c8.54,7.74,16.94,15.79,23.57,25.24,4.8,6.82,9.22,14,12.08,22.06a378.9,378.9,0,0,1,11.71,37.81,43,43,0,0,1,.94,10.15c-.07,10.76,1.17,21.64-.89,32.24-1.84,9.45-3.08,19.07-6.39,28.25-2.88,8-5.68,15.87-10,23.21-3.58,6-8.34,11.07-12.61,16.52-6.2,7.93-14.34,14-20.73,21.73C617,397.75,609.25,405,606.39,415.38Z"/><path class="cls-3" d="M1088.75,708.83c0,4.57,0,9.14.1,13.7a3.53,3.53,0,0,1-2.06,3.57q-38.64,23.08-77.2,46.33-43,25.8-86.12,51.53Q877.74,851.29,832,878.59q-44.61,26.56-89.28,53-34.22,20.34-68.4,40.71-30.31,18-60.71,35.77c-17.4,10.24-34.76,20.56-52.26,30.65-4.11,2.37-8.4,4.51-12.73,6.55-3.8,1.8-6.86.81-9.88-1-17.41-10.73-34.73-21.58-52.12-32.32-18.76-11.59-37.58-23.08-56.34-34.69-23.34-14.44-46.62-29-70-43.41-17.39-10.74-34.85-21.35-52.25-32.06q-32.82-20.21-65.6-40.46c-19.09-11.75-38.25-23.39-57.29-35.21q-40.71-25.27-81.31-50.74C85.67,764,67.46,752.7,49.33,741.27c-10.9-6.88-21.56-14.13-32.54-20.87-4.2-2.58-4.5-6.71-4.73-10.4-.49-8,0-16,.06-23.94a3.52,3.52,0,0,1,3.27.37c11.85,6.37,23.52,13,35.18,19.74,14.18,8.15,28.39,16.29,42.27,24.92,6.38,4,11.51,4.33,18.23,1.58,17.75-7.26,36.64-11,54.82-17,16.64-5.45,33.66-9.54,50.43-14.55,6.06-1.81,12.32-3,18.16-5.59a2.91,2.91,0,0,1,2.74,1.16,7.11,7.11,0,0,1,.47,4.27,31.65,31.65,0,0,0-1.44,8.56,6.08,6.08,0,0,0,3.61,6.09c2.48,1.26,4.95,2.56,7.53,3.62,1.28.53,2.63,1,3.3,2.37.07,1.41-1.06,1.57-2,1.85-6.09,1.77-12.25,3.28-18.43,4.64-10.41,2.29-20.6,5.37-30.95,7.89-4.93,1.2-9.84,2.51-14.78,3.61-13.3,2.94-26.05,7.51-38.61,12.62-3.4,1.38-7.11,1.93-10.6,4,9.29,5.18,18.08,10.82,27.06,16.16q31.41,18.64,62.69,37.54c14.86,9,29.86,17.75,44.77,26.68,17.18,10.3,34.33,20.65,51.55,30.9,5,3,10,6,15,9a5.68,5.68,0,0,0,5.41.66c23.52-9.25,47.62-16.93,71-26.47a121,121,0,0,1,14.39-5c1.67-.44,3.27-.71,4.49.93,1.47,3.21,4.23,3.85,7.31,3.39,3.39-.51,5.64.18,6.24,4,.42,2.77,2.81,3.36,5.18,3.57,3.84.33,7.56-.5,11.25-1.41,1.6-.39,3.17-1,4.82-.24,1.53,2.62-.69,3.57-2.22,4.66-4.08,2.87-9,3.91-13.45,6.12-15.32,7.64-31.38,13.68-46.75,21.25-8.63,4.25-17.59,7.82-26.74,12.67,3.75,3,7.66,4.77,11.28,6.9,24.93,14.64,49.78,29.41,74.78,43.93,12.38,7.19,24.67,14.54,37,21.8,15.95,9.39,31.82,18.93,47.36,29,2.31,1.5,4,1.65,6.48.22,16-9.28,31.91-18.8,47.8-28.29q28.26-16.86,56.77-33.3c15.48-8.95,30.76-18.23,46.32-27,9.15-5.18,17.89-11,27.66-15.8-14.26-8.39-26.42-19-39.33-28.49-5.22-3.84-10.11-8.05-15.19-12.05-1.92-1.52-4.64-3.26-2.47-6.56,3.25.85,5,3.67,7.23,5.78,4.65,4.42,10.17,5.21,16.15,4.68,1.75-.15,2.61-1.22,3-2.88.55-2.08.41-4.28,1.23-6.3.35-.44,1-.74,1.22-.23,1.7,5.08,6.51,7,10.33,9.59,11.69,8,23.83,15.36,35.83,22.92,2.64,1.67,4.61.11,6.57-1.22,1.33-.9.31-1.79-.48-2.4-3.79-3-7.24-6.31-11.23-9.06-11.58-8-23-16.19-33.81-25.2-1-.87-2.8-1.62-1.55-3.57,1.33-.69,2.71-.42,4.1-.28,3.44.36,4.49-.5,5.07-4,.26-1.62-.07-3.32.72-4.86.73-.9,1.35-.37,1.83.24,5.38,7,13,11.23,20,16.14,8.93,6.25,18.57,11.41,27.75,17.28a3.78,3.78,0,0,1,1,.6c4.19,4.75,8.13,2.88,12.63.12,11.45-7,23.21-13.51,34.83-20.24,8.76-5.07,17.4-10.39,26.21-15.36,12.13-6.85,24-14.2,36.16-20.9,3.54-2,7.21-3.71,10.65-6.56a39.67,39.67,0,0,0-7.4-4.46c-9.71-5-18.84-10.93-28.63-15.76-10.57-5.21-21.25-10.2-31.47-16.12q-2.48-1.43-4.8-3.07c-1.27-.92-2-2-.6-3.46,1.47-.66,2.64.22,3.91.72A24.3,24.3,0,0,0,835.59,765c3.79-.66,4.56-1.79,4.11-5.7-.14-1.25-.42-2.49.21-3.68.79-.91,1.61-.34,1.7.35.82,6,6.09,7.77,10.07,10.6,16,11.4,33.19,20.93,50.67,29.89,1.74.9,3.3,1.19,4.95,0s3.65-1.74,5.41-2.75,2.13-1.91,0-3.08c-6.08-3.4-11.92-7.21-18.07-10.49-12.85-6.85-24.87-15.12-37.73-22-5.57-3-6.67-5.53-5.29-9.76,1.87-.16,3.16,1.34,4.93,1.65,5.26.9,7.93-1.08,8.1-6.29a3.12,3.12,0,0,1,.65-2.13c.24-.14.58-.25.69-.09,5.19,7.31,13.86,9.45,21,13.85,10,6.21,20.43,11.83,30.09,18.59,3.73,2.61,7.55,5.08,11.29,7.66a3.72,3.72,0,0,0,4.54,0q20.93-12.45,42-24.63,25.55-14.76,50.82-29.95c18.08-10.81,36.46-21.12,54.27-32.37,1.86-1.18,3.85-1.79,5.74-.86s1.71,3.11,1.91,5C1088,702.16,1086.59,705.7,1088.75,708.83Z"/><path class="cls-4" d="M1088.75,708.83c-1.65-.91-1.48-2.49-1.48-4a64.31,64.31,0,0,0-.12-7.22c-.37-3.22-3.37-4.38-6.07-2.62-15.17,9.87-31,18.7-46.59,27.81-11.63,6.78-23,14.05-34.53,20.94-7.35,4.38-14.89,8.42-22.29,12.7-6.83,4-13.58,8.05-20.37,12.08-8.45,5-16.92,10-25.34,15.09-1.24.75-2,.37-3-.35-13.22-9.06-26.54-18-40.49-25.92-6.19-3.51-12.42-7-18.72-10.3a7.88,7.88,0,0,1-4.15-5.43c-2.13-.7-3.29-2-2.55-4.36,2.49-2.36,3.17-5.45,2.93-8.64-.33-4.52,1.16-8.48,3-12.41a241.77,241.77,0,0,0,19.56-59.51c1.76-9.46,3.45-19,3.35-28.7,0-3.81,1.05-7.53,1.35-11.33a66.41,66.41,0,0,0-1-17.06,41.33,41.33,0,0,1-.37-9.49c.22-4.35,2.14-5.7,6.52-4.78,10.62,6,21.28,12,31.87,18.12s21.12,12.29,31.69,18.43c11,6.38,22,12.71,33,19.11q20.7,12.09,41.36,24.28c14.73,8.72,29.41,17.53,44.11,26.31a4.08,4.08,0,0,0,3.17.83c3.25-.84,3.78,1,4.17,3.64C1088.4,700.3,1087.27,704.66,1088.75,708.83Z"/><path class="cls-5" d="M234.62,695.84c-1,2.63-3.82,2.22-5.71,2.79q-17.46,5.31-35.13,9.88c-13.47,3.49-26.6,8.08-40,11.82-9.51,2.65-19,5.34-28.42,8.31-6.57,2.08-13,4.6-19.46,7-2.82,1.07-5.11,1.23-8.06-.49-10.83-6.35-21.74-12.6-32.51-19-12.65-7.56-25.54-14.7-38.21-22.22-4.85-2.88-10-5.25-15-7.86.93-2.52,2.9-3.88,5.18-5.19,12-6.88,23.86-14,35.8-20.92q13.68-8,27.42-15.77c12-6.85,24.06-13.63,36.06-20.5q35-20.05,70-40.17,15.38-8.81,30.89-17.39a3.14,3.14,0,0,0,1.95-2.87c1.36.08,1.49,1.24,1.79,2.14,1.83,5.51,5.61,9.51,10,13,1.32,1,2.7,2,2.4,3.94-1.38,5.76-2.81,11.55-2.51,17.51.25,5,.55,10.08,2.09,14.95a28.53,28.53,0,0,1,1,10.55,250.9,250.9,0,0,0,0,39.06c-.31,5.91.26,11.84-.24,17.72A41.61,41.61,0,0,0,234.62,695.84Z"/><path class="cls-6" d="M729.21,524.53c-5.63-4.5-5.43-9.68-3.08-16.08,2.5-6.83,3.56-14.19,5.25-21.32a2.84,2.84,0,0,1-.59-3.18c1.41-3.14,1-6.45,1-9.72,0-4.39-.9-5.72-5.33-6.27-5.51-.69-10.35-3.24-15.52-4.86a16.42,16.42,0,0,1-7.62-4.81,6.22,6.22,0,0,1-1-3.58c.2-4.79,2-6.29,6.88-5.8,3.76.71,7.65.92,11.14,2.64,2.86,1.41,4,.26,4-2.51a58.48,58.48,0,0,1,3.37-17.22c.83-2.54,2.38-4.75,5.2-4.78,3,0,7.23,4.43,7.32,7.09s-.59,7,1.46,7.72c2.68.88,4.4-3,6.24-5.15,4.48-5.27,9-4.45,16.66.23,5.85,3.59,6.27,9.33,7.23,15.45,3.87-3.54,4.69-9.06,9-11.8,2.58-1.62,5.11-1.11,7.27.62,1.73,1.39,2.58,3.33,1.3,5.59-3.78,8.21-6.12,17.08-11.28,24.65a42,42,0,0,1-2.91,4c-3.16,3.65-6.17,3.13-7.82-1.31-1.07-2.89-1.86-5.9-3.65-8.74-1.58,2.71.6,4.94.4,7.3-2.12,0-2.11-1.75-2.51-3.15s.15-2.81-1.4-3.91c-1.83,2.58-1.19,5.33-.85,8,.5,3.79,2.22,7.25,3.31,10.89,3.45,11.62,3,23.2.38,34.86-.57,2.46-1.23,4.95-.78,7.51.27,1.54.9,3.25,2.58,3.37,1.86.13,1.55-1.91,2.11-3.09.69-1.48-.13-4,2.72-4.06,1.71,5.87-.38,10.21-5.54,11.56a46.62,46.62,0,0,1-5.91,0,29.16,29.16,0,0,1-8.06-1.52c-2-.88-4.25-.68-6.36-1.09s-4.24-1.59-6.42-2.19C734.46,528.5,730.87,528,729.21,524.53Z"/><path class="cls-7" d="M898.42,585.32c-5.48,1-5.35,1-5.51,6.5-.23,7.61,2.54,15,1.5,22.64-1.54,11.23-1.55,22.59-3.36,33.82a227.74,227.74,0,0,1-5.44,26.26c-4,14.11-8.49,28.12-15.31,41.16-2.8,5.36-3.55,10.93-3.51,16.6,0,3.21-2.1,4-3.65,5.58a.87.87,0,0,1-1.09-.51c2.66-5.65.13-11.3,0-17a49.41,49.41,0,0,1,.56-10.25c.69-3.55-1.1-6.7-1.14-10.14a155.66,155.66,0,0,0-.71-16.71c-.74-6.24.68-12.42,1.69-18.5a118.38,118.38,0,0,0,1.15-15.12c.19-4.91.24-9.85,1.6-14.63,3.14,1.14.6,3.5,1.44,5.34-.08-2.33.24-4.52-.47-6.69.35-10.24-1.1-20.34-3-30.35-1.32-7.11-3.66-13.93-9.52-18.85-2.35-4-5.89-2.37-9.18-1.93-2.77.37-4.79,1.57-5.09,4.65a8.29,8.29,0,0,1-10.85,1.83,17.23,17.23,0,0,1-7.69-18c.75-3.41,2.64-6.67,1.58-10.36,1.16-2.32,3.51-3.54,5.12-5.45a11.13,11.13,0,0,0,2.47-3.75c.36-1.19.18-2.06-1.38-1.8-1.35.21-3,.83-3.36-1.18-.29-1.79-.34-3.81,2.14-4.41,4.27,1.2,7.38,4.53,11.37,6.24a4.4,4.4,0,0,1,1.37,3.78,4.94,4.94,0,0,1-1.74,2.85c-4.8,4.2-5,9.48-3,14.85,1.7,4.56,7.91,7.29,13.94,6.85,9,1.17,11.63-.24,15.69-8.43.55-1.11.82-2.44,2-3.12C877.84,572.75,888.3,578.75,898.42,585.32Z"/><path class="cls-8" d="M422.67,581.59a9.31,9.31,0,0,0-3.26-3.07c-3.43-2-5-5.4-5.66-9a7.4,7.4,0,0,0-4.16-5.49q-22.17-11.6-44.4-23c-14.82-7.6-29.7-15.06-44.52-22.64-3.36-1.71-7.06-2.78-10-5.34,1.43-2.76,4.51-3.36,6.83-4.81,4.4-2.75,8.58-6.05,13.78-7.36,5.82,1.76,10.43,5.64,15.37,8.9,11.66,7.7,23.84,14.5,36.09,21.18,8.14,4.43,16.09,9.16,24.1,13.8,3.74,2.17,7.66,4,11.39,6.13,1.89,1.1,2.81.65,2.76-1.62,0-2.79,0-5.59,0-8.38a5,5,0,0,0-2.22-4.16c-15.63-11.92-31-24.14-47.33-35.16-5.13-3.46-10.07-7.27-15-11-.87-.65-2-1.24-1.61-2.7,3.5-3.9,8.54-5.4,12.81-8.1,2.85-1.8,5.62-4.26,9.39-4.14a131.91,131.91,0,0,1,17.6,13.69c8.05,7.72,16.47,15,25.16,22,2.67,2.14,3.1,2,3.76-1.3,1.08-5.38.29-10.85.5-16.28.06-1.39-.15-2.83.47-4.12s1.42-1.25,2.05.1a159,159,0,0,1,.08,25.07c-.83,13.12-3.55,26.11-2.71,39.36a31.62,31.62,0,0,0,1,7.51c.09,5.68-1.19,11.27-1,17A3.53,3.53,0,0,1,422.67,581.59Z"/><path class="cls-9" d="M477.59,417.79c-4.43,2.46-4.09,6.87-4.49,11-.28,2.85.65,5.8-.7,8.53-.81,1.64-1.83,3-3.25.46s-1.6,0-2.26.54c-1.64,4.72-5.55,6.86-9.93,7.9-6.78,1.61-13.55,1.48-20.09-1.48-4.08-1.84-5.21-1-5.37,3.45a52.76,52.76,0,0,0,.16,7.22c.47,4.6.31,4.78-4.39,5.54-.5.09-1,.25-1.48.34a17.88,17.88,0,0,1-7.73-.55c-4.32-1.95-5-3.24-3.7-7-1.48-9.84-.66-19.74-.73-29.61-.08-11.63,2.86-22.45,9.8-32,2.79-3.83,6.05-7.15,10.9-8.24,2.17-.48,3.47-2,4.86-3.45,1.59-1.65,3.14-2,4.93-.3s3.75,2,6.28,1.54c3.7-.75,7.47-1,10,3.12a9.45,9.45,0,0,0,4.32,3.6c6.05,2.42,5.64,8.43,7.53,13.08,1.54,3.81.65,8,.88,12.05C473.35,418.27,473.91,418.72,477.59,417.79Z"/><path class="cls-10" d="M354.82,487.81c8.23,6.86,17.21,12.71,25.87,19,12,8.67,23.62,17.85,35.6,26.52,4.75,3.44,6,7.13,5.71,12.62-.49,7.79-.18,7.89-7.07,4.1-21.85-12-43.63-24.08-65-36.92-6.37-3.83-12.43-8.17-18.63-12.27C339.13,496.47,346.73,491.7,354.82,487.81Z"/><path class="cls-11" d="M380.25,226.68c-.55,5.5-3.34,11-6,16.4-.8,1.6-2.91,2.41-5.28,2.09-5.59-.76-10.35-3.86-15.78-5.06-5-1.1-9.69-3.3-14.7-4.57-7.63-2-15.06-4.73-22.61-7-5-1.53-10.18-2.73-15.22-4.23-5.27-1.57-10.5-3.28-15.72-5-2.91-1-4.2-3.52-5.15-6.08-1.17-3.2,1.77-4.05,3.69-4.66a10.68,10.68,0,0,1,6.38,0c6.28,2.27,13.06,1.27,19.25,3,7.43,2.12,15.19.84,22.57,3.34,3.19,1.08,7,.61,10.5,1a212.61,212.61,0,0,0,28.44.83c3.34-.13,5.74,1.84,8.29,3.24C381.09,221.12,379.74,223.88,380.25,226.68Z"/><path class="cls-12" d="M522.66,62c-.57-13.68-1-27.35-1-41,0-3.86,2.56-4.57,4.9-5.81s4.49.1,5.74,1.71c1.72,2.22.83,5.38,1.72,8,2,5.82,1.74,12,3.35,18,1.4,5.17.91,10.82,2.05,16.08,1.76,8,2,16.29,4.06,24.33,2.18,8.53,3.27,17.48,1,26.24a58.91,58.91,0,0,1-3.59,9c-1.26,2.78-3.87,2.7-6.52,1.29-3.39-1.8-4.95-5.05-6.29-8.21-2.06-4.83-3.57-9.8-3.36-15.3.22-6,.5-12.35-1-18.1C522.38,72.68,523.15,67.38,522.66,62Z"/><path class="cls-12" d="M793.89,253c-13.16.83-23.61.75-33.79,2.06-14.47,1.86-28.89,1.87-43.36,2-2,0-3.69-.21-5.12-1.84-1.59-1.82-2.9-4-2.1-6.15s3.31-2.43,5.68-2.75c7.3-1,14.7-.79,22-2.71,5.52-1.47,11.48-1.23,17.24-1.83,7.46-.78,14.87-1.94,22.38-2.51,8.64-.66,17.18-2.48,26-2.08a137.92,137.92,0,0,0,17.49-.05c5.16-.43,9.83,1.92,14.89,1.84,1,0,2.68.18,2.85,1.94.15,1.49-1.08,1.86-2.06,2.38-5.28,2.82-11.26,3.3-16.87,5C809.9,251.14,800.36,251.48,793.89,253Z"/><path class="cls-13" d="M414.36,453.68c-.29,3.05.72,5.28,3.89,6.15.58,1.34.22,2.74.18,4.1-.17,5.39,1.7,9.57,6.84,11.89a2.5,2.5,0,0,1,1.09,1c.89,2.35.31,4.81.57,7.21,0,1.61.17,3.28-1.23,4.51-1.26,2-.6,4.19-.7,6.3-.34,6.64.94,13.42-1.87,20-6.56-4.46-12.32-9.92-18.4-15-8.12-6.76-15.05-14.9-24.19-20.48a9.37,9.37,0,0,1-3.52-3.89c3.2-3.59,7.75-5.1,11.73-7.44C397.19,463.16,405.81,458.48,414.36,453.68Z"/><path class="cls-14" d="M228.21,531.91c1.61-2.38,4.13-3.66,6.4-5.23,1-1.52,2.57-1.6,4.19-1.39,1.62.59,3.34-.12,5,.34,1.5.78,2.24,2.19,3,3.57a116.74,116.74,0,0,1,9.45,34.22c.2,1.52.89,2.9,1.06,4.42-.4,3.33-2.47,4.69-5.62,4.75-4.28-2.44-8.27-4.89-9.28-10.53-.58-3.29-1.68-6.84-5.32-9.77a51.32,51.32,0,0,1,.51,6.94,7.93,7.93,0,0,0,3.54,6.42A43.41,43.41,0,0,1,246,569.3c2.83,2.67,2.69,3.91-.58,6a6.44,6.44,0,0,0-1.13,1c-2.13,1.58-4.52,2.93-5.49,5.65a2.75,2.75,0,0,1-3.26-1.67c-1.11-3.47-4.26-5.25-6.56-7.69a28.81,28.81,0,0,1-6.43-9.69c-1.87-5-.81-9.9-.38-14.86C222.67,542.08,226.09,537.24,228.21,531.91Z"/><path class="cls-15" d="M311.64,549.54l-.18,2.37a5.09,5.09,0,0,1-3.95,1c-9.24-.44-18.5-.75-27-5.12-1.23-.63-3-2.15-4.17.29-.68,3.39-.92,6.74.83,9.93a16.8,16.8,0,0,0,.06,2.66c.79,4.8-.56,8.41-5.43,10.16-.26.55-.48,1.13-1.21,1.22-1.65-.06-3.36.06-4.56-1.44-.83-1.79-.47-3.72-.61-5.59-.86-11.8-1.58-23.61-5.44-34.95a16.46,16.46,0,0,0-2.68-5.38,1.32,1.32,0,0,1,.11-1.26c2.74-2.11,5.9-1.62,9-1.44,1.85.51,3.89.28,5.61,1.38,4,.3,6.29,3.3,9,5.7a3.54,3.54,0,0,0,.16.34c3.75,7,9.77,8.92,17.31,8,3.06-.35,6.23.15,9.36.44,3.58.33,4.07,2,3.83,4.81A6,6,0,0,1,311.64,549.54Z"/><path class="cls-12" d="M732,93.24c-.89,2.85-3.16,4.6-5.25,6.39-7.78,6.66-15.54,13.32-23.18,20.13-4.79,4.27-10.11,7.95-15.28,11.78-5.66,4.2-11.42,8.27-17.15,12.38-2.64,1.9-5.34,3.73-7.94,5.69a1.65,1.65,0,0,1-2.61-.28c-1-1.18-2.8-1.92-2.12-4.06a17.2,17.2,0,0,1,4.56-6.87c10.72-10.7,22-20.82,34.75-29,7.51-4.83,15.24-9.35,23-13.74,2.82-1.58,6.08-2.37,9.14-3.52C731.09,91.69,732,91.68,732,93.24Z"/><path class="cls-16" d="M794.72,525.12c4.37.75,7.31,4.19,11.16,6,5.62,2.65,10.79,6.26,16.15,9.47.88,1.57,0,2.08-1.38,2.37-7-4.53-6.82-4.32-13,1.32-14.28,13.13-28.28,26.52-41.82,40.4-.66.67-1.27,1.89-2.44,1.29-1-.51-.92-1.73-1-2.73-.06-2-.06-4.06-.09-6.09.56-3.3.63-6.65,1-10,.58-2.32,2.24-3.89,3.83-5.53,9.67-10,20.33-18.91,30.68-28.17,2.8-2.51,2.8-2.5-.25-4.94C796.43,527.63,794.39,527.33,794.72,525.12Z"/><path class="cls-17" d="M272,523.39c-2,.51-3.89.72-5.55-.82-1.91-3-.82-6.34-.91-9.54,1.16-5.31,0-10.14-3.09-15.28-3.61,8.24-8.55,13.49-18.51,10.36,4,3.42,3.46,7.37,2.65,11.37-.36,1.3-.21,2.67-.5,4s-.56,2.7-2.42,2.58c-1.52-.13-3.09,1.48-4.57-.12a18.58,18.58,0,0,1-5.31-4.22c-4.57-5-5.4-6.25-1-12.58a153.64,153.64,0,0,0,9.14-15.64c4-7.53,12.91-9.24,19.21-4.23.9.72,1.41,2.29,3.05,1.8a13.14,13.14,0,0,0,4.34,4.88c2.85,1.71,3.37,4.8,3.36,8,0,4.09-.33,8,2.93,11.59C277.81,518.78,273.67,521,272,523.39Z"/><path class="cls-18" d="M444.8,137c-4.18-1.14-7.08-4-9.9-6.4-11.66-9.85-23.66-19.37-34-30.68-4.86-5.32-9.52-10.82-14.05-16.41-1.62-2-3.79-5.06-1.59-7.13,2.35-2.2,4.94,0,7.11,2.08,5.77,5.49,11.33,11.34,17.74,16,9.48,6.87,16.21,16.13,23.81,24.68,3.1,3.49,5.73,7.29,8.51,11A11.22,11.22,0,0,1,444.8,137Z"/><path class="cls-19" d="M686.41,461.34c-3.21,2.77-6.29,2.16-9.47-.18-4.33-3.19-9.42-5.28-13.3-9.15-1.27-1.26-2.07-2.52-1.49-4.33,3.46-3.78,8-6.17,12.27-8.77,2.52-1.53,5.59-2.28,8.62-.46,4.18,2.52,8.26,5.54,13.66,3.84.23-.07.61.35.92.54-1.74,1.06-2.41,1.78-.25,3.52,4.43,3.57,4.28,4.63-.17,7.93a9.22,9.22,0,0,0-3.05,3.28C691,457.63,689.52,461.16,686.41,461.34Z"/><path class="cls-20" d="M867.15,567.16a19.49,19.49,0,0,1-4.42,9.08c-3.65,4.11-8.32,4.66-13.39,3.16-.38-.49-1-.74-1.34-1.24a4.77,4.77,0,0,1-.09-5c1.89-3.54.87-6.37-1.42-9.35-4-5.22-2.81-11.33-2.37-17.27h0a13.78,13.78,0,0,1,8.52,0C863,548.74,869.88,556.1,867.15,567.16Z"/><path class="cls-21" d="M794.72,525.12a38.57,38.57,0,0,0,5,3.89c2.9,1.61,1.85,2.71,0,4.28-11.39,9.58-22.5,19.47-33,30a28,28,0,0,0-2.3,3,2.19,2.19,0,0,1-1.26-2.15c0-4.49-.89-8.94-.68-13.44,2.33-4.82,6.72-7.87,10.4-11.45,4.64-4.51,9.46-8.83,14.09-13.35,1.9-1.85,4-3.82,6.92-1.5Z"/><path class="cls-22" d="M769.41,522.92c-1.06,1.5-1.09,3.3-1.44,5-.38,1.86-.74,4.5-2.83,4.2-1.82-.26-3.68-2.23-4-4.59-.44-3.31.35-6.56,1.16-9.71a70.27,70.27,0,0,0,1.55-22.8c-.53-7.36-3.75-14-5.45-21.06a14.17,14.17,0,0,1,.28-8.59c.37-.94.89-2.09,2-2.08,1.32,0,1.1,1.46,1.48,2.33,1,2.26-.45,5.22,2.06,7,2.06,5.64,5.2,10.71,8.06,16,2.17,4,1.68,8.53,1.06,12.92-.47,3.33-1,6.64-1.51,10C772.81,515.67,771.64,519.41,769.41,522.92Z"/><path class="cls-16" d="M769.41,522.92q1.22-5.71,2.41-11.43,11.05,6.45,22.09,12.92c-2.95-1.36-4.69.71-6.47,2.4-7.35,7-14.64,14-22,21-.63.6-1.34,1.14-2,1.7-2.27-5.4-1.62-10.63.91-15.76,4.07-.45,4.17-3.84,4.83-6.71A23.52,23.52,0,0,0,769.41,522.92Z"/><path class="cls-23" d="M754.65,427.87c-9.63,5.86-20.11-.17-21.49-9.6a12.29,12.29,0,0,1,3-10.5c2.8-2.14,6.14-2.27,9.36-2s4.87,2.64,5.06,5.73c.18,2.79,1.47,3.49,3.94,2.79,4.67,1.18,6,4.73,2.52,7.75A6.22,6.22,0,0,0,754.65,427.87Z"/><path class="cls-24" d="M754.85,414.77c-4.59,2.2-4.93,2-5.22-2.77-.24-4.05-2.37-5.85-6.44-5.33-2.36.3-4.7.73-7,1.1-2.95-2.34-2-4,.49-6.25,4-3.52,8.66-4.17,13.64-4,1.9.05,3.36.22,4.24-2.38,1.14-3.38,5.46-3.92,9.8-1.8a7.22,7.22,0,0,0,.29,3.74c.64,2.07.61,4.05-1.37,5.45s-3.18-.42-4.73-1.1c3.41,2.27,4.39,5.21,3.35,9.19-.57,2.17-1.4,3.41-3.65,3.58A13.33,13.33,0,0,0,754.85,414.77Z"/><path class="cls-25" d="M451.58,355.4a128.32,128.32,0,0,1,9.85,14.31c-4.6,6.63-13.8,10-21.92,3.1a10.38,10.38,0,0,1-2.1-4.79c-.55-2.34.07-4.4,2.64-5.06a7.61,7.61,0,0,0,4.39-3.28C446.18,357.29,448.33,355.37,451.58,355.4Z"/><path class="cls-26" d="M451.58,355.4c-3.15,1.64-6.31,3.26-7.62,6.91-.5,1.38-1.65,1.3-2.8,1.45-2.79.38-3.86,2.2-2.66,4.73.67,1.41,1.34,2.72,1,4.32-3.94-.36-5.12-4.41-5.7-6.57-1.67-6.23-3.43-13,1.73-18.89a18,18,0,0,1,7-5Z"/><path class="cls-27" d="M264.19,491.05c-.62,2.34-1.56.78-2.31.14-1.72-1.48-3.38-2.91-5.78-3.32-6.14-1-10.55.82-13.3,6.39a173,173,0,0,1-10.71,18c-2.18,3.33-.52,5.59,1.59,8,1.73,2,4.08,3.32,5.43,5.64l-4.5.76c-1.61-1.74-3.76-2.83-5.27-4.75-4.34-5.54-2.66-11,1-15.57s5.53-9.52,7.35-14.68c2.31-6.53,7.58-7.95,13.42-8.38A13.27,13.27,0,0,1,264.19,491.05Z"/><path class="cls-28" d="M789.47,446.79c.62-5.27-3.25-6.64-8.57-6.21.31-3-1.87-5.35-1.82-8.3,0-2.8.58-4.88,4-4.42,1.42.19,1.86-.57,2.58-1.59,1.38-1.95,3.09-3.68,5.7-4s4.74.26,5.77,2.89c1.4,3.6,1.35,7.18-1.09,10.33-1.69,2.17-2.9,4.75-5.26,6.4C789,443.14,791.88,445.68,789.47,446.79Z"/><path class="cls-29" d="M754.85,414.77a1.86,1.86,0,0,1,1.47-1.51c1.58-.32,4.19.89,4.42-1.61.25-2.81,2.16-6.15-1.57-8.46a5.57,5.57,0,0,1-2.83-3.35c1.29-.6,2.19-.09,3.15.67s1.58,2.71,3.35,1.33,1.53-3,.83-4.79c-.49-1.28-2.42-3,.65-3.74,6.29,4.57,6.8,8.7,1.52,14.16-1.2,1.24-.59,2.31-.49,3.46a25.55,25.55,0,0,1-3.28,14.79c-1.78,3.21-4.42,3.86-7.41,2.16-1.86-2.35-2-4.05,1-5.92C759.34,419.64,758.86,416.83,754.85,414.77Z"/><path class="cls-30" d="M820.53,542.68a2,2,0,0,0,1.5-2.08c2.57,0,4.91.4,5.46,3.54-.45.89-.92,1.76-1.34,2.66a2,2,0,0,0,0,2.16c.66.87,1.35,0,2-.16,1.07-.34,2.12-1.06,3.17,0s.2,2.28-.23,3.14a16.83,16.83,0,0,1-8.28,8.37c-1.47.44-2.52-.72-3.82-1-5.56-1-6.16-1.9-4.92-7.49a21.16,21.16,0,0,1,3.13-7.2C817.94,543.5,818.86,542.38,820.53,542.68Z"/><path class="cls-31" d="M228.21,531.91c1.45,2.5-.7,4.26-1.67,5.91-3.91,6.66-4.15,14-4,21.26A16.41,16.41,0,0,0,227.84,570c2.53,2.47,4.95,5.07,7.61,7.38,1.14,1,1.31,1.67.52,2.78a2.68,2.68,0,0,1-2.74,1.39c-2.48-2.76-5.69-4.69-8.15-7.51-2.79-3.2-4.3-6.94-5.69-10.81-.7-8.83-.44-17.5,4.15-25.48A22.52,22.52,0,0,1,228.21,531.91Z"/><path class="cls-32" d="M844.12,546.49c.9,4,.82,8,.84,12,0,2.91,2.34,4.68,3.87,6.72,1.76,2.35,1.95,4.51.6,6.93a6.93,6.93,0,0,0-.67,6.41c-2.94.84-5.36-.35-7.36-3.5-1.5-2.35-.16-3.63,1.52-5.08s1.39-2.83-1-2.89c-2.9-.06-3.76-1.74-2.93-4a18.78,18.78,0,0,0,.68-8.88c-.28-1.28-.55-2.55-.82-3.83C840.18,548.5,841.56,546.7,844.12,546.49Z"/><path class="cls-33" d="M693.87,457.29c-.44-.74-1.15-1.51,0-2.23.85-.54,1.79-.93,2.6-1.51,4.17-3.06,4.13-3.91-.15-7.14-1.06-.8-3.15-1.27-2.69-2.73.55-1.72,2.65-.47,4-.85,3.49,2.75,6.77,5.91,11.61,6.08-5.06.37-6.94,3.51-5.33,8.92C700.5,458.75,697.05,460.54,693.87,457.29Z"/><path class="cls-32" d="M852.64,546.48l-8.52,0C847,544.77,849.8,544.52,852.64,546.48Z"/><path class="cls-34" d="M431,846.7c-2.88-1-5.4.6-7.89,1.43-13.28,4.45-26.09,10.16-39.35,14.72-14.31,4.92-28.41,10.47-42.59,15.78a5,5,0,0,1-4.63-.74c-10.12-6.14-20.21-12.33-30.39-18.37s-20.63-12-30.88-18.08c-6.28-3.75-12.33-7.91-18.64-11.6-7.15-4.18-14.39-8.2-21.38-12.66-6.59-4.2-13.5-7.9-20.22-11.89-8.77-5.2-17.5-10.48-26.24-15.73-9.25-5.56-18.43-11.24-27.76-16.66-8.48-4.93-16.57-10.52-25.35-15a19.68,19.68,0,0,1-2.87-2.24c9-2.8,17.43-6.52,26.08-9.62,8.47-3.05,17.17-5.42,25.92-7.64,12.21-3.09,24.45-6.11,36.62-9.4,9.05-2.44,18.25-4.5,27.44-6.47.63-.13,1.25-.17,1.64-.76,1.52-1.5,3.23-.65,4.92-.48a11.65,11.65,0,0,0,4.81-.19c1.93-1,2.37-2.5,1.65-4.46-.35-1-.74-1.93,0-2.89,2.56-1.76,5.64-2.08,8.5-2.77,3.82-.92,6.72-2.55,8.21-6.28,1.85-1.12,3.92-.63,5.9-.8,1.35-.11,2.86.22,3.58-1.43.14-3.52-2.41-4.84-5.05-5.74-4.6-1.56-8.62-3.6-11.85-7.55-2.16-2.64-5.67-1.92-8.71-.66-1.32,1.21-.93,3.62-3,4.32a10.17,10.17,0,0,1-3.38.39c-4.08-.08-5.09-1-5.13-5.21-.1-8.95,0-17.91-.07-26.86,1.35-16.1-.18-32.47,3.92-48.63a3.54,3.54,0,0,1,2.1,3.67c-.71,17.13,3.21,34,2.41,51.18-.19,4.16-.88,8.27-.15,12.5.53,3.07,1.95,4.2,4.84,3.88a37.2,37.2,0,0,0,8.52-1.88,3.33,3.33,0,0,0,2.46-3.73c-.77-15.94-1.54-31.87-1.3-47.84a62.31,62.31,0,0,0-.52-8c-.25-2.22-.78-4.57,1-6.52a20.68,20.68,0,0,1,1.44,8.79c-.39,13.69,1.26,27.32.86,41a11.63,11.63,0,0,0,1.27,4.7c5.43,13.82,12.85,26.61,20.81,39.07a174.62,174.62,0,0,0,15.29,20.63c5.21,6,10.81,11.64,15.55,18.07,3.68,5,9.25,8.16,13.83,12.33a244.09,244.09,0,0,0,23.69,19.42c13.45,9.44,27.13,18.51,41.66,26.23A220.55,220.55,0,0,0,429.05,816a12,12,0,0,0,5.15,1c1.63,1.82,1.11,4.06,1.12,6.16,0,2.9.25,5.8.05,8.71a13.49,13.49,0,0,0-2.54,8.06C432.81,842.24,432.75,844.75,431,846.7Z"/><path class="cls-35" d="M466.87,624.05c7.14-3.12,14.67-4.92,22.21-6.77,13.32-3.27,26.81-4.57,40.49-5.5a220.58,220.58,0,0,1,90.18,12.9c6.34,2.31,12.61,4.74,18.78,7.45a18.94,18.94,0,0,1,3.59,2.75c7.14,5.58,14.21,11.16,19.25,19,4.29,6.66,4.74,13.29,3.16,21-2.24,11-9.42,18.38-16.42,26.11a4,4,0,0,1-2.73,1.16c-1.91.18-2.24-1.25-2.52-2.58a5.15,5.15,0,0,0-1.28-3c-1.24-1.55-1.3-3.55-2.06-5.29s-1.83-2.91-3.73-2.68c-2.07.26-2.9,1.85-3.14,3.77s.28,3.78.52,5.67a5.23,5.23,0,0,1,0,2.64c-1.39,3.41-1.2,6.12,2.79,7.53.46.16.59.78.68,1.3-.19,2.19-1.82,3.25-3.42,4.29A80.83,80.83,0,0,1,607.53,725a271.11,271.11,0,0,1-31.33,5.94c-5.83.67-11.66.32-17.49.35-9.12,0-18.3.63-27.34-.83-10.86-1.75-21.77-3.34-32.31-6.69a99.73,99.73,0,0,1-13.92-5.05c-1.91-1.68-1.82-4.12-2.14-6.28-.79-5.36-1-10.8-2.42-16.06a4.18,4.18,0,0,1,.15-2.24c3.17-2.6,2.48-5.72,2.2-9.41-1-13.71-10-20.53-20.78-26.39-2.87-1.57-5.47.59-8.12-.35a5.89,5.89,0,0,1,2.47-5.89c4.67-.66,7.77-3.55,10.23-7.32,3.18-5.56,2.81-11.33,1-17.17C467.33,626.42,466.22,625.44,466.87,624.05Z"/><path class="cls-36" d="M818.21,763c.37,2.91,3.14,3.33,5,4.53,8,5.2,16.8,9.1,25.34,13.34q15.08,7.5,29.63,15.87c4.47,2.59,9.08,4.95,13.64,7.38.67.35,1.52.52,1.48,1.46s-.92.69-1.43,1c-12,7.08-24,14.23-36.06,21.22-9.43,5.46-19,10.64-28.45,16.09-11.46,6.6-22.85,13.34-34.26,20q-6.51,3.81-13,7.68c-2.75,1.64-4.81,1.63-7.7-.67-5-4-10.67-7.13-16.2-10.39a261.05,261.05,0,0,1-30.66-20.92,17.55,17.55,0,0,1-4.88-5.67c-2.35-.93-2.51-2.92-2.45-5,3.17-3.82,1.39-8.09,1.12-12.24-.16-2.67-1.57-5.32-.14-8,6.28.65,10.72-3.55,15.48-6.36,10.52-6.21,21.18-12.32,30.64-20.15,5.33-4.42,10.45-9.14,15.36-14,9.81-9.82,20.23-19.12,27.9-30.87,2.55-3.9,4.74-8,7.88-11.52.9-1,1-3.41,3.08-2.69,1.91.66,2.08,2.35,1.88,4.35-.25,2.4-.87,5.21,2.19,6.64a3,3,0,0,1,1,2.1c.12,2.94.12,5.91,1.75,8.55,1,1.34,2.7,1.85,3.81,3.08a4.49,4.49,0,0,1,.72,3.3,8.63,8.63,0,0,1-8,3.25,50.84,50.84,0,0,0-6.41-.19c-1.1,0-2.43-.12-2.87,1.25s.47,2.12,1.21,3C816.06,759.75,818.33,760.48,818.21,763Z"/><path class="cls-37" d="M436.46,777.64c-4.48-2.17-5.27-5.81-5.35-10.56-.2-12-1-24-1.78-35.93a51.5,51.5,0,0,1,4.11-24.67,23.25,23.25,0,0,0,.9-3.25c-.34-1.53.2-3,.32-4.52.33-4.32,1-4.71,5.24-3.56a11.84,11.84,0,0,0,4,1.05c5.14.28,6.7-1.06,6.65-6.13-.08-8.43-1.21-16.88.69-25.26.3-1.34.27-2.78,1.28-3.89,2.38-1.68,4.85-1.34,7.1.1,9.47,6.05,16.65,13.91,19.44,25.14a9,9,0,0,0,1,3.25c1.39,2,1.15,3.76-.25,5.56a4,4,0,0,1-.89.84c-2.25,1.15-4.52,2.23-7.13,1.17a4.4,4.4,0,0,1-1.75-1.52c.42,4.43.76,9.22.8,13.91.06,6.64,2.12,12.62,3.94,18.77,1.17,4,2.67,8,.67,12.13a2.87,2.87,0,0,1-1,.53c-5.51,1.36-5.51,1.36-5.67,7.24-.19,6.52-.48,13,1.45,19.4.29,4.13-.08,8.28.42,12.42.44,3.63-1.72,5.54-4.87,6.63-4,1.08-8,1.6-12,.14a31.55,31.55,0,0,1-3.87-1.55c-1.65-.91-3.7-.5-5.3-1.58C442.08,781.29,438.12,781.05,436.46,777.64Z"/><path class="cls-38" d="M425.84,484.1l0-7.63a22.28,22.28,0,0,1,0-16.13,8.91,8.91,0,0,1,2.17-.48c2.86.07,3.22-1.08,2.68-3.78a26.54,26.54,0,0,1,.17-12c.52-1.93,1.37-2.32,3.28-1.63,4.32,1.55,8.44,3.65,13.26,3.8,7.77.23,14.47-1.68,19.5-7.94a2.3,2.3,0,0,1,1.59,2.25,42.91,42.91,0,0,1-.7,17c0,10-.24,20,0,30,.41,19.22-1.38,38.4-.82,57.6.11,3.8-2.35,3.36-4.57,3.75-1.37,2.26-3.47,1.69-5.5,1.43-5.74-1.86-7.1-3.56-7-9.61.1-8.59.48-17.24.24-25.78-.26-9.55,1.2-19.14-.49-28.29-1.31,5.32.25,11.2-1,16.9-2,2.84-.78,6.17-1.4,9.23-1.15,5.69-.91,11.58-2.37,17.24a3.3,3.3,0,0,0,.72,2.8c.71-1.44.34-2.85.74-4.07.29-.91.09-2.56,2-1.8,1.67,4.94.6,10,.77,15,.11,3.35.34,6.56,2.3,9.41.5,3,1.4,5.92-.25,8.82l-9.2-7.09c-.57-.44-1.12-1.29-1.9-.74a2.32,2.32,0,0,0-.47,1.69c.12,2.89-1,5.14-2.54,7.6-1.09,1.78-.46,4.62-.6,7-2.92-1.47-1-4.75-2.57-6.75-1-1.39-2.74-1.15-4.08-1.8-1.95-1-4.05-1.8-4.15-4.43-.14-4.29-.53-8.57.64-12.84,1.31-4.79,1.29-9.83,1.31-14.7,0-7.77,1.89-15.29,2.16-23,.42-12,.44-24.06,0-36.09a12,12,0,0,0-1.16-5c-1.26,4.09-.54,7.61-.72,11.06-.1,1.9.11,3.81-.11,5.7C427.51,482.11,427.79,483.76,425.84,484.1Z"/><path class="cls-39" d="M274.18,615.87c1.38,13.61,0,27.31,1.3,40.94.52,5.66.24,11.39.33,17.09,0,1.14-.3,2.51.21,3.37,2.12,3.53-.06,4.73-2.79,5.83-4,1.64-8.28,1.9-12.55,2a2.22,2.22,0,0,1-2.41-2.36c.05-3.66-.95-7.2-.56-10.95.82-7.8.07-15.61-.41-23.45-.59-9.7-1.83-19.39-1.42-29.15a30.86,30.86,0,0,0-.24-5.51c-3.11,15.56-2.06,31.42-3.71,47.08-.6,9.68-.17,19.37-.25,29.05-.05,5.2-.71,6.13-6,7.12-.62.12-1.23.26-1.84.44-2.34.31-4.71.92-6.87-.67l-2.34-.9c-2.18-2.17-2.37-5-2.14-7.72.66-7.82.31-15.65.57-23.48,2.42.71,1.8,2.82,1.84,4.42.16,6,0,11.92.09,17.88,0,1.84-.19,3.83,1.56,5.33.9-.83.58-1.87.58-2.78q0-49.82,0-99.64a14.42,14.42,0,0,0,0-2.28c-.17-1,.26-2.68-1.36-2.65-1.46,0-1.32,1.63-1.5,2.69-1.24,7-.65,14.17-.83,21.26,0,2,.47,4.12-1.3,5.71a61,61,0,0,1,.19-31.39,6.77,6.77,0,0,1,.94-1.61c.93-.45,1.49-1.6,2.74-1.4a3.66,3.66,0,0,0,2.78,1.21c1.72.73,1.46,2.47,1.82,3.83.82,3,1,6.23,1.83,9.28a9.54,9.54,0,0,0,1.67,3.78c.87,1,1.89,1.8,3.26.94a2.3,2.3,0,0,0,.85-3c-.17-.48-.44-.91-.64-1.37-1.85-4.39-.66-6.08,4-5.74-3-3.49-5.72-7.06-5.56-12a12.93,12.93,0,0,1,5.34-5.25c2.75.08,4.33-1.43,5.23-3.85,1.82-1.79,4-1.19,6.19-1,2.21.31,2.65,2.43,3.85,3.77,1.46.3,3.12-.31,4.34,1,1.54,1.37,1.19,3.2,1.27,5,.5,11.09.16,22.23,1.83,33.25C274.11,611.91,274.14,613.89,274.18,615.87Z"/><path class="cls-40" d="M719.18,808.6c.66,4.84,1.81,9.59,2.05,14.5.12,2.64-.37,4.76-2.86,6-4.51,3.21-10.33,2.32-12.89-2-.11-8.88-3.19-17.08-5.82-25.38-1.39-4.39-1.68-9-2.26-13,.31,8.82,4.05,17.47,5.16,26.64.43,3.58-.23,7.21.46,10.78a8.11,8.11,0,0,1,.31,1.27c-.1,3.51,1.15,7,.36,10.51a9.58,9.58,0,0,1-10.2,3.86c-2.78-.83-2.86-3.05-2.34-5.23a38.19,38.19,0,0,0-.39-17.35c-1.29-5.69-2-11.51-3.58-17.1-2.16-8-2.34-16.08-2.58-24.12-.46-15.59-.15-31.2-.12-46.79,0-2-.21-4.11,1.39-5.75,4.51-1,9.24-.19,13.74-1.74,2.84-1,5.95-1.12,8.8-2.22,1.08-.42,2.2-.69,3.19.25,5.78,5.18,6.48,11.94,5.61,19-1.23,10.09-5.21,19.72-5.5,29.95C711.34,783.91,715.1,796.3,719.18,808.6Z"/><path class="cls-41" d="M453.69,660.75c-2.18,6.15-2.56,12.55-2.47,19a107.05,107.05,0,0,0,.66,11.75c.48,3.77-1.24,5.43-4.62,5.85-2.75.33-5.56.65-7.85-1.53a20.59,20.59,0,0,1-8.58-6.8c-1-1.46-2.83-2-4.53-2.41-1.48-1.17-3.19-.42-4.79-.54-5.58-.43-6.76-1.33-6.88-7.11-.17-8.47,1.87-16.27,8.18-22.45a37.54,37.54,0,0,1,3.28-3.16c4.56-3.49,4.81-7.9,3.88-13.22-1.07-6.06-1.6-12.5.75-18.33,3-7.4,9.76-9.67,17.13-10.35,2-.18,4,0,6.08,0a3.91,3.91,0,0,1,2.57,3.84c.16,5,.43,9.91-1.94,14.53a8.87,8.87,0,0,0-.79,2.53c-.26,1.57-.19,2.83,2,2.61a4.73,4.73,0,0,1,4.33,1.91c.46,1.76-1,1.77-2,2-2.7.74-2.37,2.13-.91,3.78,3.56,4,3.53,5.79-.23,9.76-2,1.23-1.27,3.81-2.64,5.35C455,659,454.47,659.89,453.69,660.75Z"/><path class="cls-42" d="M820.53,542.68c-4.08,3.06-5,7.68-6,12.23-.39,1.86.07,3.28,2.51,3,1-.1,2.07-.23,2.79.77-2.88,1.59-4,4-4.67,7.27-.81,4.19-2.9,8.08-4.45,12.09-2.29,5.92-2,11.65,3.76,15.89,4.87,3.61,10,6.9,14.28,11.36A14.75,14.75,0,0,1,833,615.53c.29,8.07,2.16,16,1.68,24.18-.19,3.41,1.79,5.23,5.27,5.77,2.2.35,4.62.08,6.56,1.59-.41,2.14-2.19,1.84-3.57,1.77a66,66,0,0,1-7.57-.55c-1.71-.12-3.53.2-4.9-1.24-.91-1.81-2.89-1.31-4.34-2-3-1.38-4.24-3.31-3.92-6.84.81-9.05,1.77-18.12,1.38-27.24-.15-3.43-2.71-5.28-5.11-7.16a132.67,132.67,0,0,1-11.93-10.55c-4-4.06-4.36-8.47-2.2-13.48.93-2.15,1.56-4.43,2.37-6.78-1.77-.1-2.53,1-3.39,1.83-12.58,12.34-26.57,23.14-38.91,35.73a5.11,5.11,0,0,1-4.47,1.51c-.81-3.65.72-7,1.56-10.37.64-2.56,1-5-.19-7.39.2-4.41.31-8.82.25-13.24,0-1.18-.38-3,1.72-3.16v7.47c5-4.86,9.9-9.41,14.56-14.18,10.54-10.8,22-20.63,32.84-31.09C813.74,537.22,817.47,538.27,820.53,542.68Z"/><path class="cls-43" d="M711.6,721.81c-4.31,1.09-8.55,2.42-13,3.28-4.15.81-8.12,1.36-12.26.55a2.11,2.11,0,0,1-2.32.17c-1.28-1.48-1-3.31-1-5,.2-4.78-.8-9.47-1-14.23-.11-3.12-1.2-3.52-4-2.1-1,.86-1.68,2.08-3,2.49-2.21.1-3.37-1.39-4.49-3a6.84,6.84,0,0,1-1.35-3,69.12,69.12,0,0,1,17.13-23.37,10.26,10.26,0,0,0,7.71-2.35c3.8-3.15,7.27-2.62,11-.21a5.18,5.18,0,0,0,1.45.41c1.32,0,1.26,1.13,1.28,1.87a12.6,12.6,0,0,0,5.79,10.78,2.47,2.47,0,0,1,1,1.56l-.32,2.47c-2.13,3-1.62,6.54-1.69,10,0,1.63.35,3.3-.33,4.89-1.54,3.34.39,6.6.34,9.94A9.31,9.31,0,0,1,711.6,721.81Z"/><path class="cls-44" d="M714.61,689.66c-5.64-3.06-8.37-7.77-8-14.21,2.23-4.17,2.34-8.65,2-14-2.48,3.88-4.17,7.51-7.74,9.58-1,.59-1.79,1.43-3,.62-3.88-3-3.73-3.55-2.51-8.23,2.19-8.37,2.91-16.75-2.7-24.35-.83-1.12-1.75-2.42-1-3.83a2.19,2.19,0,0,1,3.19-1c2.27,1.73,5.33-.37,7.57,1.57,1.14,1,2.44,1.8,3.47,2.88s2,1.26,3.05-.07c2.56-3.16,6.18-2.82,9.48-2.19,5.42,1,10.06,7.53,11.22,13,1.63,7.69-.42,14.32-3.93,20.94-2.75,5.19-3.86,10.58,0,15.93.89,1.25-1.68,4-3.94,4.37C719.21,691,716.93,690.16,714.61,689.66Z"/><path class="cls-45" d="M830.51,647.05l5.23.21a4.71,4.71,0,0,1,.86,4.3c-2.58,10.94-4.47,22-6.19,33.11a97.4,97.4,0,0,0-.9,23.46c.83,9.29,1.71,18.58,2.85,27.84a34.61,34.61,0,0,0,1.51,7.8c.5,1.36,1.64,2.89.06,4.15-1.34,1.08-2.87.61-4.24-.26a5,5,0,0,1-3.87-2.27c-1.65-2.84-1.4-6.14-2.2-9.18l0-2.25c-.73-10.81-1.46-21.6-2.64-32.38a112.7,112.7,0,0,1,1.3-32.1c1.22-6.9,4-13.5,3.77-20.71C825.9,644.89,829,647.61,830.51,647.05Z"/><path class="cls-46" d="M693.87,457.29c3.26,1.79,6.75-.8,10,.54,6.22,5.06,13.93,6.53,21.29,8.81a16.63,16.63,0,0,0,1.88.2c5.19,1.07,5.59,1.88,5.9,7.12.26,4.54-.79,8.82-1.6,13.17-5.27-1.49-9.56-4.93-14.28-7.46-9.84-5.3-19.33-11.25-29-16.94a16.2,16.2,0,0,1-1.73-1.39C688.7,459.64,690.28,456.61,693.87,457.29Z"/><path class="cls-47" d="M729.21,524.53c2.51,2,5.47,3.16,8.28,4.6,2.34.46,2.09,2.29,1.88,3.87-.8,6.26-1.57,12.5-1.83,18.82-.4,9.64-3,18.94-5,28.34-.69,3.36-1.29,6.73-.28,10.14-2,5.13-6.57,7.08-11.3,8.76-2.27.81-4.57,1.71-6.47-.75a26.08,26.08,0,0,1,7-7.35,9.46,9.46,0,0,0,4-7.67c.68-10.93,1-21.95,2.43-32.75C729.1,541.81,728.08,533.15,729.21,524.53Z"/><path class="cls-48" d="M436.46,777.64l8.47,5.17a6.66,6.66,0,0,1,1,4.34c-1.44,13.6-.46,27.24-.72,40.86-.12,6.07-.94,6.9-7.18,6.71a3.55,3.55,0,0,1-3.22-2.55c-1-5,0-10.13-.64-15.16l.07-6.7c.8-2.81-.16-5.73.54-8.54L435,798c1-4.29-.22-8.69.66-13C436,782.56,435.33,780,436.46,777.64Z"/><path class="cls-49" d="M550.85,499.93a79.64,79.64,0,0,1-20.41-.75c-9.21-1.68-18.71-2.69-27.08-7.54-.65-.38-1.51-.67-1.86-1.26-.58-1-2.26-1.75-1.22-3.22.91-1.31,2.14-.25,3.11.06,11.36,3.63,22.88,6.17,34.92,6.09,4,0,7.83,1.78,12,1.48,10.44-.74,20.84-1.77,31.15-3.54,1.21-.21,2.8-1,3.33.57.62,1.83-1.29,2.23-2.5,2.73C572,498.79,561.35,501.18,550.85,499.93Z"/><path class="cls-50" d="M549.09,514.64c-7.79-.11-13.61.22-19.38-.82a20.31,20.31,0,0,1-7.35-2.78c-.83-.52-2.11-.84-1.72-2.12a2.19,2.19,0,0,1,2.75-1.48c7.24,2,14.61.77,21.91,1,8.18.2,16.21-1.61,24.3-2.58,7.71-.92,15.37-2.19,23-3.31a1.57,1.57,0,0,1,1.68.59c.47.72-.16,1.14-.52,1.62-2,2.7-5.22,3.69-8.09,4.72-6,2.16-12,4.2-18.57,4.43S553.81,515,549.09,514.64Z"/><path class="cls-51" d="M750.49,532.34l7.47,1.38c1.19,1,1.22,2.47,1.18,3.85a107.2,107.2,0,0,0,2.52,28.24c1.21,5.08.21,10.14-.69,15.07a43.21,43.21,0,0,0-.87,10.51c.28,4.32-1.67,6.57-5.84,7.09-2.84-.76-.31-3.21-1.42-4.52l-.2-16.28c-1.14-1.22-1.11-2.77-1.08-4.26a90,90,0,0,0-.74-13.13c-.16-3.92-.06-7.83-.05-11.75a35.36,35.36,0,0,0-1-9.38C749.16,536.89,748.62,534.44,750.49,532.34Z"/><path class="cls-52" d="M694.75,634.18c-2.94.4-3.34,1.71-1.58,4,6.5,8.56,5.83,17.83,2.29,27.19-1.19,3.12,2,4,2.35,6.22-2.56.53-4.66-.69-6.8-1.8-2-.15-3.69-.9-4.27-3.07-.52-2,.36-3.43,1.76-4.7,1-.91,2.65-1.77,1.57-3.35-.91-1.34-2,.15-3,.5a2.88,2.88,0,0,1-3.78-1.69c-2.27-4.44-4.2-9-2.33-14.16C682,636.88,687.67,632.32,694.75,634.18Z"/><path class="cls-53" d="M545.16,474.53c-9.6-1.14-19.32-1.74-28.78-3.62-6-1.21-12.3-2.83-17.5-6.69a14.74,14.74,0,0,1-2.49-2.31,1.83,1.83,0,0,1-.07-2.45c.6-.72,1.4-.39,2.07,0,7.33,4.18,15.52,5.64,23.58,7.56,3.11.74,6.28.34,9.43.68,5,.53,9.94,1.66,14.85,1.7,5.7,0,11.44-1.36,17.12-2.36,4.94-.87,9.83-2,14.74-3.11,1.2-.26,2.89-1.11,3.38.25.56,1.59-1.31,2.22-2.53,2.75a75.89,75.89,0,0,1-19.55,5.75C554.69,473.35,550.08,475.06,545.16,474.53Z"/><path class="cls-54" d="M544.34,460.55a81.47,81.47,0,0,1-23.5-3.14,7.29,7.29,0,0,1-2.11-.82c-1.47-1-3.46-2-2.85-4,.75-2.49,2.72-.76,4.14-.51,10,1.73,19.9,3.37,30.05,1.77,10.86-1.71,21.8-1.83,32.76-1.72.92,0,2.34-.51,2.6.82s-1.16,1.59-2,2c-4.87,2.21-10.11,3.1-15.31,4C560.25,460.16,552.28,460.17,544.34,460.55Z"/><path class="cls-55" d="M498.91,433.87c3.91-.56,6.72,2.19,9.92,3.54,6.43,2.7,13.21,3.47,19.91,4.74,2.22.42,4.49.59,6.74.87,1.38-.08,2.71.49,4.1.38,6.69-.32,13.4.41,20-.73a4,4,0,0,1,2.55.28c10.84,0,21.47-1.24,31.46-5.8,2.18-1,4.79,1.33,6.7-1-.36,2.21-1.75,2.64-3.61,2-1.2-.43-2.29-.61-3,.62-3.1,5.41-8.56,6.45-13.93,7.19-13.48,1.87-27.06,3.16-40.65,2.27-14.45-.94-28.46-3.85-40-13.59C499,434.45,499,434.11,498.91,433.87Z"/><path class="cls-56" d="M457,549.59c1.86.23,3.72.44,5.4-.69,1.5,4.25,5.69,4.06,8.95,5.08a16.86,16.86,0,0,1,8.85,6.07,4,4,0,0,1,.15,5.23,4.87,4.87,0,0,1-4.82,2.08c-6.33-1.45-12.83-2-19.05-3.93a10.84,10.84,0,0,1-5.39-3.21c0-2.78-.77-5.54-.19-8.33C451.53,547.49,454.6,549.48,457,549.59Z"/><path class="cls-52" d="M435,561.65c1.35,2.17.32,4.79,1.34,7,1,4.24,2.27,8.44,2.86,12.74.36,2.59-2.76,3.47-4.29,3.71-4.43.69-9.18,1.12-12.24-3.52a82.45,82.45,0,0,1,1.71-19.76c.36-2.46,2.23-3,3.83-2C430.38,561.28,432.71,561.19,435,561.65Z"/><path class="cls-54" d="M545.71,487.18c-6.75-.1-13.08.28-19.38-.74-2-.32-4-1.05-3.93-2.8,0-2,2.33-1.84,4-1.84,5.46,0,10.92,0,16.38,0,9.73-.08,19.36-1.91,29.12-1.62,1.9.06,3.3-1.9,5.39-1.44,1.07.23,2.52-.2,2.76,1.32.18,1.12-.94,1.93-1.77,2.22-4.26,1.5-8.33,3.5-12.9,4.14C558.69,487.36,552,487.1,545.71,487.18Z"/><path class="cls-57" d="M751.74,560.36c1.52,5.71.93,11.53.9,17.32-4.9,3-8.13,7.82-12.41,11.49-.89.76-1.32,2.77-3.23,1.66a5.06,5.06,0,0,1-3.82-3.45c1.44-5,1.36-10.35,4.08-15,3.91-2,6.13-5.81,9.4-8.49C748.26,562.62,749.18,560.31,751.74,560.36Z"/><path class="cls-58" d="M311.64,549.54c0-2.27,0-4.54,0-6.82,3.89-3.22,8.82-3.86,13.43-5.18,1.76-.5,3.67-1.21,5.88-.44,3,1,2.83,2.42,1.22,4.35a15.54,15.54,0,0,1-5.72,4.23c-2,.89-2.23,1.6-.78,3.25,1.87,2.11.46,2.89-1.59,3C319.76,552.06,315.51,551.76,311.64,549.54Z"/><path class="cls-59" d="M733.92,587.82l3.08,3c.63,4.54-2.63,6.94-5.52,9.22a43.28,43.28,0,0,1-13.56,7.28c-2.44.78-5.69,1.39-7.26-1.39s.85-4.85,2.64-6.76a7.34,7.34,0,0,1,1.23-.87c6,1.91,10.16-1.72,14.5-4.78a35.51,35.51,0,0,0,3-2.73C731.71,589.2,732.56,588.35,733.92,587.82Z"/><path class="cls-60" d="M686.44,677.6c-1.17,3.25-4.21,5-6.16,7.59a181.74,181.74,0,0,0-10.65,15.93c-2.28.62-3.63-1-5.19-2.15-1.25-1.4-.64-2.84,0-4.21,3.51-7.35,8.48-13.34,15.91-17A6.09,6.09,0,0,1,686.44,677.6Z"/><path class="cls-61" d="M459.83,637.35c-1.86-.72-3.44-2.82-5.79-.77-1.13,1-1.44-.12-1.55-1.1a10.1,10.1,0,0,1,1.1-6.27c2.75-4.72,1.75-9.84,1.94-14.83.05-1.31-.93-2-1.6-2.92,2.06.33,3.85,1.5,6.08,1.52,2,0,3.4,1.25,3.16,3.72-.16,1.58-.2,3.31,1.32,4.48-.23,4.31-.51,8.62-2.1,12.7C461.86,635.25,462.2,637.31,459.83,637.35Z"/><path class="cls-62" d="M752.84,594c1.54,1.06-.08,3.15,1.38,4.23,2.32,2.9,2.29,2.89,4.18-.14,1-1.52,1.38-3.6,3.73-3.75,2.56,1.71,1.23,4.26.91,6.21a113.5,113.5,0,0,1-3,11.58c-.87.72-1.72,1.48-2.62,2.17a4.87,4.87,0,0,1-5.35.48c-1.75-.81-2.27-2.39-2.48-4.33C748.9,604.55,751.92,599.48,752.84,594Z"/><path class="cls-63" d="M681,643.34a32,32,0,0,0,2.25,12.14c1.31,3.44,2.17,3.78,5,1.54,1.15-.9,2.09-1.06,2.73.32.77,1.64,1.24,3.41-.5,4.8-4.31,3.43-4.22,5,.51,7.67-5.55.75-8.94-2.48-11.79-6.53-3.56-5.07-3.78-10.46-1-15.94A34.32,34.32,0,0,1,681,643.34Z"/><path class="cls-64" d="M664.44,699c2.14-.26,3.36,1.66,5.19,2.15l1.58,2.2a31.06,31.06,0,0,1-16.41,9.41c-3.55.82-12-3.91-13.21-7.32-1.15-3.17.09-6.39.6-9.57,1.47.6,1.54,1.88,1.49,3.16a3.17,3.17,0,0,0,1.69,3.13C652.92,706.29,660.67,707.14,664.44,699Z"/><path class="cls-65" d="M275.7,548c-.3-.8-1.12-1.61-.49-2.45.84-1.13,1.83-.23,2.71.1,2.69,1,5.36,2.08,8,3.11,8.24,3.17,16.9,2.84,25.5,3.11.27,3-1.06,4.31-4.1,4.51a55.17,55.17,0,0,1-24.69-3.78,39.76,39.76,0,0,1-4.1-2.23C277.81,549.38,275.94,549.7,275.7,548Z"/><path class="cls-66" d="M466.87,624.05c4.65,7.4,4.68,16.28.08,21.62-.57.49-1.11,1-1.67,1.53a4.15,4.15,0,0,1-1.24.85c-1.71.66-3.93.71-3.77-1.39.21-2.81-6.56-4.88-.92-7.85,2.4-1.27,2.86-3.24,3.46-5.42.92-3.33,1.14-6.84,2.65-10Z"/><path class="cls-67" d="M426.3,686.6c1.39-1.31,2.87-.43,3.69.43a113.28,113.28,0,0,0,9.42,8.78c-2.78-1.1-4-.35-3.77,2.82.13,1.58.79,3.55-1.3,4.6-6.1-1.71-8-4.2-8-10.24Q426.31,689.8,426.3,686.6Z"/><path class="cls-68" d="M465.46,623.38c.66,4.09-1.46,7.76-1.85,11.72a5.13,5.13,0,0,1-4.1,4.44c-.48.11-1.31.33-1.32.51-.08,2.86,2.77,4.47,3.15,7.3.15,1.07,1.72,0,2.59-.29,1-.39,1.74-1.5,3-1.39-1.7,3.83-6.39,7-10,6.78,0-1.49,1.08-2.49,1.6-3.74.71-1.76.87-3.76-.94-4.57-2.21-1-3.27-2.25-2.74-4.57.58-2.52,2.8-1.44,4.35-1.81a2.29,2.29,0,0,0,.6-.41,28.11,28.11,0,0,0,3.24-12.61c.05-1.25-1-3.19,1.41-3.56Z"/><path class="cls-69" d="M712.27,707c-1.33-4.09-.47-8.28-.54-12.42,0-1.37,1.2-2.14,2.56-2.42,2.88,2.51,4.16,5.94,4.71,9.49S716.15,707.49,712.27,707Z"/><path class="cls-34" d="M274.07,609.94c-2.29-10.65-2.14-21.48-2.3-32.28,0-2,.22-4-.8-5.92l.81-.89c1.8,4.46,1,9.24,1.36,13.83C273.88,593,273.42,601.52,274.07,609.94Z"/><path class="cls-70" d="M467.78,457.58c.11-5.69-1-11.42.7-17,1.44,0,2.35.44,2.4,2.16C471,447.92,470.75,453,467.78,457.58Z"/><path class="cls-34" d="M275.7,548c.88.87,2.53.83,2.87,2.37-2.33-.2-2.21,1.43-2.09,2.92s.44,3.14.67,4.7A11.53,11.53,0,0,1,275.7,548Z"/><path class="cls-34" d="M435.62,785c-.17,4.33.67,8.71-.66,13C435.23,793.66,434.13,789.27,435.62,785Z"/><path class="cls-34" d="M434.81,801.77c0,2.85.69,5.76-.54,8.54C434.36,807.46,433.47,804.54,434.81,801.77Z"/><path class="cls-46" d="M538.61,444.43a2.68,2.68,0,0,1-3.13-1.41c-3.35-8-4.13-16.6-5.91-25-2-9.17-3.27-18.47-4.89-27.87-2.11,1.53-2.57,3.94-4,5.68-.87,1.05-1.34,2.73-3.15,1.74-1.37-.76-1.18-2.12-.67-3.37,1.26-3,2.2-6.27,3.92-9,2.07-3.31,3-6.37,2-10.35-.83-3.24-.7-6.79-.81-10.15-.37-11.13-1.49-22.25-.89-33.39a21.78,21.78,0,0,1,1.41-6.09c2.1,6.09,2.83,12.38,3.89,18.6q2.39,13.95,4.57,27.94c.24,1.54,1,1.77,2.29,1.85,2.31.16,4.59.59,6,2.75.86,1.35,1.72.64,2.58.19a40.4,40.4,0,0,1,3.61-2.06c5.58-2.18,8.38-1.15,11.11,4,3.42-2.14,5.5-5,5.71-9.19a223.07,223.07,0,0,1,3.8-29.57c2.63-14.12,5.16-28.27,9.7-42,.43-1.29.6-2.71,2.66-4.12-2.45,24.53-4.84,48.41-7.28,72.78,7.63-4.83,14.61-10.73,24.3-13.68a24.1,24.1,0,0,1-6.9,7.75c-6.29,4.77-10.86,11.36-17.28,16a5.18,5.18,0,0,0-2.09,3.92c-.55,7.55-.92,15.11-1.6,22.64-.85,9.53-1.43,19.07-2.85,28.55-.57,3.86-.47,7.82-2.48,11.34l-1.53.67c-3.78-1.12-4.17-4.41-4-7.36.72-9.86.89-19.75,1.82-29.58.52-5.43,0-10.91,1-16.32.38-2.09-.8-2.79-2.75-2.07a5.21,5.21,0,0,1-5.92-1.33,3.52,3.52,0,0,0-4.47-.66c-6.44,3-7.37,2.81-12.45-2.22,1.32,10.42,3.13,20.51,4.66,30.64,1.2,7.9,2.8,15.75,2.63,23.79C541.14,440.82,541.06,443.15,538.61,444.43Z"/><path class="cls-46" d="M452.41,269c.5-13.55,3.82-25.65,8.63-37.4a131,131,0,0,1,21.51-35.94c5-5.8,10.5-11,18.28-12.94,2.14-.53,4.24-.38,5.17,1.88a4.13,4.13,0,0,1-1.73,5c-21,15.3-31.76,37-38.2,61.38a92.52,92.52,0,0,0-2.88,27.36c.24,6-.89,12-.08,18.07.1.77.43,2-.73,2.27a2.11,2.11,0,0,1-2.21-1.15,28.92,28.92,0,0,1-2.67-4.58A80.32,80.32,0,0,1,452.41,269Z"/><path class="cls-71" d="M675.74,851.29c-.6,3.1,1.68,4.69,3.6,6.2,11.32,8.87,22.58,17.81,34.17,26.31,5.38,3.93,10.4,8.43,16.43,11.48a13,13,0,0,0,5.3,1.94c-4.08,3.74-8.78,5.38-12.89,7.91-9.62,5.92-19.57,11.32-29.35,17q-20.89,12.12-41.73,24.37c-11,6.48-22,13.06-33,19.56-13,7.64-25.93,15.23-38.87,22.88-9,5.35-18,10.78-27,16.16-.86.52-1.56.92-2.7.09C539,997.37,527.45,991,516.24,984.1q-15.39-9.5-31-18.69c-14.85-8.74-29.82-17.27-44.69-26-11.48-6.73-22.85-13.66-34.32-20.41-8.8-5.18-17.67-10.21-26.5-15.31-1.42-.82-2.94-1.51-4-3.39,9.25-4.35,18.42-8.75,27.65-13,13.3-6.1,26.65-12.09,40-18.12,6.38-2.89,12.73-5.88,19.19-8.59a9.69,9.69,0,0,0,4.38-4c1.36-2.77,4.88-3.33,6.24-6.1,1.13-2.29,1.6-4.55-.32-6.7a7.37,7.37,0,0,0-7.94-2.34c-3.37,1-6.19,1.92-7-2.92-.25-1.53-2.64-1-3-2.62,0-3.64.09-7.28.24-10.9.08-1.82.07-3.91,2.57-4.4a3.35,3.35,0,0,1,1.09,3.46c-1,3.39,1.07,4.49,3.64,5.47a280.36,280.36,0,0,0,35.3,10.71c15.18,3.61,30.42,7,45.89,9a447.63,447.63,0,0,0,55.78,3.26,329.48,329.48,0,0,0,56.73-5.18c6.5-1.11,13-1.92,19.07-4.9,3.47-1.7,7.82-.86,11.33-2.95,2.92-.83,4.77.56,6.11,3-2.37,5.5-3.43,6-9.19,4.66-2.31-.56-4.66-1.48-6.76.52C675.55,848.66,676.53,850.24,675.74,851.29Z"/><path class="cls-72" d="M851.75,748.6c-.45,4.29,1.92,6.81,5.43,8.63,9.39,4.86,18.27,10.61,27.37,16,9.66,5.71,19.36,11.36,29.16,16.82,2.72,1.52,2.4,2.48.23,4-2.5,1.71-5.56,2.37-7.9,4.42-.88.77-2.18,0-3.21-.51-10.22-5.51-20.6-10.74-30.61-16.6-7.73-4.52-15-9.81-22.44-14.83a19,19,0,0,0-3.79-2.44c-4-1.52-4.25-5.49-5.57-8.75a2.15,2.15,0,0,1-2.19-1.9c-.64-3-.7-5.77,2.64-7.48,1.63-.83,2-2.56,1.89-4.28-.76-9.12.57-18.19.41-27.31-.12-6.64-2-13-2.12-19.6,0-1.75-.56-3.55,1-5,1.5.32,1.55,1.6,1.74,2.66,2,11.71,5.23,23.23,5.35,35.23a9.79,9.79,0,0,0,2.64,6.54A2,2,0,0,1,852,736a14.34,14.34,0,0,0-.11,10A5.1,5.1,0,0,1,851.75,748.6Z"/><path class="cls-73" d="M709.93,843.77c9.2,8.14,19.15,15.31,29.15,22.4,7.21,5.11,14.42,10.19,21,16.44-1.69,1.9-4,2.63-6,3.81-1.43.85-2.32,0-3.4-.73-11.9-7.53-23.87-14.94-35.7-22.56-2.95-1.9-5.48-4.47-8.62-6.12-2-1.07-1.24-3.46-2.53-4.82-1.74-.33-1.62-1.82-1.63-3a9.08,9.08,0,0,0-2.21-5.9c-.53-2.5,2.22-2.75,3-4.36C706.3,839.16,708.18,841.38,709.93,843.77Z"/><path class="cls-74" d="M473.92,851.09c-1.6,2.74-4.46,3.93-6.95,5.57-5.17.21-10.07,2.29-15.31,2.14-5.45-.15-6.59-.93-7.86-6.21-.3-1.23-.57-2-2.26-1.59a25.43,25.43,0,0,1-4.89.37c-3.36.23-5.28-1.25-5.61-4.67.3-3.59.78-7.17.84-10.77,0-2.24,1.31-3,3-3.76l2.35,1.66c2.79,1.15,5.67-.54,8.47.24a2.06,2.06,0,0,1,.59.93c.63,3.13,1.77,5.29,5.46,3.16.45-.26,1,0,1.37.36,2.65,2.82,2.73,6.34,2.76,9.91,0,4.66.74,5.16,5.12,3.58a55.54,55.54,0,0,1,8.77-2.23C471.24,849.5,473,849,473.92,851.09Z"/><path class="cls-39" d="M838.94,753.77l1.48,1.53c-.35,1.81.36,3.49.61,5.23.45,3.26-1.17,5.1-4.25,5.51-5.7.77-11.26.38-16.4-2.61a7.17,7.17,0,0,0-2.17-.48c-1.54-1.45-3.05-2.93-4.64-4.32a4.3,4.3,0,0,1-1.18-4.86c.57-1.75,2.38-.88,3.65-1,4.83-.45,10,1.83,14.39-2C833.42,751.33,836.11,752.73,838.94,753.77Z"/><path class="cls-75" d="M700,842.74c2.4,1,3.32,2.88,3.23,5.44-.05,1.35-.4,2.81.65,4v.38c.19,10.21-4.55,12.88-14.39,9.35-6-2.15-9.16-7.12-13.74-10.63-.46-1.25-1.63-2.51,0-3.77,3.7,1.36,5.41,5.3,9,6.87.91.41,1.66,1.16,2.6,1.55,2.89,1.2,4,.57,4.19-2.52.17-3.47.74-6.75,3-9.52C696.33,843.43,698,842.54,700,842.74Z"/><path class="cls-76" d="M709.93,843.77c-2.75-.86-4.14-3.61-6.65-4.81-.58-.34-.44-.87-.37-1.38,0-3.58-1.22-7.1-.55-10.71,1.43-1,2.77-1.3,3.89.44,2.61,3.17,6.12,2.85,9.6,2.34.83-.13,1.6-.7,2.52-.5l2.28,4.74c0,1.39.13,2.79.08,4.18-.19,5.29-1.84,6.57-7,5.71A24,24,0,0,0,709.93,843.77Z"/><path class="cls-77" d="M851.75,748.6c-1.78-4.63-3.12-9.25-.14-13.92,1.34-2.45,3.71-1.95,4.4-.29,1.38,3.36,3.8,3.29,6.52,3.24a.68.68,0,0,0,.61.25c.25,1.61,1.57,2.51,2.43,3.72a3.28,3.28,0,0,0-.08,1.11c1.07,3.3.81,6.15-2.78,7.69C859.76,751.67,854.49,751.85,851.75,748.6Z"/><path class="cls-78" d="M261.13,721.78c-2.06,1.62-4.33,1-6.48.43a11,11,0,0,0-4.1-.41c-3.4-1.59-6.72-3.39-10.22-4.72-4.5-1.72-6.12-4.73-5.17-9.34.45-2.18.07-4.56,1.71-6.42,1.78-.51,2.44,1.37,3.8,1.76a2.81,2.81,0,0,1,2,3.28c-1.12,6.65,5.53,12.32,12.25,12.74a24.63,24.63,0,0,1,4.55.31C260.57,719.69,262.23,719.81,261.13,721.78Z"/><path class="cls-79" d="M239.85,703.54c-1.8.35-1.53-2.09-3-2.22l.09-4.58,6.91-.3c4,1.16,2.14,4,1.91,6.45C244.05,705.36,241.88,703.77,239.85,703.54Z"/><path class="cls-80" d="M232.1,614.58c0-4.81.29-9.64.06-14.45s.81-9.57.82-14.37c0-2.54,2-2.94,3.6-3,2-.12,1.75,1.78,1.75,3.12,0,30.69.19,61.38-.16,92.07-.07,5.8,1.13,11.69-.26,17.82-2.9-2.2-4.39-4.47-4.23-8.07.3-6.46.11-12.94.08-19.41,0-1.23.4-2.57-.71-3.6-1.33-9.52-.93-19.1-1-28.66,0-3.65,1.15-7.17.92-10.88C232.78,621.59,232.94,618.05,232.1,614.58Z"/><path class="cls-81" d="M751.74,560.36c-3.71,3.63-7.39,7.3-11.16,10.87-.68.65-1.11,2.29-2.66,1.24a4.39,4.39,0,0,1-.67-3.63c2.2-10.55,2.38-21.34,3.74-32,.26-2.07.34-4.37,2.5-5.67,2.27.76,4.84-.31,7,1.15C751.41,541.66,752.43,551,751.74,560.36Z"/><path class="cls-82" d="M762.13,594.3c-1.64,1.29-2.27,3.28-3.37,4.94-.78,1.17-1,3.26-3,2.79s-1.27-2.44-1.49-3.84c.32-1-.34-2.35,1-3.06,1.15.57.09,1.94,1,2.57,2.34-2,3.45-4.15,2.82-7.56-1-5.51,1.26-10.87,1.86-16.34.5-4.5-.5-8.65-1.35-12.94a76.47,76.47,0,0,1-1.4-11.17c-.25-5.31-.11-10.65-.13-16l6.4,0c-.35,5.25-1.76,10.44-.91,15.76l1,16.78-1.11,11.63c-1.32,2.25-.57,4.7-.44,7A39.56,39.56,0,0,1,762.13,594.3Z"/><path class="cls-83" d="M743.49,531.19c-2.18,6.75-2.61,13.82-3,20.77s-2.12,13.63-2.61,20.51c-1.88,3.17-1.58,6.92-2.67,10.33-.51,1.6-1.69,3.15-1.33,5l-1.85,3c-1.85-.36-1.33-1.84-1.44-3-.52-5.76,1.71-11.12,2.75-16.61,1.8-9.53,3.61-19,3.42-28.72-.07-3.75,2-7.23,1.61-11.11a3.52,3.52,0,0,0-.92-2.2C739.75,529.08,741.46,530.6,743.49,531.19Z"/><path class="cls-84" d="M862.53,737.63c-1,.12-1.8,1-2.66,1.2-1.58.33-3.68,1.39-3.78-2.06-.07-2.69-1.66-4.23-4.48-2.09-3.44-.83-3.51-3.79-3.57-6.32-.22-10-2.08-19.71-4.42-29.38-.67-2.76-.8-5.64-1.48-8.43a134.2,134.2,0,0,0,1.35,15.22,106.06,106.06,0,0,1,.14,26.82c-.39,3.58.59,6.95.39,10.44-.11,1.77-.68,3.4-2.31,3.92-3.32,1.06-3.35,3.14-2.38,5.81.1.26-.25.67-.39,1-3.38.52-6.06-.92-8.51-3-.25-1-.49-2.07-.74-3.1.71-.7,1.42,0,2.13,0,1.87.07,2.85-.47,1.59-2.35-1.92-2.88-1.83-6.19-2.19-9.4-1-9-2-18-2.9-27.08a90.52,90.52,0,0,1,1-24.9c1.11-6,1.12-12.21,2.93-18.08a102.45,102.45,0,0,0,3.49-18.61c3.57-.35,7.17,1.78,10.72-.14,2.84-2.35,6.51-1.57,9.73-2.51s5.54-2.37,5.93-6c.5-4.16.52-4.18,3.38-3.53,0,8.09-.66,16.17-1,24.24a81.94,81.94,0,0,1-2.14,14.14c-1.6,7.23-.09,14.38.3,21.49.5,9,1,18.06.56,27.11a10.07,10.07,0,0,0,.94,5.11c1.12,2.32,1.72,5-.53,7.32A3.4,3.4,0,0,0,862.53,737.63Z"/><path class="cls-85" d="M863.13,639.45c-.86,5-5,5.76-8.89,6.61-2.55.56-5.18.72-7.78,1.06a48.59,48.59,0,0,1-6.77-.64c-5.15-1.05-5.88-1.64-6.2-6.84a39.93,39.93,0,0,1,0-6.47c.68-6.73-1.78-13.14-1.73-19.86.05-5.89-5.25-9.11-9.36-12.19-3.5-2.63-7-5.28-10.46-8-4.21-3.34-4.7-9.69-2.45-15.3,1.93-4.83,4.7-9.38,5.11-14.83.21-2.77,2.06-4.58,5.23-4.28,1.24,0,1.93,1.11,2.95,1.57,3.1,3.26.41,6.34-.45,9.36-2,6.93.1,13.69,5.89,18,3.36,2.49,7.08,2.29,10.59-.59,4.89-2.22,10.21-2.3,15.38-3.14,7.29,5.52,9,13.72,10.57,22,1.63,8.47,2.06,17.07,2.83,25.64.07.75-.4,1.14-.66,1.69-.2.32-.44.76-.76.79C862.42,634.32,862.32,636.61,863.13,639.45Z"/><path class="cls-86" d="M839.68,554.21c1.41,2.55,2.21,5,.6,7.93-1,1.89-2.22,4.91,2.42,3.66,1.38-.37,1.94.84,2.5,1.87.65,1.19-.2,1.82-.81,2.64-.9,1.21-3.86,1-3,3.17a10.64,10.64,0,0,0,4.74,4.76,6.81,6.81,0,0,0,2.6.28l.58.87c-5,2.07-12.79-2.85-14.81-6.63-2.4-4.48-1.15-12.06,2.55-15.78C838,556.08,838.81,555.14,839.68,554.21Z"/><path class="cls-87" d="M854.2,583.9c-1.31,2.85-4,1.27-6,1.64-3.09.58-6.06,2.35-9.39,1.5-.7-2.6,0-4.37,2.89-4.75,2.7-.35,5.26-1.39,8-1.44C852.07,580.82,853.61,581.57,854.2,583.9Z"/><path class="cls-4" d="M863.13,639.45c-1.51-4.34-1.45-4.44,3.81-6.21,0,2.23.07,4.47.08,6.71a5.87,5.87,0,0,1-.26,1.14c-1.37-1.86.56-4.3-1.26-6C861.62,634.87,863.92,638,863.13,639.45Z"/><path class="cls-88" d="M435,561.65c-2.31.79-4.45,2.08-6.59-.81-1.07-1.46-3-.68-4,1a6.77,6.77,0,0,1-1.68-4.45c-.08-9.59-.68-19.31,1.05-28.69,2.46-13.37,1.86-26.73,1.95-40.13.05-1.49.09-3,.14-4.46,1.62-3.5.54-7.2.75-10.81.18-3,0-6.07.09-9.11a1.92,1.92,0,0,1,2.12-2.13c1.43,0,1.41,1.09,1.54,2.14,1.57,13.1,1.16,26.29.57,39.38-.56,12.49-2.23,24.93-3.12,37.43-.28,4-1.15,8.08-1.18,12.18,0,5,.73,5.88,5.73,6.25C433.9,559.54,435.15,559.65,435,561.65Z"/><path class="cls-89" d="M452.4,409.47c-.63-5.93,1.12-13.29-.9-20.55a2.46,2.46,0,0,1,2.41-3.17c1.74-.16,2.42,1,2.51,2.61.74,13.3,3.29,26.34,5.91,39.36.76,3.79-1.15,6.83-2.18,10.11-.27.84-1.29.67-2,.29-2.83-1.54-5.65-3-6-6.83C451.44,424.45,452.3,417.65,452.4,409.47Z"/><path class="cls-90" d="M425.83,460.34l0,16.13c-3.57.36-5.1-2.18-6.63-4.69a13.21,13.21,0,0,1-.92-11.95Z"/><path class="cls-91" d="M263.32,567.61l-6.73.41c-2.32-4.72-2.17-10-3.2-15-1.72-8.28-4.61-16.07-7.59-23.89a2.3,2.3,0,0,1,2-1c3.53.06,6.85-.17,8.38-4.17.17-.44.85-.43,1.36-.18a2.3,2.3,0,0,0,0,.74c3,11.86,5.85,23.73,7,35.93C264.7,562.82,265.36,565.49,263.32,567.61Z"/><path class="cls-92" d="M246.6,577.17a21.84,21.84,0,0,0,8.08,13.39,13,13,0,0,1-3,0c-1.26-.39-2.66-1.83-3.68-.24-.8,1.23-.32,2.83.48,4.27,1.06,1.91,2.59,4-.56,5.71s-4.42-.06-5.4-2.49a55.77,55.77,0,0,1-3.19-14.66,7.56,7.56,0,0,0-.6-1.73c-.56-3.84,2.8-3.94,4.95-5.2A2.27,2.27,0,0,1,246.6,577.17Z"/><path class="cls-93" d="M257.5,523.76c-.33.17-.93.33-.95.53-.52,6.18-5.09,4.68-8.86,4.72-.63,0-1.26.07-1.89.11-.7-1-1.41-2.06-2.12-3.08,3.09-1.63.31-5,2.15-7,2.28-.25,4.42.67,6.7.72a12.32,12.32,0,0,0,10.81-5.07c.78-1,1.38-2.51,3.13-2.31,0,3.42,0,6.83,0,10.24A37.6,37.6,0,0,0,257.5,523.76Z"/><path class="cls-94" d="M246.6,577.17a4.13,4.13,0,0,1-2.9-1c-.19-1.63.57-2.19,2.17-2.27,2.07-.12,1.92-1.42.81-2.53a24.06,24.06,0,0,0-4.91-4.07c-4.24-2.38-5.8-5.8-5.06-10.5a6.42,6.42,0,0,0-.37-2.58c-.29-1-1.8-2-.27-2.86,1.05-.62,2.33.28,3,1a19,19,0,0,1,4.37,9.76c.46,2.62,1,4.62,3.46,5.73,1.9.88,2.31,3.35,4.42,4A19.27,19.27,0,0,1,246.6,577.17Z"/><path class="cls-95" d="M263.32,567.61c.12-12.4-2.15-24.42-5.46-36.31-.6-2.15-2.06-4.44-.39-6.8a3,3,0,0,1,2.81,2.21c1.31,5.08,3.39,10,4,15.23,1.08,9.58,2.59,19.13,2.37,28.81C264.64,570.65,264.71,568.36,263.32,567.61Z"/><path class="cls-96" d="M266.47,512.33c-1.07,1.38-2.14,2.77-3.23,4.13-3.61,4.53-12.57,5.82-17.41,2.53a24.27,24.27,0,0,1,.37-4.54c.52-1.88-.06-3.05-1.75-3.58-2.2-.7-1.79-2.47-1.35-3.73.6-1.7,2-.25,2.9,0,7.47,1.87,12.09-.63,14.46-8,.36-1.14.4-2.74,2.11-2.69,1.47.05,1.49,1.51,1.87,2.54C266.05,503.29,268.25,507.51,266.47,512.33Z"/><path class="cls-97" d="M245.56,702.63c-.9-2,1.4-4.81-1.69-6.19a20.46,20.46,0,0,1,2.53-.66c3.6-.52,5.18-2.34,5.08-6.17-.23-8.24-.08-16.49,0-24.74,0-1.36-.37-2.8.49-4.07q.07,13.25.15,26.49c0,4.86,0,4.87,4.93,4.85,1,0,2,0,3-.06,1.88.65,1.11,2.26,1.18,3.5.2,4,1.68,5.58,5.66,6.15s8.23,1.15,11.86,3.4c.43,3.37-1.85,4.88-4.42,5.72-4.13,1.35-8.38,2.32-12.58,3.44-1.46.69-2.36-.43-3.4-1.06-2.58-1.57-5-3.35-8-4.17C247.13,708.21,246.78,705.05,245.56,702.63Z"/><path class="cls-98" d="M245.56,702.63c.69.21,1.79,0,1.86,1,.28,3.86,3.06,4.48,6.06,5.59s5.52,3.36,8.26,5.12c1.39,2.63,3.3,5.29-.61,7.49-.35-2.18-2.1-1.46-3.32-1.45A19.46,19.46,0,0,1,247,717.51c-3.45-2.15-6.37-6.75-5.42-10.63.53-2.13-.43-2.6-1.72-3.34C241.75,703.18,243.89,704.39,245.56,702.63Z"/><path class="cls-99" d="M261.84,687.37c5.21-1.75,8.4-1,11.69,3.15,2.66,3.35,6.67,3.76,10.22,5.27,3,1.28,6.13,2.77,5.55,7-4.85,2.06-18.08-.6-20.92-4.72-.88-1.27-2.11-2.46-2-4C266.75,690.48,264.86,688.59,261.84,687.37Z"/><path class="cls-100" d="M261.84,687.37c5.36.28,5.44.28,5.47,5.61,0,4.19,2.89,6.07,6.1,7.33,5.07,2,10.51,2.18,15.89,2.51-.46,2.15-2.2,2.06-3.81,2.13-2.25.09-4.5.12-6.75.18-4.95-.62-9.73-2.09-14.7-2.76-2.28-.3-4.11-2.83-4.05-5.77,0-1.51,0-3,.05-4.52C260.37,690.41,260,688.46,261.84,687.37Z"/><path class="cls-16" d="M687.18,839.8c-1.84,3.67-5.64,2-8.43,3.06-.91.35-2.11,0-3,.48-10.5,5.43-22.23,5-33.41,7.28-21.21,4.26-42.62,2.66-64,2.91-11.12.13-22.11-1.74-33.12-3-18.43-2-36.49-6.27-54.44-10.78a218.59,218.59,0,0,1-31.74-10.24c-1.79-.75-2.68-1.87-1.85-3.37,1-1.89.45-3.65.46-5.48-1.29-1.38-1-3.07-.87-4.69a90.5,90.5,0,0,1,3.6-17.47,22.7,22.7,0,0,0,1.71-8.81,4.36,4.36,0,0,1,3.22-4c3.88-1.51,5-3.86,3.83-8.16-.85-3.12,0-6.71.1-10.09,1-1.11,2.35-1.38,3.68-1.83a186.69,186.69,0,0,1,25.7-6.71c2.75-.52,3.85-2,3.74-4.72-.17-4.18.12-8.37-.18-12.55-.21-2.8-1.34-4.29-4.46-4.47-2.51-.15-5.07.42-7.54-.39-1-5-4.28-9.09-5.11-14.09-.26-1.55-1-3.19-.05-4.8,8.63,3.41,17.6,5.7,26.53,8.11,3.62,1,7.44,1.19,11.13,1.94,15.86,3.27,31.93,2.32,47.93,2.16,10.17-.1,20.13-2.36,30-4.89,4.12-1.05,8.27-1.87,12.37-3.1,7.1-2.13,13.46-5.59,19.69-9.41,1.5-.92,3.16-1.7,3.41-3.77,2.66-1,4.92.41,7.19,1.35,3.86,1.6,7.35,3.93,11,6,6.08,3.43,9.36,2.87,13.82-2.55a24.69,24.69,0,0,0,3-4.36,5.32,5.32,0,0,1,3.36-2.86c1.32-.26,1.57-1.79,2.68-2.3,2.79-.72,2.48,1.51,2.64,3,.34,3.14,0,6.32.41,9.49s1.45,6.42,2.14,9.64a75.89,75.89,0,0,1-2.66,18,96.27,96.27,0,0,0-2.7,32c.25,3.4,1.43,6.69,2.27,10a246.5,246.5,0,0,1,7.06,39.23,18.28,18.28,0,0,1,0,6C685.69,834.45,686.46,837.11,687.18,839.8Z"/><path class="cls-101" d="M674.52,706.48a112.83,112.83,0,0,1-6.92,9.24c-4.23,4.65-8.43,4.9-13.77,1.48-5.52-3.53-11.1-7-17.66-8.27-.83-.28-1.65-.61-2.49-.83-2.42-.65-3.6-2.18-2.48-4.49a9.53,9.53,0,0,0,.37-8,2.32,2.32,0,0,1-.05-.38c-.54-4.1.84-7.21,3.51-7.88s4.93,1.48,6.25,5.74c.28.93,0,2.09.91,2.79a8.46,8.46,0,0,1,.06,6.24c-.78,2.3.09,3.94,2,5.09,3.62,2.18,6.71,6,11.64,4.49A37.77,37.77,0,0,0,666.73,706c1.41-1,2.73-2.23,4.48-2.69A9.2,9.2,0,0,0,674.52,706.48Z"/><path class="cls-102" d="M453.69,660.75l.63-3c3.93-2.16,7.38-1.13,11,1.12,5.39,3.37,10.52,6.86,14.35,12.12,3,4.11,3.23,8.88,4.19,13.52a9.11,9.11,0,0,0,.38,2.22c1.76,3.37.63,5.54-2.69,6.88-.81.36-.88,2.14-2.36,1.25,2.07-2.31-.2-4.11-.54-6.2a32.6,32.6,0,0,0-5.5-13.49,46.75,46.75,0,0,0-15-14.06C457,660.48,455.19,660.86,453.69,660.75Z"/><path class="cls-103" d="M479.18,694.91l2.36-1.25,3.57,24.23a43.49,43.49,0,0,0,5.05,14.93c.77,1.45.57,2.27-.45,3.23-1.57,3.38-1.72,7-2,10.62-.22,3.21-1.51,3.71-4.22,2,1.4-4.89.14-9.4-1.54-14-4.64-12.81-6.75-25.9-2.93-39.39Z"/><path class="cls-1" d="M823.62,736.21c1.46,2.89,1.21,6.18,2.2,9.18C823.48,742.72,823.57,739.46,823.62,736.21Z"/><path class="cls-104" d="M483.79,748.46c2.49,1.18,2.93,1,3.07-1.56.17-2.9,0-5.81.72-8.69.34-1.29.77-2.07,2.13-2.15,3,.42,6-.19,9,0s4.14,1.09,4.51,4c.76,5.8.22,11.61.32,17.41,0,2.16-2,2.07-3.32,2.39-3.4.83-6.88,1.29-10.3,2-7,1.5-13.52,4.49-20.57,5.65-3-8.27-1.29-16.84-1.54-25.28,0-1.53,1-1.85,2.26-1.9,1.76,0,3.52-.14,5.28-.21,1.27-1.08,2.19-2.74,4.21-2.63,1,.21,2.21.61,2.35,1.62C482.32,742.23,484.54,745.05,483.79,748.46Z"/><path class="cls-105" d="M452.4,838.44c-1.56.91-3,2.75-5,1.57s-1.58-3.48-1.77-5.43a4,4,0,0,1-.43-2.56c.09-9,.16-17.94,0-26.91-.11-6,.76-11.85.84-17.78,0-2.65,1.14-4.11,4.06-3.21l3.2,1.58c1.88,1.22,1.77,3.17,1.9,5.06.46,6.58-.4,13.12-.91,19.64-.69,8.83-.47,17.64-.56,26.46A1.88,1.88,0,0,1,452.4,838.44Z"/><path class="cls-106" d="M453.23,837.57c-.94-1.49-.68-3.16-.76-4.79-.65-14.13,1.57-28.16,1.52-42.27,0-1.64.11-3.29-.7-4.81a28,28,0,0,0,12.11,0c-1.11,1-2.29,2.06-2.34,3.77-.59,3.06-.89,6.16-1.49,9.22-2,7.22-3.9,14.44-3.83,22-1.54,1.49-1.3,3.42-1.39,5.31-.18,3.49.64,7.06-.84,10.45C455.25,837.86,454.48,838.22,453.23,837.57Z"/><path class="cls-107" d="M483.79,748.46c-1.14-2.51-2.53-5-2.07-7.88.41-2.52-2-1.66-2.76-2.72a4.64,4.64,0,0,1-1.56-2.94c-2.23-10.84-5.7-21.4-7.48-32.34a32,32,0,0,1-.31-3.37c-.1-2,.86-2.76,2.78-2.47l6.65-1.48a3,3,0,0,1,.7,2.84c-2.65,8.83-1.23,17.56.34,26.36.89,5,3.08,9.47,4.52,14.22C485.52,741.74,486.67,745.43,483.79,748.46Z"/><path class="cls-108" d="M472.39,696.74c-3.19,1.21-2.24,3.51-1.7,5.87,2.71,11.76,6.13,23.35,8.27,35.25-1.29.59-1.54,2.91-3.63,2.2.69-7.4-2.47-14-4.53-20.75a7.26,7.26,0,0,1-.75-2.49c.43-8-1.71-15.86-.49-24.66C469.83,694.66,471.52,695.37,472.39,696.74Z"/><path class="cls-109" d="M450.09,784.12c-2.28-.17-2.87.87-3,3.13-.92,13.77-.73,27.55-.74,41.33a21.14,21.14,0,0,1-.71,6c-2.73-1.14-5.77,1.16-8.43-.74,1,0,2-.09,3,0,3,.22,3.93-1.13,3.88-4.06-.15-8.59.06-17.19-.1-25.78-.13-7.09.52-14.12.93-21.16C446.49,783.87,448.57,782.87,450.09,784.12Z"/><path class="cls-110" d="M457,549.59c-2.3,0-4.71-.19-6.1,2.3-2.66-1.61-2.92-4.27-3-7-.09-6.09-.09-12.17-.13-18.26-1.93-2.89-1.12-6.13-.95-9.2.26-4.49-.23-9,1-13.46.56-6.29-.66-12.65.88-18.91.28-1.14.38-2.22,2.43-3-1.08,6.35,1.35,12.28.13,18.4a16.47,16.47,0,0,0-.25,4.15c.66,11.86-.32,23.72-.05,35.58C451.06,546.49,451.43,547.24,457,549.59Z"/><path class="cls-111" d="M447.78,504q0,11.33,0,22.66c-1.63,2.42.31,5.61-1.72,8-2.39-1-3-2.83-2.49-5.23a134.78,134.78,0,0,0,2.89-22.81C446.5,505.61,446,504.22,447.78,504Z"/><path class="cls-112" d="M687.18,839.8c-3.16-1.37-2.63-4.25-2.19-6.57,1.3-6.87-.44-13.47-1.39-20.13-1.46-10.31-4.05-20.4-6.34-30.56-3.26-14.46-1.34-28.78,2.44-42.92,1.18-4.39,1.42-8.93,1.91-13.43.48-1.34,1.37-1.37,2.47-.78l2.31.23c-.91,1.36-.75,2.9-.75,4.41,0,16.22-.17,32.44,0,48.66a146.13,146.13,0,0,0,4.19,31.21c1.32,5.73,2.59,11.44,3.37,17.26.48,3.59-.46,7-1.2,10.46-.63,2.89.39,3.8,3.16,3.25s6.33.55,7.72-3.31c.13.46.25.92.37,1.38-.3,2-2.53,2.23-3.29,3.78a8.49,8.49,0,0,1-5,1.61c-.93-.36-2.27-.1-2.43-1.61A9.08,9.08,0,0,0,687.18,839.8Z"/><path class="cls-113" d="M706.25,827.31l-3.89-.44-.22-.29c-.34-3.66.27-7.35-.34-11-1.29-5.86-2.71-11.69-3.81-17.58-.66-3.53-1.76-7.1-.52-11.49.66,3.71,1.25,6.74,1.72,9.79a50.85,50.85,0,0,0,3,10.49C704.73,813.35,706.93,820.07,706.25,827.31Z"/><path class="cls-112" d="M701.8,815.58c1.1,3.64.47,7.33.34,11C701.23,822.94,701.83,819.25,701.8,815.58Z"/><path class="cls-114" d="M684.08,725.41c-.86.15-1.79.09-2.47.79-3-5.68-2.66-11.87-2.81-18,0-1.44.87-3.46-1.6-4,1-1.14,1.76-3.26,3.71-2.45,1.69.69,2.44,2.55,2.43,4.42C683.29,712.58,684.78,719,684.08,725.41Z"/><path class="cls-115" d="M538.61,444.43c2.47-3.7,1.86-8,1.36-11.83-1.62-12.45-3.79-24.82-5.69-37.24-.69-4.44-1.2-8.91-1.8-13.41,2-.3,2.6.92,3.34,2.13,2.27,3.72,5.23,4.45,8.92,1.92,2.76-1.89,5.07-3.25,7.3.63,1.16,2,2.87,1.24,4.64.49,3.73-1.56,4.21-1.29,4,2.68-.91,14.83-2,29.65-2.95,44.47-.23,3.5.06,6.84,3,9.35C553.35,445.09,546,444.26,538.61,444.43Z"/><path class="cls-116" d="M453.23,837.57c1,.19,1.57-.64,2.28-1.11,2.72-1.06,3.76.46,3.91,2.79.17,2.56.9,3,3.25,1.72s5.35-.93,8-.18c4.43,1.24,5.61,5.13,3.24,10.3-4.27-1.58-8,1-11.91,1.71a16.77,16.77,0,0,0-1.72.7c-5,1.51-5.72,1.09-5.54-4.29.13-3.84-.21-7.47-2.35-10.77Z"/><path class="cls-117" d="M692.53,842.74l2.43,1.61c-1.34,2.79-2.49,5.59-2.45,8.82.06,4.86-1.9,6.12-6,3.66s-8.06-5.21-10.8-9.31a4.25,4.25,0,0,1,5.76-1.86c1,.42,2.16.57,3.22.91,3,1,5.37.67,6.35-2.84C691.26,843,691.93,842.91,692.53,842.74Z"/><path class="cls-71" d="M461.57,798.69a28.31,28.31,0,0,1,1.49-9.22A18.57,18.57,0,0,1,461.57,798.69Z"/><path class="cls-118" d="M510.36,543c-8.58-6.33-13.62-14.62-15.9-25.2-1.8-8.39-2-16.31.94-24.33a9.28,9.28,0,0,1,1-2.5c2-2.55,1.92-4.52,0-7.53-4.91-7.87-5.64-16.21-.22-24.38a2.68,2.68,0,0,1,2.52.69c10.36,6.87,22.17,8.89,34.19,9.88,4.42.37,8.6,1.95,13.14,1.75a91.1,91.1,0,0,0,30.82-6.34c1.45-.59,2.88-1.23,4.32-1.93-6.26,2.22-12.93,2.39-19.32,4.09a43.67,43.67,0,0,1-14.72,1.47c-16.46-1.37-33.09-2.15-48.36-9.61a4.92,4.92,0,0,0-2.59-.78c-4.29-3.63-8-16-5.86-20.94,1.18-2.81,3-5.47,6.64-5.73,1.56.45,2.13,1.87,2.86,3.06,2.87,4.67,7.11,7.57,12.07,9.52,2.75,1.09,4.79,2.34,4.6,5.87-.15,2.83,2.37,3.73,4.51,4.75,4.59,2.17,9.62,2,14.47,2.91,6.11,1.12,12.16,1.71,18.23.33s12.26-.18,18.29-1.51a129.77,129.77,0,0,0,12.81-3.24c2-.66,3.82-1.73,4.59-3.94a2.66,2.66,0,0,1,1.39-1.82c4.77-1.62,7.24-5.8,10.45-9.17.84-.87,1.6-2.27,3.23-1.27,4.51,5.7,4.63,11.73,1.32,18a3,3,0,0,0,0,3.3c4.24,6.31,2.13,14.72-2,19.64-1.71,2-1.77,3.13-.06,5.21,2.81,3.42,4.74,7.36,4.65,12.05s.16,9.4,2,14.07c1.66,4.16-.42,8.58-1.47,12.83-2,8.16-7.28,13.81-13.91,18.47a9.92,9.92,0,0,1-5.15,4.6,121.64,121.64,0,0,1-19.56,6.61,76.37,76.37,0,0,1-32.57,1.44C528.16,551.72,518.25,549.8,510.36,543Z"/><path class="cls-119" d="M510.36,543c4.27.78,7.49,3.82,11.6,5.19,13.63,4.54,27.51,6.62,41.64,4,9-1.65,18.14-3.76,26.47-8,1.81-.93,3-2.9,5.06-3.57,1.51,3.56-1,6.33-2.44,8.83a47.14,47.14,0,0,1-12.81,14c-3.54,2.6-7.65,3.73-11.59,5.28a35.82,35.82,0,0,1-20.89,1.62c-10-2.17-20.63-3.34-27.8-12.22-2.76-3.42-6.86-5.71-8.58-10C510.36,546.51,509.21,544.89,510.36,543Z"/><path class="cls-120" d="M604.54,437.11c-2.6,1.36-3.83,4.17-6,5.83-5.7,4.27-9.59,10.67-17.27,12.68-11.61,3-23.49,3.36-35.25,4a60,60,0,0,1-25.47-3.9c-2.69-1.07-6-2.23-4.86-6.65.56-2.07-1.18-2.88-2.92-3.43a24.34,24.34,0,0,1-15.68-14,1.77,1.77,0,0,1,1.66-.81,3.71,3.71,0,0,1,.67.07c9.22,4.61,18.6,8.38,29,10.15a161.9,161.9,0,0,0,32.2,2,59,59,0,0,0,19.67-4.31c1.66-1.12,3.69-.88,5.49-1.49,3.47-.44,6.87-1,9.85-3.06,7.63-4.05,6.4-1.24,7.42.6Z"/><path class="cls-121" d="M496.26,458.29c.46-.91.85-1.33,2.09-.75a95.37,95.37,0,0,0,30.85,8.21c5.86.62,11.84,1.14,17.72,1.78,8.28.89,16.32-2.09,24.48-3.25,4.34-.61,8.38-2.59,13.55-2.83-3.12,3.83-7.25,4.73-10.81,5.92-9.95,3.33-20.27,6.22-30.81,4.83-7.76-1-15.62-1.52-23.35-3.32-6.74-1.58-13.25-3.31-19.38-6.56-1.68-.89-2.64-2.52-4.34-3.25Z"/><path class="cls-122" d="M562.93,441l.84,0a67.38,67.38,0,0,1,13.58-2.56,4.11,4.11,0,0,1,3.61,1c-2.23,1.82-5.09,1.7-7.65,2.52-11.06,3.57-22.59,3.06-33.71,1.89-10.67-1.13-21.75-2.35-31.59-7.61-3-1.6-5.76-3.54-8.64-5.32,3,.1,5.39,1.62,8,2.87,9.31,4.4,19.51,5.27,29.56,6.57a2.87,2.87,0,0,0,3.29,1.47,5.65,5.65,0,0,1,2.89-1.07C549.74,440.85,556.34,439.92,562.93,441Z"/><path class="cls-123" d="M548.31,514c-5.1-.1-11.09.25-17-.79a29,29,0,0,1-8.34-3.2c-.71-.36-1.43-.83-1.2-1.77a1.79,1.79,0,0,1,2.13-1.31c2.06.19,4.11.67,6.17.74,10.56.38,21.2.48,31.6-1,8.43-1.21,16.93-2.05,25.33-3.47,3-.52,6.32.47,9.17-1.39a.79.79,0,0,1,1.2.56,2,2,0,0,1-.87,2c-3.34,2.82-7.37,4.27-11.42,5.63C573.38,514,561.29,514,548.31,514Z"/><path class="cls-124" d="M587.53,490.6c-.32,1.76-1.64,2.3-2.83,2.64-9.09,2.61-18,5.53-27.79,5.21-10.4-.35-20.86-.09-31.12-1.85a97.38,97.38,0,0,1-21.22-6,3.83,3.83,0,0,1-1-.55c-1.24-1.1-3.35-2.3-2.31-4,.86-1.41,2.71,0,4,.65a57,57,0,0,0,19,5c10.83.85,21.59,3.47,32.51,2.53,9.76-.84,19.47-2.36,29.21-3.58C586.47,490.65,587,490.64,587.53,490.6Z"/><path class="cls-50" d="M546.87,485.73c-6.49-.07-13,.33-19.47-.73-1.88-.31-3.77-1.07-3.81-2.67-.07-2.21,2.21-2,3.89-2.05,5.87,0,11.75.07,17.62,0,9.86-.15,19.63-1.92,29.53-1.66,2.08.05,3.76-1.86,6-1.46.63.11,1.35,0,1.69.71s0,1.5-.61,2.07a10.3,10.3,0,0,1-3.75,2C567.92,486,557.42,486,546.87,485.73Z"/><path class="cls-125" d="M547.48,458.36c-9.5-.12-17.54-.62-25.21-3.35-2.38-.84-6.47-1.61-5.2-5,1-2.72,4.5-.4,6.54.18,9.88,2.8,19.87,1.83,29.86,1.45.38,0,.75-.3,1.13-.31,10.51-.2,20.91-2.64,31.49-1.64.85.08,2.08-.39,2.33.81s-.94,1.42-1.73,1.8c-3.91,1.88-8.13,2.72-12.33,3.58C565,457.77,555.51,457.66,547.48,458.36Z"/></svg>