<svg id="Layer_1" data-name="Layer 1" xmlns="http://www.w3.org/2000/svg" viewBox="0 0 920 920"><defs><style>.cls-1{fill:#6c8aec;}.cls-2{fill:#1746e0;}.cls-3{fill:#ffb8b8;}.cls-4{fill:#335eea;}.cls-5{fill:#ffb6b6;}.cls-6{fill:#a0616a;}.cls-7{fill:#e6e6e6;}.cls-8{fill:#636267;}.cls-9{fill:#acabb0;}.cls-10{fill:#fbaa37;}.cls-11{fill:#9e616a;}.cls-12{fill:#9f616a;}</style></defs><rect class="cls-1" x="714.93" y="457.27" width="113.32" height="4.12"/><polygon class="cls-2" points="714.57 494.36 721.43 494.36 724.87 325.39 718 325.39 714.57 494.36"/><polygon class="cls-2" points="829.35 494.36 822.48 494.36 819.04 325.39 825.91 325.39 829.35 494.36"/><path class="cls-1" d="M737,288.3h70.14a18.94,18.94,0,0,1,18.94,18.94v18.16a0,0,0,0,1,0,0h-108a0,0,0,0,1,0,0V307.23A18.94,18.94,0,0,1,737,288.3Z"/><path class="cls-1" d="M717.09,379H826.8a0,0,0,0,1,0,0v0a12.36,12.36,0,0,1-12.36,12.36h-85A12.36,12.36,0,0,1,717.09,379v0A0,0,0,0,1,717.09,379Z"/><rect class="cls-1" x="77.79" y="462.43" width="113.32" height="4.12"/><polygon class="cls-2" points="77.43 499.52 84.3 499.52 87.73 330.55 80.86 330.55 77.43 499.52"/><polygon class="cls-2" points="192.21 499.52 185.34 499.52 181.9 330.55 188.77 330.55 192.21 499.52"/><path class="cls-1" d="M99.87,293.46H170a18.94,18.94,0,0,1,18.94,18.94v18.16a0,0,0,0,1,0,0h-108a0,0,0,0,1,0,0V312.39A18.94,18.94,0,0,1,99.87,293.46Z"/><path class="cls-1" d="M80,384.12H189.66a0,0,0,0,1,0,0v0a12.36,12.36,0,0,1-12.36,12.36h-85A12.36,12.36,0,0,1,80,384.12v0A0,0,0,0,1,80,384.12Z"/><rect class="cls-1" x="776.4" y="593.54" width="113.32" height="4.12"/><polygon class="cls-2" points="776.04 630.63 782.91 630.63 786.34 461.66 779.47 461.66 776.04 630.63"/><polygon class="cls-2" points="890.82 630.63 883.95 630.63 880.51 461.66 887.38 461.66 890.82 630.63"/><path class="cls-1" d="M798.48,424.57h70.14a18.94,18.94,0,0,1,18.94,18.94v18.16a0,0,0,0,1,0,0h-108a0,0,0,0,1,0,0V443.5A18.94,18.94,0,0,1,798.48,424.57Z"/><path class="cls-1" d="M778.56,515.24H888.27a0,0,0,0,1,0,0v0a12.36,12.36,0,0,1-12.36,12.36h-85a12.36,12.36,0,0,1-12.36-12.36v0A0,0,0,0,1,778.56,515.24Z"/><rect class="cls-1" x="400.87" y="347.64" width="113.32" height="4.12"/><polygon class="cls-2" points="400.51 384.73 407.38 384.73 410.81 215.76 403.94 215.76 400.51 384.73"/><polygon class="cls-2" points="515.29 384.73 508.42 384.73 504.99 215.76 511.86 215.76 515.29 384.73"/><path class="cls-1" d="M423,178.67h70.14A18.94,18.94,0,0,1,512,197.6v18.16a0,0,0,0,1,0,0H404a0,0,0,0,1,0,0V197.6A18.94,18.94,0,0,1,423,178.67Z"/><path class="cls-1" d="M403,269.34H512.75a0,0,0,0,1,0,0v0a12.36,12.36,0,0,1-12.36,12.36h-85A12.36,12.36,0,0,1,403,269.34v0A0,0,0,0,1,403,269.34Z"/><rect class="cls-1" x="21.89" y="593.54" width="113.32" height="4.12"/><polygon class="cls-2" points="21.53 630.63 28.4 630.63 31.83 461.66 24.97 461.66 21.53 630.63"/><polygon class="cls-2" points="136.31 630.63 129.44 630.63 126.01 461.66 132.88 461.66 136.31 630.63"/><path class="cls-1" d="M44,424.57h70.14A18.94,18.94,0,0,1,133,443.5v18.16a0,0,0,0,1,0,0H25a0,0,0,0,1,0,0V443.5A18.94,18.94,0,0,1,44,424.57Z"/><path class="cls-1" d="M24.06,515.24H133.77a0,0,0,0,1,0,0v0A12.36,12.36,0,0,1,121.4,527.6h-85a12.36,12.36,0,0,1-12.36-12.36v0A0,0,0,0,1,24.06,515.24Z"/><rect class="cls-1" x="226.11" y="372.15" width="113.32" height="4.12"/><polygon class="cls-2" points="225.75 409.24 232.62 409.24 236.05 240.26 229.18 240.26 225.75 409.24"/><polygon class="cls-2" points="340.53 409.24 333.66 409.24 330.23 240.26 337.09 240.26 340.53 409.24"/><path class="cls-1" d="M248.19,203.17h70.14a18.94,18.94,0,0,1,18.94,18.94v18.16a0,0,0,0,1,0,0h-108a0,0,0,0,1,0,0V222.11A18.94,18.94,0,0,1,248.19,203.17Z"/><path class="cls-1" d="M228.27,293.84H338a0,0,0,0,1,0,0v0a12.36,12.36,0,0,1-12.36,12.36h-85a12.36,12.36,0,0,1-12.36-12.36v0A0,0,0,0,1,228.27,293.84Z"/><polygon class="cls-3" points="745.87 715.71 730.52 715.77 735.63 755.87 746.04 755.83 745.87 715.71"/><polygon class="cls-3" points="686.49 710 671.97 705.01 663.6 744.56 673.43 747.94 686.49 710"/><path d="M674.43,746.16l-2.64-.9-8.87-7.74-7,2.29h0a12.45,12.45,0,0,0-15.83,7.72l-.13.38,30.25,10.41Z"/><path d="M748.65,751.63l-2.79,0-10.92-4.39-5.83,4.45h0a12.45,12.45,0,0,0-12.4,12.51v.4l32-.13Z"/><path d="M719.28,634l60.51,4.38a21.34,21.34,0,1,0,3.08-42.56h0l-60.51-4.38A21.34,21.34,0,0,0,719.28,634Z"/><circle id="a947ada5-bf6f-4e8a-be72-c0404926012e" class="cls-3" cx="749.16" cy="449.22" r="21.68"/><path d="M765.34,630.35l17.24-5c11.22-11.63,10.71-30.47-1.54-41-6.83-5.87-16.35-8.15-29.27.11-33.2,21.24-28.3,145.28-28.3,145.28l27.46,5.17Z"/><path d="M717.09,640.13l19.32-2.65c13.57-8.78,17.35-27.24,7.81-40.28-5.31-7.27-14.07-11.65-28.52-6.54-37.16,13.14-57.28,130-57.28,130l26.32,3.18Z"/><path class="cls-4" d="M721.27,575.4c-.66-.54-8.2-76.44-8.2-76.44a.6.6,0,0,1,0-.19,2,2,0,0,1,1.21-1.95l.61-.26,13.1-5.65,4.54-2a2,2,0,0,0,.9-.76l6.16-9.5a2.07,2.07,0,0,1,1.56-.92l22.63-1.65a2.15,2.15,0,0,1,1.4.44l13.52,10.66a1.78,1.78,0,0,0,.54.3l18.7,7.17a2,2,0,0,1,1.3,2.12s3.08,120.37,2.68,120.82c-.75.85-66.79-16.46-77.91-13.11C723.78,604.59,721.78,575.81,721.27,575.4Z"/><path d="M756.45,468.72l.11,0-.23.63Z"/><path class="cls-3" d="M682.36,623.19a10.4,10.4,0,0,0,9.07,9c5.47.5,10.21-3.87,10.61-9.74l12.78-31.23-11-15.78-11.68,35.43a9.11,9.11,0,0,0-1.73.14c-5.37.92-9,6.37-8,12.16Z"/><path class="cls-4" d="M711.27,552.81l-9.4-35.45c-2-7.35,1.08-15.13,7.29-18.72h0l7.09-3.83,10.56-.19,9.61,31,5.87,24.9-23.86,42.37-7.27,12.91-1.38-2.28L700,587.19l-.93-1.55Z"/><path d="M728.72,443c2.32-1.69,5.2-3.45,7.74-2.11,3.26,1.72,3.14,6.78,2.89,10.75a63.26,63.26,0,0,0,.19,10.57c.28,2.68.77,5.48,2.34,7.58s4.12,3,6.11,1.93l1.26.26a21.56,21.56,0,0,0,20.35-7.47l.07-.07c2.23-2.57,5.07-4.45,7.05-7.26,3-4.3,3.57-10.21,2.92-15.67-.49-4.21-1.72-8.5-4.36-11.61s-6.94-4.75-10.43-3.1c1.76-1,1.42-4.17-.14-5.55s-3.72-1.47-5.71-1.49l-19.23-.22,4.16,3.69a16.6,16.6,0,0,1-5.12-1.08,6.42,6.42,0,0,0,.53,3c-.17-.15-.34-.28-.52-.41a6,6,0,0,0-8.32,1.39,12.25,12.25,0,0,0-1.72,5.14A41,41,0,0,0,728.72,443Z"/><path class="cls-4" d="M785.69,490.53l13.84,4.28,29.62,65.75-32.91,33.31-2.64,2.37-2.46,2.23-6.47,5.83-9.06-11.46,10.57-17,4.29-6.93,5.2-8.37,3.36-5.41c-7.32-7.68-13.54-18.07-19.06-30.55Z"/><polygon class="cls-5" points="255.53 370.7 246.85 375.84 222.9 344.81 235.71 337.23 255.53 370.7"/><path d="M262.73,377.8l-28,16.57-.21-.35A12.65,12.65,0,0,1,239,376.68h0l17.09-10.12Z"/><polygon class="cls-5" points="297.44 370.7 306.11 375.84 330.07 344.81 317.26 337.23 297.44 370.7"/><path d="M296.9,366.56,314,376.68h0A12.66,12.66,0,0,1,318.43,394l-.21.35-28-16.57Z"/><path d="M303.4,252.33s-28.31,19.94-55.87,1.94l-.43,12.55s-59,25-49.34,44.59,30.05,39.85,30.05,39.85l11.11-9.15-12.41-31.35,33.76-14.31,29.44.15,41,16.61-19.6,29.4L328.42,348s41.16-37.89,32.34-48.67c-7.07-8.64-49.39-28-49.39-28Z"/><path class="cls-4" d="M313.25,179.17l-24.5-8.12-6.06-8.6H265.05l-5.22,8.74-22.73,8a5.23,5.23,0,0,0-3.71,5.91l10.1,83.21L259.82,267s22,17.17,35.28-2.61l.71-10,13.67,13.25L317,185.08A5.23,5.23,0,0,0,313.25,179.17Z"/><path d="M294.44,122.75c-7.25-12.24-21.58-12.81-21.58-12.81s-14-1.79-22.93,16.85c-8.35,17.38-19.88,28.28-1.85,32.35L251.33,149l2,10.89a73.42,73.42,0,0,0,7.71.13c19.3-.63,37.68.18,37.09-6.75C297.36,144.08,301.41,134.53,294.44,122.75Z"/><circle class="cls-3" cx="274.52" cy="140.19" r="18.95"/><polygon points="291.89 120.92 277.73 113.5 258.17 116.53 254.13 134.4 264.2 134.01 267.01 127.45 267.01 133.91 271.66 133.73 274.36 123.28 276.04 134.4 292.56 134.06 291.89 120.92"/><path class="cls-5" d="M292.2,305.48a6.13,6.13,0,0,0,2.56-8.28,6.07,6.07,0,0,0-.59-.9l13.35-36.5-10.22-5.2-12.11,40.86a6.16,6.16,0,0,0,7,10Z"/><path class="cls-4" d="M305.1,193.53l-14.89,64.74a2.62,2.62,0,0,0,2,3.1l14.34,2.06a2.61,2.61,0,0,0,3.14-1.94,1.89,1.89,0,0,0,.05-.23l4.36-67.45Z"/><path class="cls-5" d="M258.15,306.79a6.13,6.13,0,0,1-2.55-8.28,6.67,6.67,0,0,1,.58-.91l-13.34-36.5,10.21-5.2,12.12,40.86a6.16,6.16,0,0,1-7,10Z"/><path class="cls-4" d="M245.26,194.84l14.89,64.74a2.61,2.61,0,0,1-2,3.09l-14.34,2.07a2.61,2.61,0,0,1-3.14-1.95,1.7,1.7,0,0,1,0-.22L235,195.12Z"/><rect class="cls-1" x="575.63" y="372.15" width="113.32" height="4.12"/><polygon class="cls-2" points="575.27 409.24 582.14 409.24 585.58 240.26 578.71 240.26 575.27 409.24"/><polygon class="cls-2" points="690.05 409.24 683.18 409.24 679.75 240.26 686.62 240.26 690.05 409.24"/><path class="cls-1" d="M597.71,203.17h70.14a18.94,18.94,0,0,1,18.94,18.94v18.16a0,0,0,0,1,0,0h-108a0,0,0,0,1,0,0V222.11A18.94,18.94,0,0,1,597.71,203.17Z"/><path class="cls-1" d="M577.8,293.84H687.51a0,0,0,0,1,0,0v0a12.36,12.36,0,0,1-12.36,12.36h-85a12.36,12.36,0,0,1-12.36-12.36v0A0,0,0,0,1,577.8,293.84Z"/><polygon class="cls-6" points="446.55 619.98 460.52 619.98 467.16 566.1 446.55 566.1 446.55 619.98"/><path d="M443,615.42H470.5A17.52,17.52,0,0,1,488,632.94v.57H443Z"/><polygon class="cls-6" points="337.8 613.93 351.61 616.02 366.23 563.74 348.13 560.66 337.8 613.93"/><path d="M335,608.89l27.2,4.11h0a17.53,17.53,0,0,1,14.72,20l-.09.57-44.53-6.73Z"/><path class="cls-2" d="M475,296.8l0,.1a8.52,8.52,0,1,1-1.47-2.95A8.34,8.34,0,0,1,475,296.8Z"/><path class="cls-7" d="M475,296.8a121.62,121.62,0,0,1-13.45,9.05,8.46,8.46,0,0,1-1.49-1.5,88.85,88.85,0,0,0,14.11-9.49A8.11,8.11,0,0,1,475,296.8Z"/><path d="M489.86,327.34l-15.17-25-8.07,5.4L484.51,331a2,2,0,0,0,2.75.43l.28-.2.59,1a1,1,0,0,0,1.39.34l.08-.06,0,0a1,1,0,0,0,.22-1.38l-.71-1,.17-.12A2,2,0,0,0,489.86,327.34Z"/><path class="cls-7" d="M477.05,315.93a.6.6,0,0,1-.67-.27l-1.09-1.79a.6.6,0,0,1,.13-.77l.91-.75a.59.59,0,0,1,.84.09l0,0,1.22,1.75a.59.59,0,0,1-.12.81h0l-1.05.8A.75.75,0,0,1,477.05,315.93Zm-.39-3.31-.08,0-.91.75a.2.2,0,0,0,0,.25l1.09,1.8a.2.2,0,0,0,.27.06h0l1.05-.79a.2.2,0,0,0,0-.27l-1.23-1.75a.16.16,0,0,0-.13-.08Z"/><rect class="cls-8" x="363.08" y="430.49" width="79.2" height="51.43" rx="7.95"/><rect class="cls-9" x="357.94" y="445.92" width="5.14" height="20.57"/><path class="cls-6" d="M380.86,353l15.51,4.06-1,25.14L395.21,428a9.17,9.17,0,1,1-12.76,2.33,8.12,8.12,0,0,1,.62-.8l-4.77-45.95Z"/><path class="cls-10" d="M378.16,324.19A12.66,12.66,0,0,1,386,312.93,11.83,11.83,0,0,1,398.8,315a11.28,11.28,0,0,1,3.76,8.73c0,14.73-3.28,36.2-3.32,36.41l-.05.34-22.67,7.64Z"/><path d="M418.69,366l34.67-9,16,54L470,612.09l-26.51-.17L432.36,449.17,361.73,599.55l-28.48-3.41,62.09-161.21s-3.42-28.49,7.4-42.73l-2.28-14.81Z"/><path class="cls-10" d="M395.32,379.43a5.29,5.29,0,0,1-1.14-4.28l-15.81-47.44A12.05,12.05,0,0,1,381.7,315l6.86-6.24,4.65-18.61L420,296.66l-2.2,8.81,12.1-2.2L455.34,360l-53.28,21.3-2.62,0A5.3,5.3,0,0,1,395.32,379.43Z"/><polygon class="cls-6" points="460.15 356.09 446.57 366.5 432.43 339.37 447.71 334.51 460.15 356.09"/><path class="cls-6" d="M476,308.73A9.18,9.18,0,0,1,482.36,326a6.38,6.38,0,0,1-1,.29l-22.54,40.33-.05.05L444,358.09l.16-.2,26.44-37.37A9.19,9.19,0,0,1,476,308.73Z"/><ellipse class="cls-6" cx="453.02" cy="363.66" rx="7.24" ry="7.79"/><path class="cls-10" d="M414.75,316.47a12.67,12.67,0,0,1,.6-13.7,11.85,11.85,0,0,1,11.93-5.1,11.25,11.25,0,0,1,7.84,5.36c7.91,12.43,16.58,32.35,16.66,32.55l.14.32-15.08,18.57Z"/><circle cx="375.45" cy="235.98" r="20.47"/><path d="M357.8,252.93a20.45,20.45,0,0,0,31.6-10.75,20.46,20.46,0,1,1-40.61-5.1,20.24,20.24,0,0,1,.69-3.29A20.48,20.48,0,0,0,357.8,252.93Z"/><path d="M438.57,253c-3.58-6.39-4.94-9.07-9.55-13-4.07-3.44-9.09-4.45-13.13-1.19A24.19,24.19,0,1,0,430.5,261a25.19,25.19,0,0,0-.17-2.74C433.85,257.79,435.05,253.44,438.57,253Z"/><circle class="cls-6" cx="413" cy="265.41" r="21.25"/><polygon points="388.74 261.02 395.92 246.94 415.89 238.8 438.57 252.95 401.6 275.8 391.75 270.75 388.74 261.02"/><rect class="cls-1" x="714.93" y="715.22" width="113.32" height="4.12"/><polygon class="cls-2" points="714.57 752.31 721.43 752.31 724.87 583.34 718 583.34 714.57 752.31"/><polygon class="cls-2" points="829.35 752.31 822.48 752.31 819.04 583.34 825.91 583.34 829.35 752.31"/><path class="cls-1" d="M737,546.25h70.14a18.94,18.94,0,0,1,18.94,18.94v18.16a0,0,0,0,1,0,0h-108a0,0,0,0,1,0,0V565.18A18.94,18.94,0,0,1,737,546.25Z"/><path class="cls-1" d="M717.09,636.92H826.8a0,0,0,0,1,0,0v0a12.36,12.36,0,0,1-12.36,12.36h-85a12.36,12.36,0,0,1-12.36-12.36v0A0,0,0,0,1,717.09,636.92Z"/><rect class="cls-1" x="77.79" y="715.22" width="113.32" height="4.12"/><polygon class="cls-2" points="77.43 752.31 84.3 752.31 87.73 583.34 80.86 583.34 77.43 752.31"/><polygon class="cls-2" points="192.21 752.31 185.34 752.31 181.9 583.34 188.77 583.34 192.21 752.31"/><path class="cls-1" d="M99.87,546.25H170a18.94,18.94,0,0,1,18.94,18.94v18.16a0,0,0,0,1,0,0h-108a0,0,0,0,1,0,0V565.18A18.94,18.94,0,0,1,99.87,546.25Z"/><path class="cls-1" d="M80,636.92H189.66a0,0,0,0,1,0,0v0a12.36,12.36,0,0,1-12.36,12.36h-85A12.36,12.36,0,0,1,80,636.92v0A0,0,0,0,1,80,636.92Z"/><path class="cls-4" d="M751.72,283.61l-5.42,16.08L777.24,315a14.16,14.16,0,0,0,14-.73h0A14,14,0,0,0,797,298.52l-15.82-52.85a14.89,14.89,0,0,0-17.68-10.44h0A14.25,14.25,0,0,0,753,252.38c0,.15.07.29.11.43a13.24,13.24,0,0,0,.48,1.51l14.79,37.15Z"/><rect class="cls-3" x="754.9" y="304.8" width="41.3" height="41.97" transform="translate(-33.47 95.35) rotate(-6.89)"/><polygon class="cls-5" points="670.11 441.87 653.8 438.41 650.31 482.78 661.36 485.12 670.11 441.87"/><polygon class="cls-5" points="696.88 430.28 681.27 436.08 701.4 475.71 711.98 471.78 696.88 430.28"/><path d="M798.41,355.2c15,54.68-98.48,35-98.48,35l-28.51,52.25-20.54-1.29s5.56-30,17-70.62c5.09-18.06,87-23.69,87-23.69l.06-13.69,46.46-6.55Z"/><path d="M695,378.66,665.31,383c9.82,41.19,16.05,57.34,16.05,57.34L698,432.62Z"/><path class="cls-4" d="M760.46,237.78,767.41,226l11.71-1.94,2.4,10,6.17,2a162.6,162.6,0,0,1,10.95,68.56h0a6.23,6.23,0,0,0-1,6.16l.57,1.49,0,.06a9.15,9.15,0,0,0-.36,6.84h0l3.39,4.69a14.52,14.52,0,0,1-3,20.1,13.26,13.26,0,0,1-2,1.23c-16.36,8.38-32.13,12.67-46.14-3.59l-11.19-61.23Z"/><ellipse class="cls-3" cx="765.25" cy="206.25" rx="22.28" ry="21.93" transform="matrix(0.07, -1, 1, 0.07, 507.65, 955.78)"/><path d="M778.05,180.2c9.25.81,16,10,15.09,20.61,6.36,7.74,3.49,16.47-2.88,25.59-10.56.53-13,.88-22.49,4.06l-.82-5.83-3.25,7.3q-3.62,1.41-7.2,3.13c-1.13-7.81-.21-15.27,4.67-21.49,4.34-5.53-4.8-13.06-11.73-12.55h0l.46-5.32-2.08,5.17c-2.82,1.82-5.73.9-8.67-.75h0C736,173.78,774.6,169.25,778.05,180.2Z"/><path d="M667.07,494.24l-7.09-.09-1.22-6.81-3.29,6.76-18.8-.22a4.31,4.31,0,0,1-2.34-7.85l15.09-10.36.06-6.87L665.26,470Z"/><path d="M717.26,481.84l-6.87,1.76-2.88-6.28L706,484.71l-18.22,4.66a4.24,4.24,0,0,1-5.14-3.12,4.34,4.34,0,0,1,.91-3.87l12-13.94-1.67-6.66,15.53-3Z"/><path class="cls-5" d="M699.88,276.39a10.08,10.08,0,0,1,12.43,6.55,10.51,10.51,0,0,1,.36,1.57l34.22,7.29-12.67,12.59-30.56-8.85a10.12,10.12,0,0,1-10.14-7,9.6,9.6,0,0,1,6.11-12.13h0Z"/><path class="cls-4" d="M717.81,283.72,712.4,299.8l68.09,20a14.16,14.16,0,0,0,14-.73h0a14,14,0,0,0,5.79-15.73l-15.82-52.84a14.88,14.88,0,0,0-17.68-10.44h0a14.25,14.25,0,0,0-10.48,17.15c0,.14.07.29.11.43a13.91,13.91,0,0,0,.48,1.51l14.79,37.15Z"/><path d="M651,313.77l-67.33-8.07a23.85,23.85,0,0,1,5.68-47.37h0l67.33,8.08A23.85,23.85,0,1,1,651,313.77Z"/><path class="cls-2" d="M637.77,144.44l9.87,9.57,12.62,5.6c-1.11.76-6.91,79,.57,82.28,6.37,2.77-.12,5.07.1,11.52s1,19.74,1,19.74c-35,13.48-48.62,14.79-69-8.35a5.72,5.72,0,0,1,3.87-6c4.51-1.74-2.38-13.23,1.3-14.57s.63-17.18.63-17.18L591,191.34,589,186l9.9-30.38L610.11,153l5.51-9.79Z"/><path class="cls-2" d="M571.6,233.39h0c.14-.26,25.17-21.5,32.55-36.25,1.14-2.27,2.25-4.51,3.31-6.68.45-.93.9-1.85,1.33-2.75,2.93-6.06,5.27-11.19,6.18-13.88a28,28,0,0,0-.05-18.62l-.06-.15-.13-.08a14.2,14.2,0,0,0-17.55,2.76,100.54,100.54,0,0,0-22.25,40.43l-3.33,10.58"/><polygon class="cls-5" points="578.48 392.67 586.86 400.32 620.36 371.62 607.98 360.33 578.48 392.67"/><path d="M578.83,388l2.36,2.16,12.64,4.66,1.52,8.25h0a14.24,14.24,0,0,1,.92,20.12l-.31.35-27-24.67Z"/><path d="M642,303.39l-7.23-14c.6-14.15,12.87-25.2,27-23.79,7.85.78,15.06,5.46,17.61,18.65C685.91,318.18,604.2,390,604.2,390l-19.88-14.31Z"/><circle class="cls-6" cx="620.66" cy="117.69" r="21.64"/><polygon class="cls-5" points="638.08 390.55 628.61 396.8 599.99 363.23 613.97 354.01 638.08 390.55"/><path d="M646.56,398.14,616,418.29l-.26-.38a14.25,14.25,0,0,1,4-19.74h0l2.79-7.91,13.2-2.64,2.67-1.76Z"/><path d="M594.78,302l9-14.56c1.61-14.07-8.8-26.91-22.94-27.71-7.87-.44-15.71,3.05-20.29,15.68-11.79,32.47,56.17,111.15,56.17,111.15l16.8-16.06Z"/><path d="M646.68,112.83a20,20,0,0,0-14.17-15,12.54,12.54,0,0,0-9-6c-3.49-.47-7,.57-10.33,1.63-2.06.66-4.13,1.33-6.19,2-1.67.57-3.73,1.85-3.17,3.53a2.17,2.17,0,0,0-2.92.92,2.14,2.14,0,0,0,.1,2.16c-.78-1-2.58-.35-3,.84a4.46,4.46,0,0,0,.71,3.61,16.52,16.52,0,0,0,18.88,7.24c2-.67,4.14-1.77,6.24-1.28a5.92,5.92,0,0,1,4,4.26,15.34,15.34,0,0,1,.33,5.23,2.56,2.56,0,0,1,3.35-1.34,3.9,3.9,0,0,1,1.66,4.35c-.37,1.63-4.26,8-5.29,9.27a11.09,11.09,0,0,0-2.42,4.34l11.07-1.7.2.2C642.41,132.69,648.12,119.93,646.68,112.83Z"/><path class="cls-6" d="M593.67,265.22A9.48,9.48,0,0,1,606,259.9a9,9,0,0,1,1.49.75l26.14-21.27,1.75,17.42-25.09,17.53a9.53,9.53,0,0,1-16.6-9.11Z"/><path class="cls-6" d="M516.61,253.63a9.49,9.49,0,0,1,12.31-5.33,9.89,9.89,0,0,1,1.49.75l26.14-21.27,1.75,17.43-25.09,17.52a9.53,9.53,0,0,1-16.6-9.1Z"/><path class="cls-2" d="M635,260c3.15,1.13,5.59.29,6.58-4.51l29.63-20.3V235c3.87-.3,3-57.44-2.94-60.24a28,28,0,0,0-9.08-16.25l-.12-.1h-.16a14.21,14.21,0,0,0-14,10.92,100.5,100.5,0,0,0,.18,46.15l2.08,8.63L634.23,235c-3.57-.93-5.16.51-4.89,4.15Z"/><path class="cls-2" d="M548.37,256.46c3.3.56,5.55-.69,5.69-5.59l25.61-25.18,0-.25c3.75-1-6.62-18.92-6.62-18.92L543.21,232c-3.68-.3-5,1.4-4.09,4.94Z"/><polygon class="cls-6" points="302.48 819.48 312.88 819.52 318 779.42 302.65 779.35 302.48 819.48"/><polygon class="cls-6" points="375.09 811.59 384.92 808.2 376.55 768.65 362.03 773.65 375.09 811.59"/><path d="M378.27,822l30.25-10.41-.13-.38a12.47,12.47,0,0,0-15.83-7.73h0l-7-2.29-8.86,7.74-2.64.91Z"/><path d="M299.82,828.14l32,.13v-.41a12.46,12.46,0,0,0-12.4-12.5h0l-5.83-4.46-10.92,4.39h-2.79Z"/><path d="M329.24,697.61,268.73,702a21.34,21.34,0,0,1-3.08-42.57h0l60.51-4.37a21.34,21.34,0,0,1,3.08,42.56Z"/><path d="M283.17,694l-17.24-5c-11.21-11.63-10.7-30.47,1.55-41,6.82-5.86,16.35-8.14,29.26.12,33.21,21.24,28.31,145.28,28.31,145.28l-27.46,5.17Z"/><path d="M331.43,703.78l-19.33-2.65c-13.56-8.78-17.34-27.24-7.8-40.29,5.31-7.26,14.07-11.64,28.52-6.53,37.16,13.14,57.28,130,57.28,130l-26.32,3.18Z"/><path class="cls-11" d="M236.28,693.67a7.62,7.62,0,0,1-12.24-8.9l4.12-24.11L241.35,656l-6.47,26.14a7.1,7.1,0,0,1,1.05.83,7.57,7.57,0,0,1,.35,10.71Z"/><path class="cls-4" d="M278.76,529.76l-1.95-4.09S247,540.22,247.72,547,220,672,219.5,675.52l25.42.37s14-45.84,17.06-48.08a11.58,11.58,0,0,0,4.61-8.24c0-2.26-1.48-2.28,2.31-5.26s1.68-16.56,1.68-16.56L276,584.23Z"/><circle class="cls-11" cx="288.03" cy="491.14" r="22.61"/><path class="cls-4" d="M332.14,662c1.58,2-78.16,7.66-83.43,7.85s-.13-3.4.52-6.15,4.75-85.72,2.12-95.85c-.66-2.53-.14-5.68,1-9,4.43-12.74,5.68-11.29,23.68-34.45,4-1,15.74-2.62,22.59-.83,13.24,11.1,20.07,19.62,20.07,19.62S330.56,660,332.14,662Z"/><path d="M295.11,512.49A48.61,48.61,0,0,1,281,513.61a26,26,0,0,1-13.19-4.69,23.23,23.23,0,0,1-8.47-13,29.25,29.25,0,0,1,.65-15.66c.82-2.63,2.07-5.28,4.29-6.92s5.64-1.92,7.63,0a13,13,0,0,1,5.53-7.25,18.52,18.52,0,0,1,8.79-2.77,23.76,23.76,0,0,1,17,5.63l3.65-2.23.19,4.33,3.56-1.39-.37,3.12,4.32-1.06A20.67,20.67,0,0,1,303,481c-2.54.79-5.49,1.27-7,3.45-1.66,2.41-.75,5.67.22,8.43a5.68,5.68,0,0,0-7.24-.24,7.83,7.83,0,0,0-2.73,7.05,12.89,12.89,0,0,0,3.41,7,38.11,38.11,0,0,0,6,5.12"/><path class="cls-11" d="M357.39,686.94a7.61,7.61,0,0,0,9.94-11.4L357.94,653,344,651.34l12.14,24a8.31,8.31,0,0,0-.84,1,7.57,7.57,0,0,0,2.06,10.52Z"/><path class="cls-4" d="M301.08,587.49l8.28,12s1,13.72,5.33,15.77,2.9,2.41,3.43,4.61a11.61,11.61,0,0,0,6.33,7c3.45,1.49,27.35,43,27.35,43L372,665.06c-1.24-3.31-50.79-113.39-51.63-120.16S310,534.19,310,534.19L302.69,536Z"/><path class="cls-5" d="M122.16,462.34a21.66,21.66,0,0,0,24.81,18c.64-.1,1.28-.23,1.9-.39A21.66,21.66,0,0,0,165,455.52a21.22,21.22,0,0,0-1.41-4.95,21.66,21.66,0,0,0-41.38,11.77Z"/><polygon class="cls-5" points="238.99 736.31 248.72 733.42 242.28 693.63 227.92 697.91 238.99 736.31"/><path class="cls-5" d="M179.3,720.61l1.79,1.54c1.19,1,2.4,2,3.61,3l1.84,1.49v0h.05l1,.42,2.08-3.65,1-1.68,1.36-2.38,2.49-4.36,13.1-22.92-13.8-5.82-.89,2.12h0l-.44,1L184.19,709l-1.68,4-.06.13-1,2.38-.87,2.07-1,2.31Z"/><path class="cls-8" d="M107.2,621.4q1,2.4,2.09,4.8c1.32,3,2.68,5.88,4.11,8.78,0,0,0,0,0,0a18.06,18.06,0,0,0,3.11,3.13l.15.13a13.46,13.46,0,0,0,2.78,1.66l1.08.46c1.29.53,2.57,1,3.86,1.46,2.28.79,4.57,1.46,6.85,2l.55.13c9.4,2.21,18.83,2.55,28.78,2.24,4.92-.15,10-.46,15.18-.78l5.15-.32.41,0c2.48-.15,5-.28,7.56-.4q4.86-.23,10-.32l-1,4.7c-.77,3.62-18.71,54.51-18.71,54.51l-.87,1.49-.2.14h0l20.69,10.53,19.57-27.44.94-1.31v-.07l7.53-57.51c.06-.51.1-1,.12-1.54a17.59,17.59,0,0,0-4.77-12.77,17,17,0,0,0-11.95-5.4l-5.18-.14-10.6-.31L187,609h-.15l-22-.63-.55-6.55-.27-.16-8.55-4.76-29.6-16.5-.07,0-2-1.08-.31.36-.27.33a62.07,62.07,0,0,0-6.79,10.73,184,184,0,0,0-8.37,19.09c-.11.28-.2.54-.28.77l0,.07a1.24,1.24,0,0,1-.07.2C106.53,613.78,106.45,617.54,107.2,621.4Z"/><path class="cls-8" d="M109.22,600.08c.17-.41.36-.82.56-1.22a92.18,92.18,0,0,1,5.16-8.73c2.11-3.21,4.58-6.61,7.45-10.26,1.39-1.77,2.88-3.61,4.46-5.5.79-1,1.61-1.92,2.45-2.9l.11-.14.25-.29,30.42,9.09,8.9,3.35,2.21,5.91-.06,1.45s0,0,0,0l-.15,4h0l-.2,5.25h.06l17.53.49,18.06.51,9.71.28a17,17,0,0,1,11.94,5.39C231.32,610.19,247,706.83,247,706.83h0l-22.7,5.67L205,636l-4.13,0q-9.45,0-18.09-.37c-18.71-.86-34.66-3.22-48.56-7.21q-5.85-1.66-11.24-3.74c-1.31-.5-2.61-1-3.88-1.56l-.89-.37a17.2,17.2,0,0,1-10.11-13A17.51,17.51,0,0,1,109.22,600.08Z"/><path d="M237.08,729.68l10.53-3.14,1.65-.5,1.5,6.41,16.52,6.48a4.12,4.12,0,0,1-.56,7.84l-17.81,4.17-4.55-5.62.29,6.62-6.71,1.58-3.42-23.07Z"/><path d="M181.49,713.34l9.7,5.18,1.52.81-3.44,5.61,7.18,16.23a4.11,4.11,0,0,1-5.91,5.17L175,736.78l.71-7.2-4.45,4.9-5.87-3.6,13.8-18.8Z"/><path class="cls-4" d="M118.92,534.12l-1,36.68c-13.78,23.28-15.35,34.59-11.54,40.61l64-21.51,1-2.28L167,572.05l5.36-16.91c.95-1.77,13.77-12.62,1.75-33.21l-24.19-32.58-8.74-.71c-3.2,8.2-8.07,12.27-13.82,14.16C114.31,514.73,116.22,516.68,118.92,534.12Z"/><path d="M167.77,446.72a7.34,7.34,0,0,1-4,4.29,33.36,33.36,0,0,0-4.77-3.77,28.74,28.74,0,0,1,1.81,4.67h-.1c-3.07.41-6.15-.35-9.15-1.1l.42.38a12.63,12.63,0,0,1-7.17,11.53c-2.4,1.11-5.57,1.88-6.17,4.45-.52,2.27,1.45,4.31,3.35,5.66s4.12,2.83,4.43,5.15c.49,3.77-4.34,6.15-5.16,9.86-.71,3.18,1.74,6.2,4.44,8s5.88,3.07,8,5.57c3.7,4.44,2.5,11.51-1.3,15.85a18.56,18.56,0,0,1-1.32,1.34,35.28,35.28,0,0,0-3.41-3.71,34.69,34.69,0,0,0-4.78-3.76,28.74,28.74,0,0,1,1.81,4.67,30.18,30.18,0,0,1,1.15,6.32,41.92,41.92,0,0,1-8.58,3,83.57,83.57,0,0,1-22.78,2.34A41.71,41.71,0,0,1,104.08,526a34.82,34.82,0,0,0,1.32-15.14,30.25,30.25,0,0,1-8.64,11.48,14.85,14.85,0,0,1-5.89-10c-.48-4.87,2-9.53,4.69-13.6s5.86-8,7.06-12.78c1.75-6.92-.92-14.11-1.27-21.23a32.59,32.59,0,0,1,31-34.13q1.23-.06,2.46,0a65.58,65.58,0,0,1,12,1.83l6.39,1.38a43.16,43.16,0,0,1,7.73,2.2,13.26,13.26,0,0,1,5.55,4.09A7.64,7.64,0,0,1,167.77,446.72Z"/><path class="cls-5" d="M215.91,623.8a7.38,7.38,0,0,1-6.26-8.35,6.8,6.8,0,0,1,.3-1.26l-20.83-15.91L202,593.79l17.8,15.8a7.42,7.42,0,0,1-3.87,14.21Z"/><path class="cls-4" d="M148.89,581l-25.63-56.67a18.61,18.61,0,0,1,9.28-24.6h0a18.58,18.58,0,0,1,25.72,12.5l13.19,53.62L208.26,597l-7.63,13.41Z"/><rect class="cls-1" x="226.11" y="778.42" width="113.32" height="4.12"/><polygon class="cls-2" points="225.75 815.51 232.62 815.51 236.05 646.54 229.18 646.54 225.75 815.51"/><polygon class="cls-2" points="340.53 815.51 333.66 815.51 330.23 646.54 337.09 646.54 340.53 815.51"/><path class="cls-1" d="M248.19,609.45h70.14a18.94,18.94,0,0,1,18.94,18.94v18.16a0,0,0,0,1,0,0h-108a0,0,0,0,1,0,0V628.38A18.94,18.94,0,0,1,248.19,609.45Z"/><path class="cls-1" d="M228.27,700.11H338a0,0,0,0,1,0,0v0a12.36,12.36,0,0,1-12.36,12.36h-85a12.36,12.36,0,0,1-12.36-12.36v0A0,0,0,0,1,228.27,700.11Z"/><polygon class="cls-12" points="195.88 486.79 206.94 486.79 212.21 444.13 195.88 444.13 195.88 486.79"/><path d="M193.06,483.18h21.79a13.89,13.89,0,0,1,13.88,13.88v.45H193.06Z"/><polygon class="cls-12" points="228.57 486.79 239.64 486.79 244.9 444.13 228.57 444.13 228.57 486.79"/><path d="M225.75,483.18h21.79a13.88,13.88,0,0,1,13.88,13.88v.45H225.75Z"/><path class="cls-12" d="M190.08,351.76a8.41,8.41,0,0,0-9.4-7.29,8.91,8.91,0,0,0-1.45.31L166.92,330l-10.79,5.29,17.68,20.6a8.46,8.46,0,0,0,16.27-4.16Z"/><polygon class="cls-4" points="148.68 264.23 155.9 267.19 157.65 287.59 176.99 340.49 160.56 345.95 142.31 310.47 148.68 264.23"/><circle class="cls-12" cx="129.93" cy="221.41" r="19.23"/><path d="M127,212.46s.84-11.68,11.25-6.92,9.74-8.36,6.59-10.68-3.05-2.9-14.55-1.35-33.85,4.19-26.63,27.33S121.49,238,121.49,238s-9.84-20.75-4-16.78l5.82,4,3.07-.65Z"/><path d="M98.36,353.71s-6.45,34.12,18.1,38.47,60,7.39,60,7.39l15.91,74.26,21.39-1.9s-2.85-89.4-9.84-96.39-40.25-27.46-40.25-27.46Z"/><path d="M146.32,339.41l10.73,10.77s77.54,12.49,80.53,30.4c4.52,27,9.85,85.83,9.85,85.83l-23.31-1.75L215,397.83l-37.3-8.49-42.44-23.13Z"/><path class="cls-4" d="M145.72,256.8l-6.24-8.27-20.23-.33h0A39.41,39.41,0,0,0,98.36,283v52.33s.29,7-1.23,22.95c-1.32,13.8,72.11-8.08,72.11-8.08l-9.53-77.66S160.47,260.15,145.72,256.8Z"/><path class="cls-12" d="M164.23,369.06a8.41,8.41,0,0,0-9.4-7.29,8.15,8.15,0,0,0-1.45.31l-12.31-14.76-10.79,5.3L148,373.21a8.45,8.45,0,0,0,16.27-4.15Z"/><path class="cls-4" d="M113.15,265.26l-6.41-2.14s-7.69,1.69-12.24,12,.08,52.61.08,52.61l47.2,40.75,8.94-16.72-26.18-35.42S135.77,278.22,113.15,265.26Z"/></svg>