<?xml version="1.0" standalone="no"?>
<!DOCTYPE svg PUBLIC "-//W3C//DTD SVG 20010904//EN"
 "http://www.w3.org/TR/2001/REC-SVG-20010904/DTD/svg10.dtd">
<svg version="1.0" xmlns="http://www.w3.org/2000/svg"
 width="646.000000pt" height="183.000000pt" viewBox="0 0 646.000000 183.000000"
 preserveAspectRatio="xMidYMid meet">
<metadata>
Created by potrace 1.16, written by Peter Selinger 2001-2019
</metadata>
<g transform="translate(0.000000,183.000000) scale(0.100000,-0.100000)"
fill="#000000" stroke="none">
<path d="M188 1779 c-10 -5 -22 -18 -28 -29 -7 -13 -160 -1310 -160 -1356 0
-2 58 -4 130 -4 107 0 130 3 130 15 0 8 13 139 30 291 16 153 29 279 27 280
-2 2 -18 10 -37 18 -32 14 -9 15 281 16 245 0 319 3 327 13 6 7 14 59 18 115
l7 102 -282 0 c-218 0 -281 3 -280 13 0 6 8 75 17 152 l17 140 291 5 291 5 49
30 c54 34 88 78 106 136 21 72 41 69 -466 69 -286 0 -457 -4 -468 -11z"/>
<path d="M4546 1768 c-25 -23 -26 -30 -81 -562 -47 -451 -55 -549 -46 -601 25
-162 119 -241 318 -268 95 -12 214 -1 302 30 74 25 79 37 57 120 -9 37 -22 72
-27 77 -5 6 -43 3 -99 -8 -193 -40 -292 12 -291 151 0 54 34 412 47 496 l6 37
174 0 c120 0 174 3 174 11 0 6 -14 58 -32 115 l-31 104 -129 0 -128 0 0 25 c0
27 16 192 25 258 l5 37 -109 0 c-100 0 -112 -2 -135 -22z"/>
<path d="M6330 1507 c-55 -28 -62 -108 -13 -147 58 -46 143 -8 143 64 0 48 -8
65 -41 81 -34 18 -56 19 -89 2z m84 -28 c50 -39 22 -119 -43 -119 -63 0 -89
81 -39 123 27 22 49 22 82 -4z"/>
<path d="M1985 1476 c-65 -20 -105 -45 -163 -100 l-55 -51 7 73 7 72 -114 0
c-98 0 -116 -3 -131 -18 -13 -15 -27 -120 -71 -518 -30 -274 -55 -509 -55
-521 0 -23 2 -23 125 -23 121 0 125 1 129 22 3 13 19 154 36 313 36 329 41
358 81 419 101 152 341 153 399 1 17 -46 13 -135 -20 -433 -16 -151 -30 -285
-30 -298 l0 -24 125 0 c121 0 125 1 129 23 3 12 22 175 42 362 25 232 35 364
31 414 -11 143 -90 250 -210 286 -61 18 -206 19 -262 1z"/>
<path d="M3498 1480 c-309 -37 -474 -210 -507 -535 -32 -309 75 -492 321 -550
117 -28 431 -16 465 17 16 17 30 183 15 192 -5 3 -34 1 -63 -5 -92 -18 -247
-15 -308 6 -110 36 -171 135 -171 274 0 276 154 418 430 396 47 -3 105 -11
129 -16 61 -13 69 -2 77 103 8 104 11 102 -128 117 -107 12 -160 12 -260 1z"/>
<path d="M1121 1451 c-11 -11 -22 -39 -25 -63 -10 -74 -106 -961 -106 -980 0
-17 10 -18 127 -16 l128 3 57 520 c31 286 57 528 57 538 1 15 -11 17 -109 17
-95 0 -113 -3 -129 -19z"/>
<path d="M2671 1451 c-11 -11 -22 -39 -25 -63 -10 -74 -106 -961 -106 -980 0
-17 10 -18 127 -16 l128 3 57 520 c31 286 57 528 57 538 1 15 -11 17 -109 17
-95 0 -113 -3 -129 -19z"/>
<path d="M4081 1452 c-21 -16 -26 -51 -76 -512 -30 -272 -55 -507 -55 -522 l0
-28 125 0 c121 0 125 1 129 23 3 12 28 236 56 497 28 261 53 494 56 518 l6 42
-110 0 c-90 0 -114 -3 -131 -18z"/>
<path d="M5103 1458 c31 -85 347 -1003 347 -1011 0 -7 -54 -109 -119 -227
l-120 -215 127 -3 c120 -2 127 -2 148 20 12 13 187 343 388 733 l365 710 -126
3 c-95 2 -131 -1 -147 -11 -13 -9 -82 -142 -181 -351 l-159 -337 -14 38 c-7
21 -60 173 -117 338 -61 175 -112 305 -122 312 -24 18 -277 18 -270 1z"/>
</g>
</svg>
