<svg id="Layer_1" data-name="Layer 1" xmlns="http://www.w3.org/2000/svg" viewBox="0 0 1358.22 621.41"><defs><style>.cls-1{fill:#231f20;}</style></defs><path class="cls-1" d="M24.2,260.85h5.64V338H24.2Z"/><path class="cls-1" d="M94.91,304.78V338H89.49V306.11c0-12.73-4.43-18.59-13.5-18.59-10.63,0-17,8.41-17,24.46v26H53.52V283.42H59v9.63c3.21-6.64,10-10.4,18.15-10.4C88.61,282.65,94.91,289.84,94.91,304.78Z"/><path class="cls-1" d="M134.86,337.43a29.74,29.74,0,0,1-7.63,1.33c-6.65,0-11-3.76-11-12.62V288.07h-9.19v-4.65h9.19V267.93l5.42-4.21v19.7h13.06v4.65H121.69v37.41c0,5.75,2.33,8.3,6.75,8.3a21.43,21.43,0,0,0,6.31-1.22Z"/><path class="cls-1" d="M191.3,311.87h-41c.23,13.72,7.53,21.91,19.15,21.91,6.75,0,11.4-1.77,16.71-7.31l3.87,3.44c-6.41,6.53-12.28,8.85-20.69,8.85-15.72,0-24.46-11.84-24.46-27.78s8.63-28.33,23.57-28.33c16.72,0,23.13,13.17,23.13,24.57A28.82,28.82,0,0,1,191.3,311.87Zm-41-4.54h36.08c0-.55,0-.78-.11-2.33-.33-9-5.75-17.7-17.82-17.7C158,287.3,151.13,295.93,150.35,307.33Z"/><path class="cls-1" d="M239.11,284.64l-2.77,4.43a17.26,17.26,0,0,0-6.86-1.44c-8.41,0-16.16,6.09-16.16,19.15V338H207.9V283.42h5.42v10c3.77-8.3,11.18-10.73,17.16-10.73A18.27,18.27,0,0,1,239.11,284.64Z"/><path class="cls-1" d="M292.89,304.78V338h-5.42V306.11c0-12.73-4.43-18.59-13.5-18.59-10.63,0-17.05,8.41-17.05,24.46v26H251.5V283.42h5.42v9.63c3.21-6.64,10-10.4,18.16-10.4C286.58,282.65,292.89,289.84,292.89,304.78Z"/><path class="cls-1" d="M354.64,311.87H313.69c.23,13.72,7.53,21.91,19.15,21.91,6.75,0,11.4-1.77,16.71-7.31l3.88,3.44c-6.42,6.53-12.29,8.85-20.7,8.85-15.72,0-24.46-11.84-24.46-27.78s8.63-28.33,23.57-28.33c16.72,0,23.14,13.17,23.14,24.57A27.63,27.63,0,0,1,354.64,311.87Zm-40.95-4.54h36.08c0-.55,0-.78-.11-2.33-.33-9-5.75-17.7-17.82-17.7C321.33,287.3,314.47,295.93,313.69,307.33Z"/><path class="cls-1" d="M391.49,337.43a29.67,29.67,0,0,1-7.63,1.33c-6.64,0-11-3.76-11-12.62V288.07h-9.18v-4.65h9.18V267.93l5.42-4.21v19.7h13.06v4.65H378.32v37.41c0,5.75,2.33,8.3,6.76,8.3a21.37,21.37,0,0,0,6.3-1.22Z"/><path class="cls-1" d="M439.3,260.85h5.64V338H439.3Z"/><path class="cls-1" d="M514.11,260.85V338h-5.53V327a21.65,21.65,0,0,1-19.81,11.73c-15.39,0-24.57-11.95-24.57-28.11,0-16.6,9.74-28.11,24.57-28.11a21.67,21.67,0,0,1,19.81,11.84V260.85ZM509,310.65c0-13.72-7.75-23.24-19.59-23.24s-19.7,9.52-19.7,23.24c0,13.28,7.42,23.24,19.7,23.24S509,324,509,310.65Z"/><path class="cls-1" d="M577.19,311.87h-41c.22,13.72,7.53,21.91,19.15,21.91,6.75,0,11.4-1.77,16.71-7.31l3.87,3.44c-6.42,6.53-12.28,8.85-20.69,8.85-15.72,0-24.46-11.84-24.46-27.78s8.63-28.33,23.57-28.33c16.71,0,23.13,13.17,23.13,24.57A28.82,28.82,0,0,1,577.19,311.87Zm-41-4.54h36.08c0-.55,0-.78-.11-2.33-.33-9-5.76-17.7-17.82-17.7C543.88,287.3,537,295.93,536.24,307.33Z"/><path class="cls-1" d="M635.18,304.78V338h-5.42V306.11c0-12.73-4.43-18.59-13.51-18.59-10.62,0-17,8.41-17,24.46v26h-5.42V283.42h5.42v9.63c3.21-6.64,10-10.4,18.15-10.4C628.87,282.65,635.18,289.84,635.18,304.78Z"/><path class="cls-1" d="M675.13,337.43a29.81,29.81,0,0,1-7.64,1.33c-6.64,0-11-3.76-11-12.62V288.07h-9.18v-4.65h9.18V267.93l5.43-4.21v19.7H675v4.65H662v37.41c0,5.75,2.32,8.3,6.75,8.3a21.49,21.49,0,0,0,6.31-1.22Z"/><path class="cls-1" d="M689.62,260.85h6.31v10.84h-6.31Zm.44,22.57h5.43V338h-5.43Z"/><path class="cls-1" d="M736.77,337.43a29.81,29.81,0,0,1-7.64,1.33c-6.64,0-11-3.76-11-12.62V288.07H709v-4.65h9.18V267.93l5.43-4.21v19.7h13.06v4.65H723.6v37.41c0,5.75,2.32,8.3,6.75,8.3a21.49,21.49,0,0,0,6.31-1.22Z"/><path class="cls-1" d="M768.19,337.54,744.4,283.42h6L771.07,331l17.49-47.59h6.08l-29.43,77.14h-5.87Z"/><path class="cls-1" d="M833.26,260.85h5.87l19.37,68.94,20.91-65h5.09l20.81,65,19.37-68.94h6l-22,77.13h-6L882,273.79,861.15,338h-5.86Z"/><path class="cls-1" d="M938.06,310.65c0-16.38,10.52-28,25.68-28s25.79,11.62,25.79,28-10.63,28.11-25.79,28.11S938.06,327.14,938.06,310.65Zm46,0c0-13.72-8.08-23.13-20.36-23.13S943.6,297,943.6,310.65s7.85,23.24,20.14,23.24S984.1,324.15,984.1,310.65Z"/><path class="cls-1" d="M1037.22,284.64l-2.76,4.43a17.34,17.34,0,0,0-6.87-1.44c-8.41,0-16.15,6.09-16.15,19.15V338H1006V283.42h5.43v10c3.76-8.3,11.17-10.73,17.15-10.73A18.24,18.24,0,0,1,1037.22,284.64Z"/><path class="cls-1" d="M1049.61,260.85H1055v54l30-31.43h7.41l-19.58,20.26,23,34.3h-6.41l-20.26-30.87L1055,321.83V338h-5.43Z"/><path class="cls-1" d="M1103.29,324.81l4.64-2.1c2.22,6.31,8.31,11.18,17.27,11.18,8.3,0,13.61-4.1,13.61-10.74,0-16.49-32.87-6.75-32.87-25.89,0-9.3,7.75-14.61,18.15-14.61,8.75,0,15.28,3.76,18.93,11.29l-4.32,2.32c-3-5.42-7.41-8.74-14.83-8.74s-12.62,3.1-12.62,9c0,14.61,33,5.31,33,26.34,0,10.41-8.31,15.94-18.93,15.94S1106.16,333.34,1103.29,324.81Z"/><path class="cls-1" d="M1201.89,304.78V338h-5.42V306.11c0-12.62-4.32-18.59-13.5-18.59-11,0-17,8.52-17,24V338h-5.42V260.85h5.42v32.2c3.21-6.53,9.74-10.4,18.15-10.4C1195.8,282.65,1201.89,290.17,1201.89,304.78Z"/><path class="cls-1" d="M1216.94,310.65c0-16.38,10.51-28,25.67-28s25.79,11.62,25.79,28-10.62,28.11-25.79,28.11S1216.94,327.14,1216.94,310.65Zm46,0c0-13.72-8.08-23.13-20.37-23.13s-20.14,9.52-20.14,23.13,7.86,23.24,20.14,23.24S1263,324.15,1263,310.65Z"/><path class="cls-1" d="M1334,310.76c0,16.05-8.41,28-23.79,28-9.19,0-16.38-4.65-19.92-11.95v33.75h-5.42V283.42h5.42V294.6a21.58,21.58,0,0,1,19.92-12.06C1325.06,282.54,1334,294.05,1334,310.76Zm-5.53,0c0-13.72-7.08-23.35-19-23.35-11.73,0-19.58,9.52-19.58,23.35,0,13.28,7.41,23.13,19.58,23.13C1321.85,333.89,1328.49,324,1328.49,310.76Z"/></svg>