<?xml version="1.0" encoding="utf-8"?>
<!-- Generator: Adobe Illustrator 24.3.0, SVG Export Plug-In . SVG Version: 6.00 Build 0)  -->
<svg version="1.1" id="Layer_1" xmlns="http://www.w3.org/2000/svg" xmlns:xlink="http://www.w3.org/1999/xlink" x="0px" y="0px"
	 viewBox="0 0 2400 3000" style="enable-background:new 0 0 2400 3000;" xml:space="preserve">
<style type="text/css">
	.st0{fill:#E8AC3D;}
	.st1{fill:#040707;}
	.st2{fill:#EBB65B;}
	.st3{fill:#999999;}
	.st4{fill:#FEFEFE;}
	.st5{fill:#BA8C39;}
</style>
<g>
	<path class="st0" d="M1222.6,1174.7c46.6,14.6,92.3,31.6,136.3,52.9c101.4,48.9,191.5,113.3,267.9,196.2
		c61.7,67,104,145.7,134,231.3c24.9,71,40.2,144.1,48.3,218.8c2.4,22.6,4.7,45.2,5.3,67.9c0.2,6.3,2.1,9.9,9.1,9.9
		c60.8,0.3,120.8-4.7,178.4-26.2c47-17.6,82.2-47.6,104.8-93.1c25.3-51,41.5-104.2,46.8-160.8c1.4-14.4,1.4-28.8,1.6-43.6
		c38,58.6,70.7,143.2,41.2,226.9c11.1-5.4,19.1-14.6,30.2-18.6c0,10.2,0,20.5,0,30.7c-0.5,2.2-1.2,4.3-1.6,6.5
		c-5.8,33.7-19.2,63.4-45,86.7c-28.8,26-62.5,42.9-99.7,53.2c-2.3,0.6-5,0.5-7.3,4c20.4,0,39.9,0,60.2,0c-1.4,1.6-1.9,2.4-2.6,2.8
		c-2.5,1.8-5.1,3.7-7.7,5.3c-57.8,36.2-121.8,52.7-188.9,59.8c-8.3,0.9-16.7,0.2-24.7,3.3c-5.7,0-11.4,0-17.1,0
		c-1.6-2.2-4-1.7-6.2-1.7c-22.6,0-45.2,0-67.7,0c-2.2,0-4.6-0.4-6.2,1.7c-12.5,0-25,0-37.5,0c-3.1-3.1-7-1.7-10.5-1.7
		c-155.7-0.1-311.4-0.1-467-0.1c0-32.7,0.2-65.4-0.2-98c-0.1-7.6,2.1-9.5,9.6-9.5c63.1,0.3,126.2,0.2,189.3,0.2
		c2.5,0,5.1-0.2,9.2-0.4c-55.3-25.2-84.8-43.8-113.6-73.5c-27.8-28.7-45.2-61.5-41.7-103.4c2.2-26.1,11.7-48.3,29.2-67.1
		c23.8-25.5,54.6-38.9,87.9-47.1c2.3-0.6,5.8,0.6,6.5-2.5c0.6-2.3-2.3-3.7-3.9-5.2c-31.1-31.2-62.4-62.2-93.4-93.5
		c-5.4-5.5-7.2-4.2-8.9,2.4c-6.2,24.1-12.6,48.2-18.8,72.3c-18,69.5-35.8,139.1-53.8,208.7c-18,69.5-36,139.1-54.3,208.6
		c-1.8,6.9-0.3,8.6,6.4,8.4c16.8-0.3,33.5-0.2,50.3-0.2c0,0.6,0.1,1.2,0.1,1.8c-19.9,0-39.8,0-59.7,0c-2.8-3-6.4-1.7-9.6-1.7
		c-68.9-0.1-137.8-0.1-206.8-0.1c-0.2-18.3-0.3-36.6-0.5-54.9c0-14.5,0.4-28.9-0.1-43.4c-0.2-7,1.7-9.1,8.9-9
		c34.6,0.4,69.2,0.1,103.8,0.3c5.2,0,7.5-0.9,7.5-6.9c-0.4-31.5-0.3-62.9-0.4-94.4c0-19.2,0-38.4,0-57.7
		c1.1-75.8-1.2-151.6,1.4-227.4c1.6-47.1,0.1-94.3,0.5-141.5c0.1-8.1-2.5-9.8-10.1-9.8c-63.7,0.3-127.3,0-191,0.3
		c-7.2,0-9.1-2.1-9-9.1c0.3-31,0.2-61.9,0.1-92.9c0-3.1,1.5-7-2.6-9.1c2.5-3.1,2.3-6.8,2.3-10.5c0-29.2,0-58.4,0-87.6
		c0-5.2,0-10.4,0-15.6c-3.8,1.5-5.7,4-7.9,6.1c-36.8,36.6-73.5,73.2-110.3,109.8c-3.2-1-5-3.6-7.1-5.8
		c-19.2-19.1-38.3-38.3-57.5-57.3c-2.3-2.3-4.1-5.7-8.2-5.1c-9.7-10.5-19.4-21-29.1-31.5c0.8-3.6,3.9-5.5,6.2-7.8
		c26.7-26.8,53.6-53.6,80.3-80.4c2.1-2.1,5-3.8,5.7-7.1c13.4-10.6,24.4-23.7,36.8-35.3c15.2-14.2,31-27.6,48.9-38.2
		c44.3-26.2,87.8-25,130.4,3.9c4.9,3.3,9.7,6.9,14.6,10.4c5.8,5.3,11.6,10.6,17.5,15.9c7.5,29.5,15.1,59.1,22.6,88.9
		c11.7-11.4,22.9-22.2,34-32.9c6.4,0.7,12.8,1.3,19.2,2.2C1160.1,1158,1191.4,1166.4,1222.6,1174.7z"/>
	<path class="st1" d="M540.1,2088.7c0-17.6,0-35.2,0-55.5c-7.9,7.9-14.7,13.9-20.6,20.8c-4.8,5.6-7.5,4.6-12.2-0.2
		c-109.1-109.4-218.3-218.6-327.6-327.8c-2-2-4.2-3.7-6.3-5.6c0-0.6,0-1.1,0-1.7c5.7-5.6,11.3-11.1,17-16.7
		c9.5-9.4,9.4-9.4,19.2,0.3c3.8,3.8,7.7,7.6,11.5,11.4c2.7,2.9,5.4,5.8,8.1,8.5c97.8,97.8,195.7,195.6,293.6,293.4
		c1.9,2.1,4,4,5.7,6.2c6.3,8.5,14.4,10.7,25,10.6c59.1-0.5,118.2-0.2,177.3-0.3c96.6,0,193.2-0.1,289.9-0.1
		c0.2,18.3,0.3,36.6,0.5,54.9c-0.1,0.6-0.1,1.2-0.2,1.8C860.7,2088.7,700.4,2088.7,540.1,2088.7z"/>
	<path class="st2" d="M1297.3,2088.7c0-0.6-0.1-1.2-0.1-1.8l0,0c155.7,0,311.4,0,467,0.1c3.5,0,7.4-1.5,10.5,1.7
		C1615.6,2088.7,1456.5,2088.7,1297.3,2088.7z"/>
	<path class="st2" d="M1021,2088.7c0.1-0.6,0.1-1.2,0.2-1.8c68.9,0,137.8,0,206.8,0.1c3.2,0,6.9-1.3,9.6,1.7
		C1165.4,2088.7,1093.2,2088.7,1021,2088.7z"/>
	<path class="st2" d="M1812.3,2088.7c1.6-2.2,4-1.7,6.2-1.7c22.6,0,45.2,0,67.7,0c2.2,0,4.6-0.5,6.2,1.7
		C1865.8,2088.7,1839,2088.7,1812.3,2088.7z"/>
	<path class="st3" d="M522.8,2015.6c-97.9-97.8-195.7-195.6-293.6-293.4c-2.8-2.8-5.4-5.7-8.1-8.5c5.7-7.7,4.7-17.2,6.2-25.9
		c12.5-73.8,24.4-147.6,36.7-221.4c12.2-73.2,24.6-146.4,36.8-219.7c10.4-62.6,20.8-125.2,31.2-187.8c7.6-46.1,15.1-92.3,22.8-138.4
		c0.4-2.4,1.2-4.8,2.5-9.3c20.7,142.9,41.1,283.6,61.9,426.6c119.8-128.7,238.2-256.1,358.2-384.9c0,4.8,0,7.7,0,10.7
		c0,57.4,0.1,114.8-0.1,172.2c0,7.1,1.1,10,8.9,7.1c5.8-2.2,12.1-2.9,18.2-4.3c-0.7,3.3-3.6,5-5.7,7.1
		c-26.7,26.8-53.6,53.6-80.3,80.4c-2.4,2.4-5.4,4.3-6.2,7.8c-3.1,0.5-4.8,3-6.7,4.9c-62.5,62.5-124.9,125-187.6,187.3
		c-4.7,4.6-5,7.2-0.1,12c31,30.5,61.6,61.4,92.4,92.1c3.7,3.7,6.6,7.6,8.7,12.4c25.5,57.6,51.2,115,76.6,172.7
		c3,6.7,4.9,8.3,10.7,2.3c13.3-14,27.3-27.4,40.8-41.1c3-3,5-4.5,8.9-0.7c29.3,29.7,58.8,59.3,88.2,88.9
		c-19.8,8.3-39.7,16.6-59.5,24.8c-3.6,1.5-4.9,4.2-6.1,7.5c-16.8,46.6-33.5,93.2-50.5,139.7c-1.8,5-0.7,7.6,3.3,10.6
		c6.7,5,14.2,9.2,19.2,16.2c-70.9,15.7-141.8,31.2-212.7,47.1C532.5,2011.5,526.3,2010.1,522.8,2015.6z"/>
	<path class="st3" d="M1222.6,1174.7c-31.3-8.2-62.5-16.6-94.5-21.4c-6.4-1-12.8-1.5-19.2-2.2c-6.5-6.7-12.9-13.5-19.6-20
		c-12.4-11.9-23.6-25.1-37.1-36c-5.8-5.3-11.6-10.6-17.5-15.9c31-8.1,61.9-16.3,92.9-24.3c44.2-11.4,88.4-22.7,132.5-34.1
		c2.4-0.6,5.1-2.5,7.2-0.6c2.3,2.1-0.1,4.8-0.8,7.1C1252,1076.4,1237.3,1125.5,1222.6,1174.7z"/>
	<path class="st4" d="M843.6,1764.5c-29.4-29.6-58.9-59.1-88.2-88.9c-3.8-3.9-5.9-2.4-8.9,0.7c-13.6,13.8-27.5,27.1-40.8,41.1
		c-5.7,6.1-7.7,4.4-10.7-2.3c-25.4-57.6-51.1-115.1-76.6-172.7c-2.1-4.8-5-8.7-8.7-12.4c-30.8-30.7-61.4-61.5-92.4-92.1
		c-4.9-4.8-4.5-7.4,0.1-12c62.6-62.3,125.1-124.9,187.6-187.3c2-2,3.6-4.5,6.7-4.9c9.7,10.5,19.4,21,29.1,31.5
		c4.9,7.3,9.9,14.5,14.5,21.9c24.7,39.7,22.7,74.3-6.7,110.5c-6,7.5-13.1,14.2-19.6,21.2c-23.9,23.8-47.9,47.6-71.9,71.3
		c-2.7,2.7-2.6,4.1,0,6.7c22.3,21.9,44.4,43.9,66.6,65.9c4,6,9.8,10.2,15.3,14.6c31,24.9,65.2,32.7,103.4,18.7
		c21.8-8,39.6-21.8,56-37.7c23.4-22.7,46.4-45.9,69.5-68.8c38.4,38.4,49.2,84.6,38.6,136.8c-5.8,28.7-18.3,54.6-32.1,80.1
		c-22.3,35.7-48.2,68.4-77.6,98.5c-5.6,5.7-8.1,4.6-12.9-0.4C870.8,1790.9,857.1,1777.8,843.6,1764.5z"/>
	<path class="st5" d="M843.6,1764.5c13.5,13.3,27.2,26.4,40.4,40.1c4.8,5,7.3,6.1,12.9,0.4c29.4-30.1,55.4-62.8,77.6-98.5
		c13.8-4.1,29-5.8,35.8-21.8c2.5-6,6.4-11.3,9.5-17.1c20.7-37.8,41.4-75.6,62.2-113.3c2.4-4.4,3.1-7.9-1-12.1
		c-26-26.2-51.8-52.5-77.4-79.1c-3.9-4-6.1-3.2-9.5,0.3c-8.4,8.4-17.1,16.5-25.7,24.7c-29.5-29.6-58.9-59.1-88.4-88.7
		c-3.7-3.8-7.3-7.8-12.2-10c4.1,0.5,5.9-3,8.2-5.2c18-17.6,35.9-35.3,53.8-52.9c4.1,2.1,2.6,6,2.6,9.1c0.1,31,0.3,61.9-0.1,92.9
		c-0.1,7,1.8,9.2,9,9.1c63.7-0.3,127.3,0,191-0.3c7.6,0,10.2,1.7,10.1,9.8c-0.4,47.2,1.1,94.4-0.5,141.5
		c-2.5,75.8-0.3,151.6-1.4,227.4c-0.3,0-0.6,0-0.8,0.1c-84.3,21-168.6,42-252.9,62.9c-3.6,0.9-5.4,2.8-6.5,5.8
		c-5.9,16.2-11.8,32.5-17.7,48.7c-10.9,28.3-21.8,56.6-32.9,85.6c-13.3-10.3-25.8-20.2-38.6-29.8c-13.7-10.2-26.1-22.2-40.9-30.9
		c-5-7-12.5-11.2-19.2-16.2c-4.1-3-5.1-5.7-3.3-10.6c17-46.5,33.8-93.1,50.5-139.7c1.2-3.3,2.5-6.1,6.1-7.5
		C804,1781.1,823.8,1772.8,843.6,1764.5z"/>
	<path class="st2" d="M867.7,1389.5c5,2.2,8.5,6.3,12.2,10c29.5,29.5,58.9,59.1,88.4,88.7c-0.1,0.5-0.2,0.9-0.2,1.4
		c-23.2,23-46.1,46.1-69.5,68.8c-16.3,15.9-34.2,29.7-56,37.7c-38.2,14-72.4,6.1-103.4-18.7c-5.5-4.4-11.3-8.6-15.3-14.6
		c0.2-5.1,0.4-10.2,0.5-15.2c1.6-42.9,3.2-85.7,4.8-128.6c6.6-7,13.6-13.7,19.6-21.2c29.4-36.3,31.4-70.8,6.7-110.5
		c-4.6-7.4-9.7-14.6-14.5-21.9c4.1-0.6,5.9,2.8,8.2,5.1c19.2,19.1,38.3,38.2,57.5,57.3c2.2,2.2,4,4.8,7.1,5.8
		c-0.1,3.8,3.1,5.2,5.2,7.3C835.1,1357.1,851.4,1373.3,867.7,1389.5z"/>
	<path class="st5" d="M1297.2,2086.9c-16.8,0.1-33.5-0.1-50.3,0.2c-6.7,0.1-8.2-1.5-6.4-8.4c18.3-69.5,36.3-139,54.3-208.6
		c18-69.5,35.8-139.1,53.8-208.7c6.2-24.1,12.6-48.1,18.8-72.3c1.7-6.6,3.4-7.9,8.9-2.4c31,31.3,62.2,62.4,93.4,93.5
		c1.6,1.6,4.4,2.9,3.9,5.2c-0.8,3.1-4.2,1.9-6.5,2.5c-33.3,8.2-64,21.6-87.9,47.1c-17.5,18.7-27,41-29.2,67.1
		c-3.5,41.9,13.9,74.7,41.7,103.4c28.7,29.6,58.3,48.3,113.6,73.5c-4.1,0.2-6.6,0.4-9.2,0.4c-63.1,0-126.2,0.1-189.3-0.2
		c-7.5,0-9.7,1.8-9.6,9.5C1297.5,2021.5,1297.2,2054.2,1297.2,2086.9C1297.2,2086.9,1297.2,2086.9,1297.2,2086.9z"/>
	<path class="st3" d="M1140.4,1878.6c-25.9,3.9-51.3,10.6-76.8,16.2c-66,14.2-131.9,29-197.8,43.5c-1.1,0.2-2.2,0.1-3.4,0.2
		c5.9-16.2,11.8-32.5,17.7-48.7c1.1-3.1,2.9-5,6.5-5.8c84.3-20.9,168.6-41.9,252.9-62.9c0.3-0.1,0.6,0,0.8-0.1
		C1140.4,1840.2,1140.4,1859.4,1140.4,1878.6z"/>
	<path class="st1" d="M867.7,1389.5c-16.3-16.2-32.6-32.4-48.8-48.7c-2.1-2.1-5.3-3.6-5.2-7.3c36.8-36.6,73.6-73.2,110.3-109.8
		c2.2-2.2,4.1-4.6,7.9-6.1c0,5.2,0,10.4,0,15.6c0,29.2,0,58.4,0,87.6c0,3.7,0.2,7.4-2.3,10.5c-17.9,17.7-35.8,35.3-53.8,52.9
		C873.6,1386.6,871.8,1390,867.7,1389.5z"/>
	<path class="st1" d="M1052.2,1095.1c13.5,10.8,24.7,24,37.1,36c6.7,6.5,13.1,13.3,19.6,20c-11.2,10.8-22.3,21.6-34,32.9
		C1067.2,1154.1,1059.7,1124.6,1052.2,1095.1z"/>
	<path class="st3" d="M968.1,1489.6c0.1-0.5,0.1-0.9,0.2-1.4c8.6-8.2,17.3-16.3,25.7-24.7c3.4-3.5,5.6-4.4,9.5-0.3
		c25.6,26.5,51.4,52.9,77.4,79.1c4.2,4.2,3.4,7.7,1,12.1c-20.8,37.7-41.4,75.6-62.2,113.3c-3.1,5.7-7,11.1-9.5,17.1
		c-6.8,16-21.9,17.7-35.8,21.8c13.8-25.5,26.3-51.4,32.1-80.1C1017.2,1574.1,1006.4,1528,968.1,1489.6z"/>
	<path class="st1" d="M729.1,1419c-1.6,42.9-3.2,85.7-4.8,128.6c-0.2,5.1-0.4,10.2-0.5,15.2c-22.2-22-44.3-44-66.6-65.9
		c-2.6-2.6-2.7-4.1,0-6.7C681.3,1466.6,705.2,1442.7,729.1,1419z"/>
</g>
</svg>
