<?xml version="1.0" encoding="utf-8"?>
<!-- Generator: Adobe Illustrator 24.3.0, SVG Export Plug-In . SVG Version: 6.00 Build 0)  -->
<svg version="1.1" id="Layer_1" xmlns="http://www.w3.org/2000/svg" xmlns:xlink="http://www.w3.org/1999/xlink" x="0px" y="0px"
	 viewBox="0 0 2400 3000" style="enable-background:new 0 0 2400 3000;" xml:space="preserve">
<style type="text/css">
	.st0{fill:#FAFAF9;}
	.st1{fill:#EF8721;}
	.st2{fill:#F4B274;}
	.st3{fill:#292525;}
</style>
<g>
	<path class="st0" d="M1241.2,1280.2c-0.3-81.5-0.2-162.9-1.2-244.4c-0.2-18.2,6-25.1,24.4-25.1c167.6,0.4,335.2,0.4,502.8-0.1
		c20.6-0.1,25.7,8.8,25.4,27.7c-0.8,64.1,2,128.3-1.1,192.3c-2.1,42.2,9.7,78.1,30.2,113.3c32,54.9,62.8,110.5,94.8,165.5
		c8.3,14.2,3.1,21.1-9.1,28.4c-29.5,17.7-58.1,36.9-87.7,54.5c-19.1,11.4-30.4,24.6-28,49.2c2.6,26.9-1,54.4,1,81.4
		c1.8,24-7.9,28.4-29.7,28.3c-77.5-0.3-76.1,0.5-78.2,77.8c-0.9,32.1,5,45.4,41.4,43.5c66-3.4,66.1-0.9,66.1,64.5
		c0,76-0.2,78.4-74.5,72c-107.7-9.3-213.9-25.4-309.7-82.2c-69.7-41.3-111.3-102.8-137.4-177c68.4-0.4,136.9,2.1,205.1-1.9
		c76.7-4.4,139.8-37.7,179-106.3c31.7-55.5,35.5-117,32.1-179.3c0.5-53.9,0.6-107.8,1.9-161.7c0.4-16.6-7.6-19.6-21.7-19.4
		c-62.7,0.8-125.4,0.9-188,1.3C1399.7,1281.7,1320.4,1281,1241.2,1280.2z"/>
	<path class="st1" d="M1128.7,1547.3c2,53.7-0.6,119,19.9,182.1c3.9,12,2.6,23.8-9.3,35c-44.1,41.6-87.1,84.4-129.4,128
		c-13.8,14.2-21.7,15.1-36.4,0.3c-133.7-134.8-267.8-269.1-402.9-402.5c-16.3-16.1-10.1-22,0.3-38.6c35.3-56.2,88.8-49,141.9-48.4
		c55.9,0.7,55.9,0.2,30.2-47.2c-28.7-53-57.3-106.2-86.2-159.1c-6.9-12.7-6.3-21.2,8.2-28.3c71-34.7,141.8-70,212.6-105.1
		c16.8-8.3,27.2-5.9,25.6,15.8c-0.3,4.3,0,8.7,0,13c0.4,74.6,0.4,74.6,76.6,74.6c39.2,0,78.4,0.6,117.5-0.2
		c21.2-0.5,31.3,5.4,31.9,29.3c2.3,89.5,3.1,89.5-87.2,89.5c-40.3,0-80.5,0.7-120.8-0.3c-18.2-0.5-25.6,5.1-24.5,23.9
		c1.3,22.7,1.4,45.7,0,68.4c-1.2,20.4,7.4,26.3,26.7,26c56.6-0.8,113.2,0.5,169.7-0.6c26-0.5,38,7.1,36.1,35.4
		C1127,1470.9,1128.7,1503.6,1128.7,1547.3z"/>
	<path class="st2" d="M1686.9,1462.4c3.4,62.3-0.4,123.8-32.1,179.3c-39.2,68.6-102.3,101.9-179,106.3
		c-68.2,3.9-136.7,1.5-205.1,1.9c-16.3-32.4-22.6-67.8-26.4-103.1c-12.6-118-7.5-236.4-7.6-354.8c0-3.9,2.9-7.9,4.4-11.8
		c79.3,0.8,158.5,1.5,237.8,2.3c1.9,29,3.8,57.6,21.1,83.1C1544.9,1431.8,1610.7,1456.8,1686.9,1462.4z"/>
	<path class="st3" d="M1686.9,1462.4c-76.1-5.6-141.9-30.5-186.8-96.7c-17.3-25.5-19.1-54.1-21.1-83.1c62.7-0.4,125.4-0.5,188-1.3
		c14.1-0.2,22.1,2.8,21.7,19.4C1687.5,1354.5,1687.4,1408.5,1686.9,1462.4z"/>
	<g>
		<path class="st3" d="M864.9,942.2c0.2-0.1,0.4-0.2,0.6-0.2c0,0,0,0,0,0L864.9,942.2z"/>
		<path class="st3" d="M2081,1568l-35.6-60.7l0,0c-17.5-30.1-34.9-60.3-52-90.7c-24.7-44-47.2-89.3-73.2-132.4
			c-9-15-12.5-29-12.5-45.5c0.2-100,0.1-199.9,0.1-299.9c0-42.9,0-43-41.4-43c-233,0-465.9,0.9-698.9-1
			c-35.1-0.3-42.7,10.8-40.2,42.2c2.4,30.2-0.4,60.8,0.8,91.2c0.9,21.5-8.1,28-28.7,28.8c-90.1,3.5-90,4-90-86.8c0-29.2,0-58.4,0-90
			c-0.1,0-0.1,0-0.2,0.1l-0.1-6.5l-136.2,65.6c-2.5,0.8-5,1.8-7.5,2.5c-0.1,0.6-0.4,0.9-0.6,1.5l-36.2,17.4c-0.2,0-0.4,0-0.6,0
			c-0.1,0.1-0.2,0.3-0.3,0.4l-343.3,165.4l90.3,156.9l-255.9,254l19.1,19c88.9,88.4,177.9,176.7,266.7,265.2
			c97.6,97.3,195.1,194.6,292.3,292.2c21.4,21.5,38.5,11.6,55.3-5.4c72.9-73.2,146.4-145.9,218-220.3c18.5-19.3,29-20.3,43,2.4
			c78.6,126.7,202.4,180.8,341.1,210.5c107,22.9,215.7,22.2,324.3,23c22.4,0.2,29.7-5.8,29.5-29.1c-1.1-129.3,0-258.6-0.9-388
			c-0.2-24.9,4.9-40.3,29.6-53.6c39.9-21.4,76.4-49.1,116.2-71.2L2081,1568z M1139.2,1764.5c-44.1,41.6-87.1,84.4-129.4,128
			c-13.8,14.2-21.7,15.1-36.4,0.3c-133.7-134.8-267.8-269.1-402.9-402.5c-16.3-16.1-10.1-22,0.3-38.6c35.3-56.2,88.8-49,141.9-48.4
			c55.9,0.7,55.9,0.2,30.2-47.2c-28.7-53-57.3-106.2-86.2-159.1c-6.9-12.7-6.3-21.2,8.2-28.3c71-34.7,141.8-70,212.6-105.1
			c16.8-8.3,27.2-5.9,25.6,15.8c-0.3,4.3,0,8.7,0,13c0.4,74.6,0.4,74.6,76.6,74.6c39.2,0,78.4,0.6,117.5-0.2
			c21.2-0.5,31.3,5.4,31.9,29.3c2.3,89.5,3.1,89.5-87.2,89.5c-40.3,0-80.5,0.7-120.8-0.3c-18.2-0.5-25.6,5.1-24.5,23.9
			c1.3,22.7,1.4,45.7,0,68.4c-1.2,20.4,7.4,26.3,26.7,26c56.6-0.8,113.2,0.5,169.7-0.6c26-0.5,38,7.1,36.1,35.4
			c-2.2,32.4-0.5,65.1-0.5,108.9c2,53.7-0.6,119,19.9,182.1C1152.4,1741.5,1151.1,1753.3,1139.2,1764.5z M1907.4,1537.7
			c-29.5,17.7-58.1,36.9-87.7,54.5c-19.1,11.4-30.4,24.6-28,49.2c2.6,26.9-1,54.4,1,81.4c1.8,24-7.9,28.4-29.7,28.3
			c-77.5-0.4-76,0.5-78.2,77.8c-0.9,32.1,5,45.4,41.4,43.5c66-3.4,66.1-0.9,66.1,64.5c0,76-0.2,78.4-74.5,72
			c-107.7-9.3-213.9-25.4-309.7-82.2c-69.7-41.3-111.3-102.8-137.4-177c-16.3-32.4-22.6-67.8-26.4-103.1
			c-12.6-118-7.5-236.4-7.6-354.8c0-3.9,2.9-7.9,4.4-11.8c-0.3-81.4-0.2-162.9-1.2-244.4c-0.2-18.2,6-25.1,24.4-25.1
			c167.6,0.4,335.2,0.4,502.8-0.1c20.6-0.1,25.6,8.8,25.4,27.7c-0.8,64.1,2,128.3-1.1,192.3c-2.1,42.2,9.7,78.1,30.2,113.3
			c32,54.9,62.8,110.6,94.8,165.5C1924.8,1523.5,1919.6,1530.4,1907.4,1537.7z"/>
	</g>
</g>
</svg>
