<svg id="Layer_1" data-name="Layer 1" xmlns="http://www.w3.org/2000/svg" viewBox="0 0 1358.22 621.41"><defs><style>.cls-1{fill:#231f20;}</style></defs><path class="cls-1" d="M30.28,260.9h7.31v78.36H30.28Z"/><path class="cls-1" d="M57.17,302.51c0-.95,0-2.12-.11-3.48s-.13-2.75-.16-4.15-.1-2.71-.17-3.93-.11-2.16-.11-2.82h6.64c.07,1.92.13,3.76.17,5.53a16.77,16.77,0,0,0,.27,3.43H64a17.88,17.88,0,0,1,6.64-7.25,19.38,19.38,0,0,1,10.84-3,21.89,21.89,0,0,1,9.74,1.88,15.72,15.72,0,0,1,5.92,4.93,18.47,18.47,0,0,1,3,7,40.34,40.34,0,0,1,.83,8.19v30.44H94.36V309.15a32.44,32.44,0,0,0-.56-6,16.05,16.05,0,0,0-1.93-5.25A10,10,0,0,0,88,294.16a13.27,13.27,0,0,0-6.47-1.38,18.89,18.89,0,0,0-6.92,1.27A15,15,0,0,0,69,297.92a18.72,18.72,0,0,0-3.76,6.53,27.64,27.64,0,0,0-1.39,9.24v25.57H57.17Z"/><path class="cls-1" d="M143.72,294.1H129.11v33.31a7.18,7.18,0,0,0,1.88,5.32,7,7,0,0,0,5.2,1.88,15.42,15.42,0,0,0,3.82-.5,25.33,25.33,0,0,0,3.71-1.27l.55,6A38.34,38.34,0,0,1,140,340a19.61,19.61,0,0,1-4.31.55,15.92,15.92,0,0,1-6.09-1.05,10.85,10.85,0,0,1-4.1-2.82,11.09,11.09,0,0,1-2.26-4.15,17.66,17.66,0,0,1-.72-5.15V294.1H111.4v-6h11.07V273.41h6.64v14.72h14.61Z"/><path class="cls-1" d="M200.71,329.63a22.5,22.5,0,0,1-9.57,8.41,30.61,30.61,0,0,1-12.56,2.54,27.21,27.21,0,0,1-10.63-2,24,24,0,0,1-8.19-5.59,24.41,24.41,0,0,1-5.26-8.52,31.28,31.28,0,0,1-1.82-10.9A29.09,29.09,0,0,1,154.56,303a25.24,25.24,0,0,1,5.31-8.47,24.83,24.83,0,0,1,8.08-5.64,25.18,25.18,0,0,1,10.29-2.05,24.61,24.61,0,0,1,10.35,2.05,22.59,22.59,0,0,1,7.53,5.42,23.18,23.18,0,0,1,4.59,7.69,25.78,25.78,0,0,1,1.55,8.74v4.65H159.32a23,23,0,0,0,.83,5.37,18.93,18.93,0,0,0,3,6.36,19.22,19.22,0,0,0,5.92,5.31,18.43,18.43,0,0,0,9.58,2.22,21.26,21.26,0,0,0,9.84-2.44,17.67,17.67,0,0,0,7.31-6.64Zm-5.09-20.25a15,15,0,0,0-1.39-6.42,17.06,17.06,0,0,0-3.76-5.26,18,18,0,0,0-5.64-3.6,18.29,18.29,0,0,0-6.92-1.32,16.89,16.89,0,0,0-9,2.21,19.73,19.73,0,0,0-5.7,5.09,20.28,20.28,0,0,0-3,5.59,14.71,14.71,0,0,0-.88,3.71Z"/><path class="cls-1" d="M217.09,302.51c0-.95,0-2.12-.11-3.48s-.13-2.75-.17-4.15-.09-2.71-.17-3.93-.11-2.16-.11-2.82h6.64c.08,1.92.13,3.76.17,5.53a17.28,17.28,0,0,0,.28,3.43,22.62,22.62,0,0,1,6.53-7.41,16.15,16.15,0,0,1,9.73-2.88,11.2,11.2,0,0,1,1.94.17c.63.11,1.27.24,1.94.38l-.78,6.53a8.13,8.13,0,0,0-2.54-.44,18.52,18.52,0,0,0-7.47,1.38,14.06,14.06,0,0,0-5.2,3.82,16.14,16.14,0,0,0-3.05,5.7,24.13,24.13,0,0,0-1,7v27.89h-6.64Z"/><path class="cls-1" d="M253.94,302.51c0-.95,0-2.12-.11-3.48s-.13-2.75-.17-4.15-.09-2.71-.17-3.93-.11-2.16-.11-2.82H260c.08,1.92.13,3.76.17,5.53a17.28,17.28,0,0,0,.28,3.43h.33a18,18,0,0,1,6.64-7.25,19.41,19.41,0,0,1,10.84-3,21.86,21.86,0,0,1,9.74,1.88,15.72,15.72,0,0,1,5.92,4.93,18.47,18.47,0,0,1,3,7,40.34,40.34,0,0,1,.83,8.19v30.44h-6.64V309.15a32.44,32.44,0,0,0-.55-6,16.07,16.07,0,0,0-1.94-5.25,10.09,10.09,0,0,0-3.87-3.71,13.31,13.31,0,0,0-6.48-1.38,18.8,18.8,0,0,0-6.91,1.27,15,15,0,0,0-5.65,3.87,18.87,18.87,0,0,0-3.76,6.53,27.91,27.91,0,0,0-1.38,9.24v25.57h-6.64Z"/><path class="cls-1" d="M360.62,329.63a22.39,22.39,0,0,1-9.57,8.41,30.58,30.58,0,0,1-12.56,2.54,27.25,27.25,0,0,1-10.63-2,23.91,23.91,0,0,1-13.44-14.11,31,31,0,0,1-1.83-10.9A29.3,29.3,0,0,1,314.47,303a25.56,25.56,0,0,1,5.31-8.47,24.83,24.83,0,0,1,8.08-5.64,25.18,25.18,0,0,1,10.29-2.05,24.61,24.61,0,0,1,10.35,2.05,22.59,22.59,0,0,1,7.53,5.42,23.18,23.18,0,0,1,4.59,7.69,25.78,25.78,0,0,1,1.55,8.74v4.65H319.23a23,23,0,0,0,.83,5.37,18.93,18.93,0,0,0,3,6.36,19.22,19.22,0,0,0,5.92,5.31,18.46,18.46,0,0,0,9.58,2.22,21.33,21.33,0,0,0,9.85-2.44,17.71,17.71,0,0,0,7.3-6.64Zm-5.09-20.25a15.11,15.11,0,0,0-1.38-6.42,17.26,17.26,0,0,0-3.77-5.26,18,18,0,0,0-5.64-3.6,18.29,18.29,0,0,0-6.92-1.32,16.91,16.91,0,0,0-9,2.21,19.73,19.73,0,0,0-5.7,5.09,20,20,0,0,0-3,5.59,14.43,14.43,0,0,0-.89,3.71Z"/><path class="cls-1" d="M402,294.1H387.4v33.31a7.22,7.22,0,0,0,1.88,5.32,7,7,0,0,0,5.2,1.88,15.36,15.36,0,0,0,3.82-.5,24.93,24.93,0,0,0,3.71-1.27l.55,6a37.54,37.54,0,0,1-4.31,1.22,19.77,19.77,0,0,1-4.32.55,16,16,0,0,1-6.09-1.05,10.81,10.81,0,0,1-4.09-2.82,11,11,0,0,1-2.27-4.15,17.66,17.66,0,0,1-.72-5.15V294.1H369.69v-6h11.07V273.41h6.64v14.72H402Z"/><path class="cls-1" d="M444.5,260.9h7.31v78.36H444.5Z"/><path class="cls-1" d="M516.1,330.29h-.22a17.13,17.13,0,0,1-3.87,4.59,22.65,22.65,0,0,1-5,3.21,25.27,25.27,0,0,1-5.7,1.89,29.67,29.67,0,0,1-5.86.6,28.92,28.92,0,0,1-10.85-2A24.61,24.61,0,0,1,476,333a25.65,25.65,0,0,1-5.53-8.52,30.25,30.25,0,0,1,0-21.58,25.85,25.85,0,0,1,5.53-8.52,24.61,24.61,0,0,1,8.52-5.59,29.81,29.81,0,0,1,16.71-1.38,25.24,25.24,0,0,1,5.7,1.88,23.4,23.4,0,0,1,5,3.21,17.13,17.13,0,0,1,3.87,4.59h.22v-41.5h6.64v83.67H516.1Zm.67-16.6a20.24,20.24,0,0,0-1.66-8.13,20.8,20.8,0,0,0-4.54-6.64,21.75,21.75,0,0,0-6.75-4.48,21.07,21.07,0,0,0-8.41-1.66,20.56,20.56,0,0,0-8.41,1.66,19.41,19.41,0,0,0-6.42,4.48,18.94,18.94,0,0,0-4,6.64,24.67,24.67,0,0,0,0,16.27,19.12,19.12,0,0,0,4,6.64A19.56,19.56,0,0,0,487,333a20.73,20.73,0,0,0,8.41,1.66,21.25,21.25,0,0,0,8.41-1.66,21.92,21.92,0,0,0,6.75-4.48,21,21,0,0,0,4.54-6.64A20.33,20.33,0,0,0,516.77,313.69Z"/><path class="cls-1" d="M584.16,329.63a22.39,22.39,0,0,1-9.57,8.41A30.58,30.58,0,0,1,562,340.58a27.2,27.2,0,0,1-10.62-2,23.82,23.82,0,0,1-8.19-5.59,24.41,24.41,0,0,1-5.26-8.52,31,31,0,0,1-1.83-10.9A29.3,29.3,0,0,1,538,303a25.43,25.43,0,0,1,5.32-8.47,24.73,24.73,0,0,1,8.08-5.64,25.11,25.11,0,0,1,10.29-2.05A24.53,24.53,0,0,1,572,288.85a22.59,22.59,0,0,1,7.53,5.42,22.85,22.85,0,0,1,4.59,7.69,25.78,25.78,0,0,1,1.55,8.74v4.65H542.77a23,23,0,0,0,.83,5.37,19.24,19.24,0,0,0,9,11.67,18.42,18.42,0,0,0,9.57,2.22,21.3,21.3,0,0,0,9.85-2.44,17.71,17.71,0,0,0,7.3-6.64Zm-5.09-20.25a15.11,15.11,0,0,0-1.38-6.42,17.4,17.4,0,0,0-3.76-5.26,18,18,0,0,0-5.65-3.6,18.27,18.27,0,0,0-6.91-1.32,16.87,16.87,0,0,0-9,2.21,19.73,19.73,0,0,0-5.7,5.09,20,20,0,0,0-3,5.59,14.88,14.88,0,0,0-.89,3.71Z"/><path class="cls-1" d="M600.54,302.51c0-.95,0-2.12-.11-3.48s-.13-2.75-.17-4.15-.09-2.71-.16-3.93-.11-2.16-.11-2.82h6.64c.07,1.92.13,3.76.16,5.53a17.28,17.28,0,0,0,.28,3.43h.33a18,18,0,0,1,6.64-7.25,19.42,19.42,0,0,1,10.85-3,21.89,21.89,0,0,1,9.74,1.88,15.8,15.8,0,0,1,5.92,4.93,18.45,18.45,0,0,1,3,7,39.65,39.65,0,0,1,.83,8.19v30.44h-6.64V309.15a32.44,32.44,0,0,0-.55-6,15.84,15.84,0,0,0-1.94-5.25,10.09,10.09,0,0,0-3.87-3.71,13.3,13.3,0,0,0-6.47-1.38,18.85,18.85,0,0,0-6.92,1.27,14.84,14.84,0,0,0-5.64,3.87,18.89,18.89,0,0,0-3.77,6.53,27.91,27.91,0,0,0-1.38,9.24v25.57h-6.64Z"/><path class="cls-1" d="M687.08,294.1H672.47v33.31a7.19,7.19,0,0,0,1.89,5.32,7,7,0,0,0,5.2,1.88,15.34,15.34,0,0,0,3.81-.5,24.93,24.93,0,0,0,3.71-1.27l.55,6a37.54,37.54,0,0,1-4.31,1.22,19.62,19.62,0,0,1-4.32.55,15.87,15.87,0,0,1-6.08-1.05,10.78,10.78,0,0,1-4.1-2.82,11.1,11.1,0,0,1-2.27-4.15,17.66,17.66,0,0,1-.72-5.15V294.1H654.77v-6h11.06V273.41h6.64v14.72h14.61Z"/><path class="cls-1" d="M698.48,267.88a4.92,4.92,0,1,1,1.44,3.54A4.8,4.8,0,0,1,698.48,267.88Zm1.66,20.25h6.64v51.13h-6.64Z"/><path class="cls-1" d="M750.6,294.1H736v33.31a7.22,7.22,0,0,0,1.88,5.32,7.07,7.07,0,0,0,5.21,1.88,15.34,15.34,0,0,0,3.81-.5,24.93,24.93,0,0,0,3.71-1.27l.55,6a37.54,37.54,0,0,1-4.31,1.22,19.7,19.7,0,0,1-4.32.55,15.87,15.87,0,0,1-6.08-1.05,10.78,10.78,0,0,1-4.1-2.82,11.1,11.1,0,0,1-2.27-4.15,17.66,17.66,0,0,1-.72-5.15V294.1H718.29v-6h11.06V273.41H736v14.72H750.6Z"/><path class="cls-1" d="M776.83,355.08a19.17,19.17,0,0,1-5.2,7.86,13.06,13.06,0,0,1-8.86,2.88,20.76,20.76,0,0,1-3.32-.28,32.6,32.6,0,0,1-3.21-.72l.67-6.2c1,.3,1.93.57,2.93.83a12,12,0,0,0,3,.39,6.46,6.46,0,0,0,3.16-.77,8.49,8.49,0,0,0,2.38-2,13.54,13.54,0,0,0,1.71-2.71c.48-1,.9-2,1.28-3l4.64-11.84-20.8-51.35h7.41l16.93,43.05,16.49-43.05h7.09Z"/><path class="cls-1" d="M834.15,260.9h7.53l19.47,69.39h.23l19.8-69.39h9.3l19.81,69.39h.22L930,260.9h7.52l-22.79,78.36h-9l-19.81-69.72h-.22l-19.81,69.72h-9Z"/><path class="cls-1" d="M942.05,313.69a28.5,28.5,0,0,1,2-10.79,25.72,25.72,0,0,1,5.54-8.52,24.61,24.61,0,0,1,8.52-5.59,28.87,28.87,0,0,1,10.84-2,28.46,28.46,0,0,1,10.79,2,25.06,25.06,0,0,1,14.11,14.11,30.25,30.25,0,0,1,0,21.58,25.06,25.06,0,0,1-14.11,14.11,28.46,28.46,0,0,1-10.79,2,28.87,28.87,0,0,1-10.84-2,24.61,24.61,0,0,1-8.52-5.59,25.52,25.52,0,0,1-5.54-8.52A28.46,28.46,0,0,1,942.05,313.69Zm6.64,0a23.79,23.79,0,0,0,1.38,8.14,19.27,19.27,0,0,0,4,6.64,19.56,19.56,0,0,0,6.42,4.48,22.13,22.13,0,0,0,16.82,0,19.56,19.56,0,0,0,6.42-4.48,19.12,19.12,0,0,0,4-6.64,24.5,24.5,0,0,0,0-16.27,18.94,18.94,0,0,0-4-6.64,19.41,19.41,0,0,0-6.42-4.48,22.13,22.13,0,0,0-16.82,0,19.41,19.41,0,0,0-6.42,4.48,19.09,19.09,0,0,0-4,6.64A23.69,23.69,0,0,0,948.69,313.69Z"/><path class="cls-1" d="M1010.66,302.51c0-.95,0-2.12-.11-3.48s-.13-2.75-.16-4.15-.1-2.71-.17-3.93-.11-2.16-.11-2.82h6.64c.07,1.92.13,3.76.16,5.53a17.28,17.28,0,0,0,.28,3.43,22.85,22.85,0,0,1,6.53-7.41,16.18,16.18,0,0,1,9.74-2.88,11.29,11.29,0,0,1,1.94.17c.62.11,1.27.24,1.93.38l-.77,6.53a8.24,8.24,0,0,0-2.55-.44,18.58,18.58,0,0,0-7.47,1.38,14.22,14.22,0,0,0-5.2,3.82,16.12,16.12,0,0,0-3,5.7,23.8,23.8,0,0,0-1,7v27.89h-6.64Z"/><path class="cls-1" d="M1047.51,255.59h6.64v55.78l25.24-23.13h9.73l-26.33,23.35,29.43,27.67h-10.07l-28-27v27h-6.64Z"/><path class="cls-1" d="M1100.85,326.2a14.29,14.29,0,0,0,6.2,6.25,18.25,18.25,0,0,0,8.63,2.16,13.71,13.71,0,0,0,4.21-.67,12.63,12.63,0,0,0,3.76-1.88,10.21,10.21,0,0,0,2.71-2.93,7.36,7.36,0,0,0,1.05-3.93,6.3,6.3,0,0,0-2.27-5.31,17,17,0,0,0-5.58-2.77,68.14,68.14,0,0,0-7.31-1.71,31.12,31.12,0,0,1-7.3-2.22,15.68,15.68,0,0,1-5.59-4.15c-1.51-1.77-2.27-4.27-2.27-7.52a13.17,13.17,0,0,1,1.55-6.53,14.18,14.18,0,0,1,4-4.59,17.39,17.39,0,0,1,5.59-2.71,22.85,22.85,0,0,1,6.31-.89,23.9,23.9,0,0,1,10.9,2.32,16.16,16.16,0,0,1,7.14,7.31l-6,3.54a14.14,14.14,0,0,0-4.7-5.37,14.67,14.67,0,0,0-11.07-1.27,12.87,12.87,0,0,0-3.49,1.55,9,9,0,0,0-2.6,2.54,6.2,6.2,0,0,0-1,3.55,5.91,5.91,0,0,0,2.27,5.09,17.55,17.55,0,0,0,5.59,2.6,68.89,68.89,0,0,0,7.3,1.6,29.37,29.37,0,0,1,7.31,2.16,14.87,14.87,0,0,1,5.58,4.32c1.52,1.88,2.27,4.55,2.27,8a15.05,15.05,0,0,1-1.49,6.92,14.34,14.34,0,0,1-4.1,4.92,18.25,18.25,0,0,1-5.92,3,24.21,24.21,0,0,1-7,1,28.56,28.56,0,0,1-12.12-2.54,18.4,18.4,0,0,1-8.46-7.86Z"/><path class="cls-1" d="M1147.89,255.59h6.64v41.5h.22a18,18,0,0,1,6.64-7.25,19.41,19.41,0,0,1,10.84-3,21.86,21.86,0,0,1,9.74,1.88,15.72,15.72,0,0,1,5.92,4.93,18.47,18.47,0,0,1,3,7,40.34,40.34,0,0,1,.83,8.19v30.44h-6.64V309.15a32.44,32.44,0,0,0-.55-6,16.07,16.07,0,0,0-1.94-5.25,10.09,10.09,0,0,0-3.87-3.71,13.31,13.31,0,0,0-6.48-1.38,18.8,18.8,0,0,0-6.91,1.27,15,15,0,0,0-5.65,3.87,18.72,18.72,0,0,0-3.76,6.53,27.91,27.91,0,0,0-1.38,9.24v25.57h-6.64Z"/><path class="cls-1" d="M1206.54,313.69a28.5,28.5,0,0,1,2-10.79,25.85,25.85,0,0,1,5.53-8.52,24.66,24.66,0,0,1,8.53-5.59,28.87,28.87,0,0,1,10.84-2,28.46,28.46,0,0,1,10.79,2,25.06,25.06,0,0,1,14.11,14.11,30.25,30.25,0,0,1,0,21.58,25.06,25.06,0,0,1-14.11,14.11,28.46,28.46,0,0,1-10.79,2,28.87,28.87,0,0,1-10.84-2,24.66,24.66,0,0,1-8.53-5.59,25.65,25.65,0,0,1-5.53-8.52A28.46,28.46,0,0,1,1206.54,313.69Zm6.64,0a23.79,23.79,0,0,0,1.38,8.14,19.12,19.12,0,0,0,4,6.64A19.56,19.56,0,0,0,1225,333a22.13,22.13,0,0,0,16.82,0,19.56,19.56,0,0,0,6.42-4.48,19.12,19.12,0,0,0,4-6.64,24.67,24.67,0,0,0,0-16.27,18.94,18.94,0,0,0-4-6.64,19.41,19.41,0,0,0-6.42-4.48,22.13,22.13,0,0,0-16.82,0,19.41,19.41,0,0,0-6.42,4.48,18.94,18.94,0,0,0-4,6.64A23.69,23.69,0,0,0,1213.18,313.69Z"/><path class="cls-1" d="M1273.71,288.13h6.64v9h.22a17.35,17.35,0,0,1,3.88-4.59,23.33,23.33,0,0,1,5-3.21,25.41,25.41,0,0,1,5.7-1.88,29.05,29.05,0,0,1,5.87-.61,28.5,28.5,0,0,1,10.79,2A25.06,25.06,0,0,1,1326,302.9a30.25,30.25,0,0,1,0,21.58,25.06,25.06,0,0,1-14.11,14.11,28.5,28.5,0,0,1-10.79,2,29.76,29.76,0,0,1-5.87-.6,25.43,25.43,0,0,1-5.7-1.89,22.59,22.59,0,0,1-5-3.21,17.35,17.35,0,0,1-3.88-4.59h-.22v34.2h-6.64Zm6,25.56a20.16,20.16,0,0,0,1.66,8.14,20.86,20.86,0,0,0,4.54,6.64,21.69,21.69,0,0,0,6.75,4.48,21.21,21.21,0,0,0,8.41,1.66,20.73,20.73,0,0,0,8.41-1.66,19.66,19.66,0,0,0,6.42-4.48,19.27,19.27,0,0,0,4-6.64,24.67,24.67,0,0,0,0-16.27,19.09,19.09,0,0,0-4-6.64,19.51,19.51,0,0,0-6.42-4.48,20.56,20.56,0,0,0-8.41-1.66,21,21,0,0,0-8.41,1.66,21.51,21.51,0,0,0-6.75,4.48,20.64,20.64,0,0,0-4.54,6.64A20.08,20.08,0,0,0,1279.69,313.69Z"/></svg>