<svg id="Layer_1" data-name="Layer 1" xmlns="http://www.w3.org/2000/svg" viewBox="0 0 1309.83 99.71"><defs><style>.cls-1{fill:#231f20;stroke:#231f20;stroke-miterlimit:10;stroke-width:3px;}</style></defs><path class="cls-1" d="M0,0H5.64V77.14H0Z"/><path class="cls-1" d="M70.72,43.94v33.2H65.29V45.26c0-12.72-4.42-18.59-13.5-18.59-10.62,0-17,8.41-17,24.46v26H29.33V22.58h5.42v9.63C38,25.56,44.71,21.8,52.9,21.8,64.41,21.8,70.72,29,70.72,43.94Z"/><path class="cls-1" d="M110.66,76.58A29.67,29.67,0,0,1,103,77.91c-6.64,0-11-3.76-11-12.61V27.22H82.89V22.58h9.18V7.08l5.42-4.2v19.7h13.06v4.64H97.49V64.63c0,5.76,2.33,8.3,6.76,8.3a21.37,21.37,0,0,0,6.3-1.22Z"/><path class="cls-1" d="M167.11,51h-41c.22,13.72,7.52,21.91,19.14,21.91,6.75,0,11.4-1.77,16.71-7.3l3.88,3.43c-6.42,6.53-12.29,8.85-20.7,8.85-15.71,0-24.46-11.84-24.46-27.78s8.64-28.33,23.58-28.33C161,21.8,167.44,35,167.44,46.37A28.82,28.82,0,0,1,167.11,51Zm-41-4.54h36.08c0-.55,0-.77-.12-2.32-.33-9-5.75-17.71-17.81-17.71C133.79,26.45,126.93,35.08,126.16,46.48Z"/><path class="cls-1" d="M214.91,23.79l-2.76,4.43a17.34,17.34,0,0,0-6.87-1.44c-8.41,0-16.15,6.09-16.15,19.15V77.14H183.7V22.58h5.43v10c3.76-8.3,11.17-10.74,17.15-10.74A18.36,18.36,0,0,1,214.91,23.79Z"/><path class="cls-1" d="M268.7,43.94v33.2h-5.43V45.26c0-12.72-4.42-18.59-13.5-18.59-10.62,0-17,8.41-17,24.46v26H227.3V22.58h5.43v9.63c3.21-6.65,10-10.41,18.15-10.41C262.39,21.8,268.7,29,268.7,43.94Z"/><path class="cls-1" d="M330.45,51H289.5c.22,13.72,7.52,21.91,19.14,21.91,6.75,0,11.4-1.77,16.72-7.3l3.87,3.43c-6.42,6.53-12.29,8.85-20.7,8.85-15.71,0-24.46-11.84-24.46-27.78s8.64-28.33,23.58-28.33c16.71,0,23.13,13.17,23.13,24.57A28.82,28.82,0,0,1,330.45,51ZM289.5,46.48h36.08c0-.55,0-.77-.11-2.32-.34-9-5.76-17.71-17.82-17.71C297.13,26.45,290.27,35.08,289.5,46.48Z"/><path class="cls-1" d="M367.3,76.58a29.81,29.81,0,0,1-7.64,1.33c-6.64,0-11-3.76-11-12.61V27.22h-9.18V22.58h9.18V7.08l5.43-4.2v19.7h13.06v4.64H354.13V64.63c0,5.76,2.32,8.3,6.75,8.3a21.49,21.49,0,0,0,6.31-1.22Z"/><path class="cls-1" d="M415.1,0h5.65V77.14H415.1Z"/><path class="cls-1" d="M489.91,0V77.14h-5.53v-11a21.62,21.62,0,0,1-19.81,11.73C449.19,77.91,440,66,440,49.8c0-16.6,9.74-28.11,24.57-28.11a21.66,21.66,0,0,1,19.81,11.84V0Zm-5.09,49.8c0-13.72-7.74-23.24-19.59-23.24s-19.7,9.52-19.7,23.24C445.53,63.08,453,73,465.23,73S484.82,63.19,484.82,49.8Z"/><path class="cls-1" d="M553,51H512c.23,13.72,7.53,21.91,19.15,21.91,6.75,0,11.4-1.77,16.71-7.3l3.88,3.43c-6.42,6.53-12.29,8.85-20.7,8.85-15.72,0-24.46-11.84-24.46-27.78s8.63-28.33,23.57-28.33c16.72,0,23.14,13.17,23.14,24.57A28.73,28.73,0,0,1,553,51Zm-41-4.54h36.08c0-.55,0-.77-.11-2.32-.33-9-5.75-17.71-17.82-17.71C519.68,26.45,512.82,35.08,512,46.48Z"/><path class="cls-1" d="M611,43.94v33.2h-5.42V45.26c0-12.72-4.43-18.59-13.5-18.59-10.63,0-17,8.41-17,24.46v26h-5.42V22.58H575v9.63c3.21-6.65,10-10.41,18.15-10.41C604.67,21.8,611,29,611,43.94Z"/><path class="cls-1" d="M650.93,76.58a29.74,29.74,0,0,1-7.64,1.33c-6.64,0-10.95-3.76-10.95-12.61V27.22h-9.19V22.58h9.19V7.08l5.42-4.2v19.7h13.06v4.64H637.76V64.63c0,5.76,2.32,8.3,6.75,8.3a21.49,21.49,0,0,0,6.31-1.22Z"/><path class="cls-1" d="M665.42,0h6.31V10.85h-6.31Zm.45,22.58h5.42V77.14h-5.42Z"/><path class="cls-1" d="M712.57,76.58a29.74,29.74,0,0,1-7.64,1.33c-6.64,0-10.95-3.76-10.95-12.61V27.22h-9.19V22.58H694V7.08l5.42-4.2v19.7h13.06v4.64H699.4V64.63c0,5.76,2.32,8.3,6.75,8.3a21.49,21.49,0,0,0,6.31-1.22Z"/><path class="cls-1" d="M744,76.7,720.2,22.58h6l20.69,47.59,17.49-47.59h6.09L741,99.71h-5.87Z"/><path class="cls-1" d="M809.07,0h5.86L834.3,69,855.22,4h5.09l20.8,65L900.48,0h6l-22,77.14h-6L857.76,13,837,77.14h-5.87Z"/><path class="cls-1" d="M913.87,49.8c0-16.38,10.51-28,25.67-28s25.79,11.62,25.79,28S954.7,77.91,939.54,77.91,913.87,66.29,913.87,49.8Zm46,0c0-13.72-8.08-23.13-20.37-23.13S919.4,36.19,919.4,49.8,927.26,73,939.54,73,959.91,63.3,959.91,49.8Z"/><path class="cls-1" d="M1013,23.79l-2.77,4.43a17.33,17.33,0,0,0-6.86-1.44c-8.41,0-16.16,6.09-16.16,19.15V77.14h-5.42V22.58h5.42v10c3.76-8.3,11.18-10.74,17.15-10.74A18.43,18.43,0,0,1,1013,23.79Z"/><path class="cls-1" d="M1025.42,0h5.42V54l30-31.43h7.42l-19.59,20.25,23,34.31h-6.42L1045,46.26,1030.84,61V77.14h-5.42Z"/><path class="cls-1" d="M1079.09,64l4.65-2.1C1086,68.17,1092,73,1101,73c8.3,0,13.61-4.09,13.61-10.73,0-16.49-32.86-6.75-32.86-25.9,0-9.3,7.74-14.61,18.15-14.61,8.74,0,15.27,3.76,18.92,11.29l-4.32,2.33c-3-5.43-7.41-8.75-14.83-8.75s-12.61,3.1-12.61,9c0,14.61,33,5.31,33,26.34,0,10.4-8.3,15.93-18.93,15.93S1082,72.49,1079.09,64Z"/><path class="cls-1" d="M1177.69,43.94v33.2h-5.42V45.26c0-12.61-4.31-18.59-13.5-18.59-11,0-17,8.52-17,24V77.14h-5.43V0h5.43V32.21c3.21-6.53,9.73-10.41,18.15-10.41C1171.61,21.8,1177.69,29.33,1177.69,43.94Z"/><path class="cls-1" d="M1192.74,49.8c0-16.38,10.51-28,25.68-28s25.78,11.62,25.78,28-10.62,28.11-25.78,28.11S1192.74,66.29,1192.74,49.8Zm46,0c0-13.72-8.08-23.13-20.36-23.13s-20.15,9.52-20.15,23.13S1206.13,73,1218.42,73,1238.78,63.3,1238.78,49.8Z"/><path class="cls-1" d="M1309.83,49.91c0,16-8.41,28-23.8,28-9.18,0-16.38-4.65-19.92-12V99.71h-5.42V22.58h5.42V33.75A21.58,21.58,0,0,1,1286,21.69C1300.86,21.69,1309.83,33.2,1309.83,49.91Zm-5.54,0c0-13.72-7.08-23.35-19-23.35-11.73,0-19.59,9.52-19.59,23.35,0,13.28,7.41,23.13,19.59,23.13C1297.65,73,1304.29,63.19,1304.29,49.91Z"/></svg>