<svg id="Layer_1" data-name="Layer 1" xmlns="http://www.w3.org/2000/svg" viewBox="0 0 920 920"><defs><style>.cls-1{fill:#f2f2f2;}.cls-2{fill:#cacaca;}.cls-3{fill:#ffb6b6;}.cls-4{fill:#335eea;}.cls-5{fill:#acabb0;}.cls-6{fill:#636267;}.cls-7{fill:#6c8aec;}.cls-8{fill:#fb970b;}.cls-9{fill:none;stroke:#000;stroke-miterlimit:10;stroke-width:5px;}</style></defs><path class="cls-1" d="M53.93,818.93c12.42,23,38.78,32.92,38.78,32.92s6.22-27.45-6.2-50.48-38.78-32.92-38.78-32.92S41.51,795.9,53.93,818.93Z"/><path class="cls-1" d="M62.46,811.36c22.43,13.49,31.06,40.28,31.06,40.28s-27.72,4.92-50.14-8.57-31.06-40.28-31.06-40.28S40,797.87,62.46,811.36Z"/><rect class="cls-1" x="706.07" y="729.17" width="2" height="18.49"/><rect class="cls-2" x="12.32" y="851.17" width="895.35" height="2"/><polygon class="cls-3" points="829.1 832.02 809.88 832.02 800.73 757.89 829.1 757.89 829.1 832.02"/><path d="M834,850.65H772v-.79a24.14,24.14,0,0,1,24.13-24.12h0l11.32-8.58,21.12,8.59H834Z"/><polygon class="cls-3" points="739.8 832.02 720.59 832.02 711.44 757.89 739.81 757.89 739.8 832.02"/><path d="M744.71,850.65h-62v-.79a24.12,24.12,0,0,1,24.12-24.12h0l11.32-8.58,21.12,8.59h5.41Z"/><path d="M722.13,455.11,856.5,429.86C880.24,442.76,861,580,861,580l-13.13,74.85s-3.77,150.84-5.82,153.58l-44.31.05,6.8-140.5L788.78,536.63,750.7,665.32l2.22,140.5-51.86.56,3.24-164.91Z"/><path class="cls-3" d="M600.42,432.67a16.25,16.25,0,0,0,19.8-11.28,15.48,15.48,0,0,0,.52-2.78l55.5-13.95-21.73-19.88-49.37,16.3a16.31,16.31,0,0,0-16.63,15.74,15.87,15.87,0,0,0,11.91,15.85Z"/><path class="cls-3" d="M837.47,489.7a16.25,16.25,0,0,0,7-21.7,15.92,15.92,0,0,0-1.49-2.39l31.5-47.78-29.45,0-25.4,45.37A16.31,16.31,0,0,0,818,486.06a15.88,15.88,0,0,0,19.49,3.64Z"/><path class="cls-4" d="M629.76,388.66l21.08,28.95,89.25-29.32-6.82-155.38h0a62.79,62.79,0,0,0-23.2,42.39l-19.73,87.78Z"/><path class="cls-4" d="M712.83,466c40.77,5.21,78.33-10.58,113.81-22.49,16-5.38,33-.37,47.82-9.46,8.11-63.2-1-134.08,12.68-210.11a18,18,0,0,0-12.25-20.37l-44-12.63-13.56-15-35,8.89L770.08,207l-46,31.79c-5,3.39-12.75,23.32-11.71,29.28C725.06,339.59,731.14,395.72,712.83,466Z"/><circle class="cls-3" cx="797.53" cy="127.49" r="42.71"/><path class="cls-5" d="M770.32,102.42a20.19,20.19,0,0,1,4.89.64,69.3,69.3,0,0,0,9.59,1.61,44.43,44.43,0,0,1,39.78,37.68c2.48-2.16,8.12-6.14,12.75-2.45h0c.07.06.12.09.28,0,3.07-1.46,8.53-19.41,8.69-35.22.09-8.39-1.23-19.1-8-22.49l-.36-.18-.09-.39c-.46-1.88-5.52-5.1-14.32-7.61-16-4.56-39.84-13.43-53.27-.37-1,4.4-4.32,13.82-7.66,14.89-3.7,1.19-6.89,2.21-7.39,6.74a139.27,139.27,0,0,0,.09,19.38,19.82,19.82,0,0,1,7-9.88A14,14,0,0,1,770.32,102.42Z"/><polygon points="464.12 798.5 240.17 798.5 240.17 796.71 462.15 796.71 462.15 749.82 214.14 749.82 202.09 726.94 203.86 726.17 215.37 748.03 464.12 748.03 464.12 798.5"/><path d="M492.7,727.94H166.46L95.87,497.2H565.4l-.43,1.36ZM168,725.85H491.17l71.38-226.56H98.69Z"/><polygon class="cls-1" points="467.24 715.93 180.68 715.93 118.68 511.29 531.09 511.29 530.71 512.5 467.24 715.93"/><rect x="63.72" y="458.75" width="536.61" height="44.21"/><rect class="cls-5" x="126.02" y="241.69" width="217.05" height="217.05"/><rect class="cls-6" x="126.02" y="406.49" width="217.05" height="52.25"/><rect class="cls-6" x="453.61" y="312.04" width="72.35" height="146.71"/><polygon class="cls-1" points="489.79 312.04 525.96 241.69 453.61 241.69 489.79 312.04"/><polygon points="464.13 262.14 515.45 262.14 489.79 312.04 464.13 262.14"/><rect x="427.48" y="406.49" width="26.13" height="8.04"/><rect class="cls-7" x="355.13" y="394.44" width="26.13" height="64.31"/><rect class="cls-8" x="385.28" y="394.44" width="26.13" height="64.31"/><polygon class="cls-5" points="355.13 394.44 368.19 369.32 381.26 394.44 355.13 394.44"/><polygon class="cls-5" points="385.28 394.44 398.34 369.32 411.4 394.44 385.28 394.44"/><rect class="cls-5" x="365.18" y="356.25" width="6.03" height="20.1"/><rect class="cls-5" x="395.33" y="356.25" width="6.03" height="20.1"/><circle class="cls-9" cx="548.28" cy="716" r="134.65"/><circle cx="715.34" cy="413.87" r="14.5"/><circle cx="548.74" cy="715.34" r="30.8"/><polygon points="598.21 464.34 596.05 463.77 610.77 408.3 696.38 408.3 696.38 410.53 612.49 410.53 598.21 464.34"/><circle class="cls-9" cx="191.05" cy="801.53" r="49.12"/><circle cx="191.4" cy="802.19" r="18.09"/></svg>