<svg id="Layer_1" data-name="Layer 1" xmlns="http://www.w3.org/2000/svg" xmlns:xlink="http://www.w3.org/1999/xlink" viewBox="0 0 920 920"><defs><style>.cls-1,.cls-13,.cls-18{fill:none;}.cls-2,.cls-3,.cls-4{font-size:36.65px;font-family:Europa-Bold;font-weight:700;}.cls-11,.cls-2{fill:#fb970b;}.cls-3,.cls-9{fill:#1746e0;}.cls-5{fill:#fbaa37;}.cls-6{clip-path:url(#clip-path);}.cls-7{fill:#9e616a;}.cls-8{fill:#6c8aec;}.cls-10{fill:#335eea;}.cls-12{fill:#fcc372;}.cls-13,.cls-17,.cls-18{stroke:#cbcbcb;stroke-miterlimit:10;}.cls-13{stroke-width:3px;}.cls-14,.cls-17{fill:#cbcbcb;}.cls-15{clip-path:url(#clip-path-2);}.cls-16{fill:gray;}.cls-17{stroke-width:5px;}.cls-18{stroke-width:6px;}</style><clipPath id="clip-path"><circle class="cls-1" cx="459.19" cy="260.85" r="145.56"/></clipPath><clipPath id="clip-path-2"><circle class="cls-1" cx="170.73" cy="397.99" r="19.55"/></clipPath></defs><text class="cls-2" transform="translate(116.16 771.57)">ISSUER</text><text class="cls-3" transform="translate(700.91 794.6)">VERIFIER</text><text class="cls-4" transform="translate(390.06 455.78)">HOLDER</text><circle class="cls-5" cx="459.19" cy="260.85" r="145.56"/><g class="cls-6"><path d="M406.15,213c5.35-17.05,17.51-32.69,34.34-38.45s41.46,3,54.11,15.62c23.14,23.06,28.78,102.28,12.89,127.31-3.17-.17-14.08-.29-17.28-.41L485.69,302v14.94c-25-.77-51-.29-77,.21C406.35,299.38,400.8,230,406.15,213Z"/><circle class="cls-7" cx="464.19" cy="232.6" r="36.87"/><path d="M420.2,208l36.66-30.16h0A53.36,53.36,0,0,1,497.16,214L501,226.14l-18.34-.46-5.5-15.37.38,15.24-8.46-.21-5.52-24.55-2.41,26.34-30.07,0Z"/><path class="cls-8" d="M589.53,490s-57.6-149.87-69.16-168.79-22.6-19.8-22.6-19.8l-.07.1-15-19L435,281.8l-14.87,19.45a36.89,36.89,0,0,0-25.54,30.05c-7.09,21.81-29.46,179.79-29.46,179.79l29.51-15.44,21.51-62.9c29.4,0,105.35,0,105.35,0l-.37-9.39,36.14,58.19Z"/></g><rect class="cls-9" x="645.23" y="487" width="258.23" height="14.8"/><rect class="cls-10" x="678.12" y="449.17" width="192.44" height="37.83"/><rect class="cls-10" x="653.45" y="501.81" width="241.78" height="248.36"/><rect class="cls-8" x="668.25" y="516.61" width="31.25" height="46.05"/><rect class="cls-8" x="713.49" y="516.61" width="31.25" height="46.05"/><rect class="cls-8" x="758.72" y="516.61" width="31.25" height="46.05"/><rect class="cls-8" x="803.95" y="516.61" width="31.25" height="46.05"/><rect class="cls-8" x="849.18" y="516.61" width="31.25" height="46.05"/><rect class="cls-8" x="668.25" y="572.53" width="31.25" height="46.05"/><rect class="cls-8" x="713.49" y="572.53" width="31.25" height="46.05"/><rect class="cls-8" x="758.72" y="572.53" width="31.25" height="46.05"/><rect class="cls-8" x="803.95" y="572.53" width="31.25" height="46.05"/><rect class="cls-8" x="849.18" y="572.53" width="31.25" height="46.05"/><rect class="cls-8" x="668.25" y="628.45" width="31.25" height="46.05"/><rect class="cls-8" x="713.49" y="628.45" width="31.25" height="46.05"/><rect class="cls-8" x="758.72" y="628.45" width="31.25" height="46.05"/><rect class="cls-8" x="803.95" y="628.45" width="31.25" height="46.05"/><rect class="cls-8" x="849.18" y="628.45" width="31.25" height="46.05"/><rect class="cls-8" x="668.25" y="686.02" width="31.25" height="46.05"/><rect class="cls-8" x="713.49" y="686.02" width="31.25" height="46.05"/><rect class="cls-8" x="803.95" y="686.02" width="31.25" height="46.05"/><rect class="cls-8" x="849.18" y="686.02" width="31.25" height="46.05"/><rect class="cls-9" x="756.25" y="694.24" width="36.18" height="55.92"/><rect class="cls-11" x="16.54" y="539.97" width="320.3" height="182.24"/><polygon class="cls-5" points="289.9 566.2 63.48 566.2 63.48 534.45 176.69 534.45 289.9 534.45 289.9 566.2"/><polygon class="cls-11" points="291.28 534.45 175.53 455.75 62.1 534.45 175.53 534.45 291.28 534.45"/><polygon class="cls-5" points="256.76 523.4 177.33 470.94 96.62 523.4 256.76 523.4"/><rect class="cls-5" x="64.85" y="707.02" width="223.69" height="15.19"/><rect class="cls-5" x="74.53" y="690.45" width="204.33" height="16.57"/><polygon class="cls-12" points="270.72 577.24 270.72 566.2 240.35 566.2 240.35 577.24 245.87 577.24 245.87 673.88 241.73 673.88 241.73 690.45 269.34 690.45 269.34 673.88 265.2 673.88 265.2 577.24 270.72 577.24"/><polygon class="cls-12" points="113.34 577.24 113.34 566.2 82.96 566.2 82.96 577.24 88.49 577.24 88.49 673.88 84.34 673.88 84.34 690.45 111.96 690.45 111.96 673.88 107.81 673.88 107.81 577.24 113.34 577.24"/><polygon class="cls-12" points="165.8 577.24 165.8 566.2 135.43 566.2 135.43 577.24 140.95 577.24 140.95 673.88 136.81 673.88 136.81 690.45 164.42 690.45 164.42 673.88 160.28 673.88 160.28 577.24 165.8 577.24"/><polygon class="cls-12" points="218.26 577.24 218.26 566.2 187.89 566.2 187.89 577.24 193.41 577.24 193.41 673.88 189.27 673.88 189.27 690.45 216.88 690.45 216.88 673.88 212.74 673.88 212.74 577.24 218.26 577.24"/><rect class="cls-12" x="289.59" y="591.05" width="24.85" height="33.13"/><rect class="cls-12" x="289.59" y="646.27" width="24.85" height="33.13"/><rect class="cls-12" x="38.32" y="591.05" width="24.85" height="33.13"/><rect class="cls-12" x="38.32" y="646.27" width="24.85" height="33.13"/><rect class="cls-5" x="16.54" y="539.97" width="320.3" height="13.81"/><rect class="cls-13" x="139.58" y="364.47" width="125" height="67.44"/><line class="cls-13" x1="201.26" y1="379.71" x2="249.13" y2="379.71"/><line class="cls-13" x1="201.26" y1="391.69" x2="249.13" y2="391.69"/><line class="cls-13" x1="201.26" y1="403.68" x2="249.13" y2="403.68"/><line class="cls-13" x1="201.26" y1="415.66" x2="249.13" y2="415.66"/><circle class="cls-14" cx="170.73" cy="397.99" r="19.55"/><g class="cls-15"><path d="M163.61,391.57a7.83,7.83,0,0,1,4.61-5.17c2.26-.77,5.57.41,7.27,2.1,3.1,3.1,3.86,13.73,1.73,17.1-.43,0-1.89,0-2.32-.06l-.61-2v2c-3.35-.1-6.85,0-10.34,0C163.64,403.17,162.89,393.85,163.61,391.57Z"/><circle class="cls-16" cx="171.4" cy="394.2" r="4.95"/><path d="M165.5,390.9l4.92-4h0a7.17,7.17,0,0,1,5.41,4.86l.52,1.62-2.47-.06-.73-2.06,0,2-1.14,0-.74-3.3-.32,3.54h-4Z"/><path class="cls-16" d="M188.23,428.76s-7.73-20.13-9.28-22.67-3-2.65-3-2.65h0l-2-2.56-6.4-.08-2,2.61a5,5,0,0,0-3.43,4c-.95,2.92-3.95,24.14-3.95,24.14l4-2.08,2.89-8.44H179.1l0-1.26,4.86,7.82Z"/></g><line class="cls-17" x1="266.23" y1="493.58" x2="365.41" y2="394.4"/><line class="cls-17" x1="570.51" y1="386.29" x2="644.99" y2="460.76"/><rect class="cls-13" x="676.77" y="277.29" width="95.4" height="134.87"/><line class="cls-13" x1="691.58" y1="297.03" x2="722.83" y2="297.03"/><line class="cls-13" x1="691.58" y1="311.04" x2="757.37" y2="311.04"/><line class="cls-13" x1="691.58" y1="324.99" x2="757.37" y2="324.99"/><line class="cls-13" x1="691.58" y1="338.15" x2="757.37" y2="338.15"/><line class="cls-13" x1="691.58" y1="351.31" x2="757.37" y2="351.31"/><line class="cls-13" x1="691.58" y1="364.47" x2="757.37" y2="364.47"/><line class="cls-13" x1="691.58" y1="379.27" x2="757.37" y2="379.27"/><line class="cls-13" x1="714.49" y1="392.43" x2="735.87" y2="392.43"/><circle class="cls-18" cx="749.97" cy="344.73" r="23.03"/><line class="cls-18" x1="790.26" y1="386.67" x2="767.24" y2="363.65"/></svg>