<svg width="3284" height="1024" viewBox="0 0 3284 1024" fill="none" xmlns="http://www.w3.org/2000/svg">
<path d="M0 0V1004.31H220.803V571.077H627.25V1004.31H848.054V0H627.25V385.407H220.803V0H0Z" fill="#303030"/>
<path d="M1510.76 562.637H1185.88C1186.82 548.571 1189.63 532.63 1194.32 514.813C1199.95 496.996 1208.86 480.117 1221.04 464.176C1234.17 448.234 1251.05 435.106 1271.67 424.791C1293.24 413.538 1319.96 407.912 1351.84 407.912C1400.59 407.912 1436.69 421.04 1460.13 447.297C1484.51 473.553 1501.38 512 1510.76 562.637ZM1185.88 689.231H1710.47C1714.22 632.967 1709.53 579.048 1696.4 527.473C1683.28 475.897 1661.71 429.949 1631.71 389.626C1602.64 349.304 1565.14 317.421 1519.2 293.978C1473.26 269.597 1419.35 257.407 1357.46 257.407C1302.15 257.407 1251.52 267.253 1205.57 286.945C1160.57 306.637 1121.66 333.832 1088.84 368.527C1056.03 402.286 1030.71 442.608 1012.9 489.494C995.084 536.381 986.177 587.018 986.177 641.407C986.177 697.67 994.615 749.245 1011.49 796.132C1029.31 843.018 1054.15 883.341 1086.03 917.099C1117.91 950.857 1156.82 977.114 1202.76 995.868C1248.7 1013.68 1300.27 1022.59 1357.46 1022.59C1439.97 1022.59 1510.29 1003.84 1568.42 966.33C1626.55 928.821 1669.68 866.462 1697.81 779.253H1522.01C1515.45 801.758 1497.63 823.326 1468.57 843.956C1439.5 863.648 1404.81 873.495 1364.5 873.495C1308.24 873.495 1265.11 858.96 1235.11 829.89C1205.1 800.821 1188.7 753.934 1185.88 689.231Z" fill="#303030"/>
<path d="M1834.54 0V1004.31H2034.25V0H1834.54Z" fill="#303030"/>
<path d="M2197.12 0V1004.31H2396.83V0H2197.12Z" fill="#303030"/>
<path d="M2531.58 641.407C2531.58 583.267 2540.49 530.755 2558.3 483.868C2576.12 436.044 2601.43 395.722 2634.25 362.901C2667.06 329.143 2706.44 303.355 2752.38 285.538C2798.33 266.784 2849.89 257.407 2907.09 257.407C2964.28 257.407 3015.85 266.784 3061.79 285.538C3108.67 303.355 3148.52 329.143 3181.33 362.901C3214.15 395.722 3239.46 436.044 3257.28 483.868C3275.09 530.755 3284 583.267 3284 641.407C3284 699.546 3275.09 752.059 3257.28 798.945C3239.46 845.831 3214.15 886.154 3181.33 919.912C3148.52 952.733 3108.67 978.52 3061.79 997.275C3015.85 1015.09 2964.28 1024 2907.09 1024C2849.89 1024 2798.33 1015.09 2752.38 997.275C2706.44 978.52 2667.06 952.733 2634.25 919.912C2601.43 886.154 2576.12 845.831 2558.3 798.945C2540.49 752.059 2531.58 699.546 2531.58 641.407ZM2731.29 641.407C2731.29 670.476 2734.1 699.077 2739.73 727.209C2745.35 754.403 2754.73 779.253 2767.85 801.758C2781.92 823.326 2800.2 840.674 2822.7 853.802C2845.21 866.93 2873.33 873.495 2907.09 873.495C2940.84 873.495 2968.97 866.93 2991.47 853.802C3014.91 840.674 3033.19 823.326 3046.32 801.758C3060.38 779.253 3070.23 754.403 3075.85 727.209C3081.48 699.077 3084.29 670.476 3084.29 641.407C3084.29 612.337 3081.48 583.736 3075.85 555.604C3070.23 527.473 3060.38 502.623 3046.32 481.055C3033.19 459.487 3014.91 442.139 2991.47 429.011C2968.97 414.945 2940.84 407.912 2907.09 407.912C2873.33 407.912 2845.21 414.945 2822.7 429.011C2800.2 442.139 2781.92 459.487 2767.85 481.055C2754.73 502.623 2745.35 527.473 2739.73 555.604C2734.1 583.736 2731.29 612.337 2731.29 641.407ZM2660.97 28.1319H3157.42V133.626H2660.97V28.1319Z" fill="#303030"/>
</svg>
